<svg width="147" height="139" viewBox="0 0 147 139" fill="none" xmlns="http://www.w3.org/2000/svg">
<path d="M146.359 44.2148C146.359 19.7893 127.785 0 104.86 0C92.1951 0 80.874 6.03099 73.2678 15.5486C65.6615 6.03091 54.3229 0 41.6753 0C18.7503 0 0.176758 19.7893 0.176758 44.2148C0.176758 57.0306 5.71343 67.7546 13.4789 76.6501L73.4266 138.053L132.349 77.3286C139.813 69.036 146.358 57.3886 146.358 44.2148H146.359Z" fill="#D1525C"/>
<path d="M96.8242 58.6164C93.33 55.1222 88.6845 53.1992 83.7448 53.1992H65.4571C65.3207 53.1992 65.1864 53.2077 65.0542 53.2226C67.653 55.8215 70.2518 58.4203 72.8507 61.0191H62.7922C59.9589 61.0191 57.294 59.9148 55.2899 57.9107C53.2859 55.9067 52.1816 53.2418 52.1816 50.4085C52.1816 47.5751 53.2859 44.9102 55.2899 42.9062C57.294 40.9022 59.9589 39.7979 62.7922 39.7979H100.664V31.9076H62.7922C57.8504 31.9076 53.2049 33.8327 49.7107 37.3248C46.2186 40.8191 44.2935 45.4645 44.2935 50.4064C44.2935 55.3482 46.2186 59.9936 49.7107 63.4857C53.2049 66.98 57.8504 68.903 62.7901 68.903H81.0309C78.4214 66.302 75.8183 63.6925 73.2131 61.0852H83.7427C86.576 61.0852 89.2409 62.1895 91.245 64.1935C93.249 66.1976 94.3533 68.8625 94.3533 71.6958C94.3533 77.5458 89.5927 82.3064 83.7427 82.3064H45.8732V90.1946H83.7448C88.6866 90.1946 93.3321 88.2694 96.8242 84.7773C100.318 81.2831 102.241 76.6376 102.241 71.6979C102.241 66.7583 100.316 62.1107 96.8242 58.6186V58.6164Z" fill="white"/>
</svg>
