<svg width="45" height="57" viewBox="0 0 45 57" fill="none" xmlns="http://www.w3.org/2000/svg">
<path d="M30.0914 4.5137L30.0042 4.748L30.0914 4.5137C28.1681 3.79796 26.1664 3.35822 24.1208 3.20039V2.19657C24.1208 1.24693 23.3509 0.476746 22.401 0.476746C21.4511 0.476746 20.6811 1.24693 20.6811 2.19657V3.20026C18.6355 3.3579 16.6338 3.79775 14.7105 4.5136C10.5375 6.06671 6.96683 8.81734 4.3855 12.4671C1.74463 16.201 0.348633 20.6002 0.348633 25.1879C0.348633 32.3297 3.7645 38.9133 9.435 43.0277C7.93612 43.9918 6.62458 45.2334 5.56352 46.7098L5.76653 46.8557L5.56351 46.7099C3.81459 49.1438 2.88994 52.0199 2.88994 55.0259C2.88994 55.9757 3.65987 56.7457 4.60976 56.7457H40.192C41.1419 56.7457 41.9118 55.9755 41.9118 55.0259C41.9119 50.1123 39.3764 45.6158 35.3648 43.0292C41.0368 38.9147 44.4533 32.3305 44.4533 25.188C44.4533 20.6004 43.0573 16.2011 40.4164 12.4672C37.8351 8.81734 34.2644 6.06682 30.0914 4.5137ZM31.0415 41.6772L31.0413 41.6772C28.3999 43.0661 25.4119 43.8006 22.4009 43.8006C19.39 43.8006 16.4019 43.0661 13.7597 41.6769L13.7596 41.6768C7.60881 38.4472 3.78838 32.1292 3.78838 25.188C3.78838 18.062 7.92035 11.5522 14.2355 8.45907C15.6316 11.6343 18.7946 13.7777 22.401 13.7777C26.0073 13.7777 29.1704 11.6344 30.5664 8.45907C36.8817 11.5522 41.0136 18.062 41.0136 25.188C41.0136 32.1293 37.1931 38.4472 31.0415 41.6772ZM22.401 6.57392C24.0853 6.57392 25.7412 6.79735 27.3433 7.2381C26.4509 9.09609 24.5548 10.338 22.401 10.338C20.2471 10.338 18.351 9.09609 17.4586 7.23811C19.0608 6.79735 20.7167 6.57392 22.401 6.57392ZM31.9266 45.0809C35.3393 46.5502 37.7492 49.678 38.3346 53.3061H6.46483C6.72725 51.6549 7.36812 50.0931 8.35683 48.7173C9.51801 47.1019 11.0705 45.8565 12.8755 45.0809C15.8279 46.4956 19.1036 47.2403 22.4011 47.2403C25.6987 47.2403 28.9747 46.4955 31.9266 45.0809Z" fill="#FF1900" stroke="#FF1900" stroke-width="0.5"/>
<path d="M22.4011 15.3952C16.8617 15.3952 12.355 19.9024 12.355 25.4428C12.355 30.9823 16.8617 35.489 22.4011 35.489C27.9406 35.489 32.4473 30.9823 32.4473 25.4428C32.4473 19.9025 27.9406 15.3952 22.4011 15.3952ZM22.4011 32.711C18.3933 32.711 15.1328 29.4504 15.1328 25.4427C15.1328 21.4342 18.3933 18.173 22.4011 18.173C26.4089 18.173 29.6695 21.4341 29.6695 25.4427C29.6695 29.4504 26.4089 32.711 22.4011 32.711Z" fill="#FF1900"/>
<path d="M25.5611 24.0539C24.794 24.0539 24.1722 24.6759 24.1722 25.4428C24.1722 26.4192 23.3777 27.2137 22.4013 27.2137C21.425 27.2137 20.6305 26.4192 20.6305 25.4428C20.6305 24.4655 21.425 23.6705 22.4013 23.6705C23.1684 23.6705 23.7902 23.0485 23.7902 22.2816C23.7902 21.5147 23.1684 20.8927 22.4013 20.8927C19.8931 20.8927 17.8525 22.9339 17.8525 25.4428C17.8525 27.9511 19.893 29.9916 22.4013 29.9916C24.9097 29.9916 26.9501 27.9512 26.9501 25.4428C26.95 24.6758 26.3281 24.0539 25.5611 24.0539Z" fill="#FF1900"/>
</svg>
