<svg width="56" height="56" viewBox="0 0 56 56" fill="none" xmlns="http://www.w3.org/2000/svg">
<mask id="path-1-outside-1_507_106" maskUnits="userSpaceOnUse" x="15.0273" y="15.0752" width="26" height="25" fill="black">
<rect fill="white" x="15.0273" y="15.0752" width="26" height="25"/>
<path d="M27.9081 21.2786L26.6954 22.4661C27.0147 22.7921 27.4517 22.9759 27.9081 22.9759C28.3646 22.9759 28.8015 22.7921 29.1209 22.4661L27.9081 21.2786ZM26.6295 33.9477C25.173 32.8744 23.3085 31.3505 21.8246 29.6559C20.2881 27.901 19.4218 26.2578 19.4218 24.9189H16.0273C16.0273 27.5461 17.6089 29.994 19.2707 31.892C20.9853 33.8502 23.0696 35.5409 24.6157 36.6803L26.6295 33.9477ZM19.4218 24.9189C19.4218 22.4121 20.541 21.0921 21.6924 20.6616C22.8628 20.224 24.7288 20.4575 26.6954 22.4661L29.1209 20.0912C26.5051 17.4197 23.2793 16.4442 20.5035 17.4821C17.7087 18.5271 16.0273 21.3673 16.0273 24.9189H19.4218ZM31.2006 36.6803C32.7466 35.5409 34.8309 33.8502 36.5455 31.892C38.2073 29.994 39.7889 27.5464 39.7889 24.9189H36.3944C36.3944 26.2578 35.5281 27.9012 33.9915 29.6559C32.5077 31.3505 30.6432 32.8744 29.1867 33.9477L31.2006 36.6803ZM39.7889 24.9189C39.7889 21.3673 38.1075 18.5271 35.3127 17.4821C32.5369 16.4442 29.3112 17.4197 26.6954 20.0912L29.1209 22.4661C31.0874 20.4575 32.9535 20.224 34.1239 20.6616C35.2753 21.0921 36.3944 22.4121 36.3944 24.9189H39.7889ZM24.6157 36.6803C25.5021 37.3336 26.4942 38.1474 27.9081 38.1474V34.7529C27.8746 34.7529 27.8362 34.7581 27.6796 34.6735C27.4573 34.5531 27.1794 34.353 26.6295 33.9477L24.6157 36.6803ZM29.1867 33.9477C28.6368 34.353 28.3589 34.5531 28.1367 34.6735C27.9801 34.7581 27.9416 34.7529 27.9081 34.7529V38.1474C29.322 38.1474 30.3141 37.3336 31.2006 36.6803L29.1867 33.9477Z"/>
</mask>
<path d="M27.9081 21.2786L26.6954 22.4661C27.0147 22.7921 27.4517 22.9759 27.9081 22.9759C28.3646 22.9759 28.8015 22.7921 29.1209 22.4661L27.9081 21.2786ZM26.6295 33.9477C25.173 32.8744 23.3085 31.3505 21.8246 29.6559C20.2881 27.901 19.4218 26.2578 19.4218 24.9189H16.0273C16.0273 27.5461 17.6089 29.994 19.2707 31.892C20.9853 33.8502 23.0696 35.5409 24.6157 36.6803L26.6295 33.9477ZM19.4218 24.9189C19.4218 22.4121 20.541 21.0921 21.6924 20.6616C22.8628 20.224 24.7288 20.4575 26.6954 22.4661L29.1209 20.0912C26.5051 17.4197 23.2793 16.4442 20.5035 17.4821C17.7087 18.5271 16.0273 21.3673 16.0273 24.9189H19.4218ZM31.2006 36.6803C32.7466 35.5409 34.8309 33.8502 36.5455 31.892C38.2073 29.994 39.7889 27.5464 39.7889 24.9189H36.3944C36.3944 26.2578 35.5281 27.9012 33.9915 29.6559C32.5077 31.3505 30.6432 32.8744 29.1867 33.9477L31.2006 36.6803ZM39.7889 24.9189C39.7889 21.3673 38.1075 18.5271 35.3127 17.4821C32.5369 16.4442 29.3112 17.4197 26.6954 20.0912L29.1209 22.4661C31.0874 20.4575 32.9535 20.224 34.1239 20.6616C35.2753 21.0921 36.3944 22.4121 36.3944 24.9189H39.7889ZM24.6157 36.6803C25.5021 37.3336 26.4942 38.1474 27.9081 38.1474V34.7529C27.8746 34.7529 27.8362 34.7581 27.6796 34.6735C27.4573 34.5531 27.1794 34.353 26.6295 33.9477L24.6157 36.6803ZM29.1867 33.9477C28.6368 34.353 28.3589 34.5531 28.1367 34.6735C27.9801 34.7581 27.9416 34.7529 27.9081 34.7529V38.1474C29.322 38.1474 30.3141 37.3336 31.2006 36.6803L29.1867 33.9477Z" fill="#FFE500"/>
<path d="M26.6295 33.9477L27.032 34.2444L26.227 33.6511L26.6295 33.9477ZM29.1867 33.9477L29.5892 33.6511L28.7842 34.2444L29.1867 33.9477ZM26.0252 35.6105L27.032 34.2444L26.227 33.6511L25.2202 35.0173L26.0252 35.6105ZM30.596 35.0173L29.5892 33.6511L28.7842 34.2444L29.791 35.6105L30.596 35.0173ZM28.4081 36.4502V34.7529H27.4081V36.4502H28.4081ZM19.4218 24.4189H16.0273V25.4189H19.4218V24.4189ZM25.0182 36.9769L27.032 34.2444L26.227 33.6511L24.2132 36.3837L25.0182 36.9769ZM39.7889 24.4189H36.3944V25.4189H39.7889V24.4189ZM28.7842 34.2444L30.7981 36.9769L31.6031 36.3837L29.5892 33.6511L28.7842 34.2444ZM28.4081 38.1474V34.7529H27.4081V38.1474H28.4081ZM26.6295 33.9477L27.2228 33.1427L27.2228 33.1427L26.6295 33.9477ZM27.9081 21.2786L28.6077 20.5641L27.9081 19.8791L27.2085 20.5641L27.9081 21.2786ZM26.6954 22.4661L25.9808 23.1657L25.9809 23.1657L26.6954 22.4661ZM29.1209 22.4661L29.8353 23.1657L29.8354 23.1657L29.1209 22.4661ZM29.1867 33.9477L28.5935 33.1427L28.5934 33.1427L29.1867 33.9477ZM21.8246 29.6559L21.0722 30.3147L21.0723 30.3147L21.8246 29.6559ZM19.2707 31.892L20.0231 31.2333L20.0231 31.2332L19.2707 31.892ZM24.6157 36.6803L25.209 35.8753L25.2089 35.8753L24.6157 36.6803ZM21.6924 20.6616L21.3422 19.7249L21.3421 19.7249L21.6924 20.6616ZM29.1209 20.0912L29.8205 20.8058L30.535 20.1062L29.8354 19.3916L29.1209 20.0912ZM20.5035 17.4821L20.1533 16.5454L20.1533 16.5454L20.5035 17.4821ZM31.2006 36.6803L30.6073 35.8753L30.6073 35.8753L31.2006 36.6803ZM36.5455 31.892L37.2979 32.5508L37.2979 32.5507L36.5455 31.892ZM33.9915 29.6559L33.2392 28.9971L33.2392 28.9971L33.9915 29.6559ZM35.3127 17.4821L34.9624 18.4187L34.9624 18.4187L35.3127 17.4821ZM26.6954 20.0912L25.9808 19.3916L25.2812 20.1062L25.9958 20.8058L26.6954 20.0912ZM34.1239 20.6616L34.4741 19.7249L34.4741 19.7249L34.1239 20.6616ZM27.6796 34.6735L27.2032 35.5527L27.2041 35.5532L27.6796 34.6735ZM28.1367 34.6735L28.6121 35.5532L28.613 35.5527L28.1367 34.6735ZM27.2085 20.5641L25.9958 21.7515L27.395 23.1806L28.6077 21.9932L27.2085 20.5641ZM25.9809 23.1657C26.4883 23.6838 27.1827 23.9759 27.9081 23.9759V21.9759C27.7206 21.9759 27.5411 21.9004 27.4099 21.7664L25.9809 23.1657ZM27.9081 23.9759C28.6335 23.9759 29.328 23.6838 29.8353 23.1657L28.4064 21.7664C28.2751 21.9004 28.0956 21.9759 27.9081 21.9759V23.9759ZM29.8205 21.7515L28.6077 20.5641L27.2085 21.9932L28.4212 23.1806L29.8205 21.7515ZM27.2228 33.1427C25.7927 32.0888 23.9928 30.6141 22.5769 28.9971L21.0723 30.3147C22.6241 32.0869 24.5534 33.6599 26.0363 34.7527L27.2228 33.1427ZM22.577 28.9972C21.0773 27.2842 20.4218 25.8781 20.4218 24.9189H18.4218C18.4218 26.6375 19.499 28.5177 21.0722 30.3147L22.577 28.9972ZM15.0273 24.9189C15.0273 27.9257 16.8195 30.6105 18.5184 32.5508L20.0231 31.2332C18.3982 29.3776 17.0273 27.1666 17.0273 24.9189H15.0273ZM18.5184 32.5508C20.3009 34.5865 22.4499 36.3264 24.0224 37.4853L25.2089 35.8753C23.6894 34.7554 21.6697 33.1138 20.0231 31.2333L18.5184 32.5508ZM20.4218 24.9189C20.4218 22.7271 21.3697 21.8499 22.0426 21.5982L21.3421 19.7249C19.7123 20.3344 18.4218 22.0971 18.4218 24.9189H20.4218ZM22.0426 21.5982C22.7447 21.3357 24.2098 21.3568 25.9808 23.1657L27.4099 21.7665C25.2478 19.5582 22.9809 19.1122 21.3422 19.7249L22.0426 21.5982ZM27.395 23.1806L29.8205 20.8058L28.4213 19.3767L25.9958 21.7515L27.395 23.1806ZM29.8354 19.3916C27.0308 16.5273 23.4046 15.3297 20.1533 16.5454L20.8537 18.4187C23.1539 17.5587 25.9793 18.3121 28.4063 20.7908L29.8354 19.3916ZM20.1533 16.5454C16.8713 17.7726 15.0273 21.0634 15.0273 24.9189H17.0273C17.0273 21.6712 18.5462 19.2816 20.8537 18.4187L20.1533 16.5454ZM31.7938 37.4853C33.3664 36.3264 35.5153 34.5865 37.2979 32.5508L35.7932 31.2332C34.1465 33.1138 32.1269 34.7554 30.6073 35.8753L31.7938 37.4853ZM37.2979 32.5507C38.9966 30.6105 40.7889 27.9259 40.7889 24.9189H38.7889C38.7889 27.1668 37.4179 29.3775 35.7932 31.2333L37.2979 32.5507ZM35.3944 24.9189C35.3944 25.8781 34.7389 27.2845 33.2392 28.9971L34.7438 30.3147C36.3173 28.5179 37.3944 26.6375 37.3944 24.9189H35.3944ZM33.2392 28.9971C31.8233 30.6141 30.0235 32.0889 28.5935 33.1427L29.78 34.7527C31.2629 33.6599 33.192 32.0869 34.7438 30.3147L33.2392 28.9971ZM40.7889 24.9189C40.7889 21.0634 38.9449 17.7726 35.6629 16.5454L34.9624 18.4187C37.2701 19.2816 38.7889 21.6711 38.7889 24.9189H40.7889ZM35.6629 16.5454C32.4115 15.3297 28.7854 16.5273 25.9808 19.3916L27.4099 20.7908C29.8369 18.3121 32.6622 17.5587 34.9624 18.4187L35.6629 16.5454ZM25.9958 20.8058L28.4213 23.1806L29.8205 21.7515L27.395 19.3767L25.9958 20.8058ZM29.8354 23.1657C31.6064 21.3569 33.0716 21.3357 33.7737 21.5982L34.4741 19.7249C32.8354 19.1122 30.5684 19.5582 28.4063 21.7665L29.8354 23.1657ZM33.7737 21.5982C34.4466 21.8498 35.3944 22.7271 35.3944 24.9189H37.3944C37.3944 22.0971 36.1041 20.3344 34.4741 19.7249L33.7737 21.5982ZM24.0224 37.4853C24.8372 38.0859 26.1037 39.1474 27.9081 39.1474V37.1474C26.8847 37.1474 26.1669 36.5814 25.209 35.8753L24.0224 37.4853ZM27.9081 33.7529C27.9039 33.7529 27.9004 33.7529 27.8981 33.7529C27.8962 33.7529 27.8937 33.753 27.8937 33.753C27.892 33.753 27.8954 33.7529 27.9001 33.753C27.9112 33.753 27.9317 33.7534 27.9576 33.7554C28.0139 33.7597 28.0648 33.7695 28.1078 33.7815C28.1466 33.7922 28.171 33.8026 28.1766 33.8051C28.1823 33.8076 28.1763 33.8052 28.155 33.7937L27.2041 35.5532C27.3108 35.6109 27.4348 35.6702 27.5722 35.7084C27.6486 35.7296 27.7252 35.7434 27.803 35.7494C27.8648 35.7542 27.9384 35.7529 27.9081 35.7529V33.7529ZM28.1559 33.7942C28.0092 33.7147 27.7961 33.5653 27.2228 33.1427L26.0362 34.7527C26.5628 35.1408 26.9054 35.3914 27.2032 35.5527L28.1559 33.7942ZM28.5934 33.1427C28.0201 33.5653 27.807 33.7147 27.6603 33.7942L28.613 35.5527C28.9108 35.3914 29.2535 35.1408 29.78 34.7527L28.5934 33.1427ZM27.6612 33.7937C27.6399 33.8052 27.6339 33.8076 27.6396 33.8051C27.6452 33.8026 27.6696 33.7922 27.7084 33.7815C27.7514 33.7695 27.8024 33.7597 27.8586 33.7554C27.8845 33.7534 27.905 33.753 27.9161 33.753C27.9208 33.7529 27.9242 33.753 27.9226 33.753C27.9225 33.753 27.92 33.7529 27.9181 33.7529C27.9158 33.7529 27.9123 33.7529 27.9081 33.7529V35.7529C27.8779 35.7529 27.9515 35.7542 28.0132 35.7494C28.091 35.7434 28.1677 35.7296 28.244 35.7084C28.3815 35.6702 28.5055 35.6109 28.6121 35.5532L27.6612 33.7937ZM27.9081 39.1474C29.7125 39.1474 30.979 38.0859 31.7939 37.4853L30.6073 35.8753C29.6493 36.5814 28.9316 37.1474 27.9081 37.1474V39.1474Z" fill="#FFE500" mask="url(#path-1-outside-1_507_106)"/>
<path d="M27.9043 52.7362C41.7803 52.7362 53.0293 41.4872 53.0293 27.6112C53.0293 13.735 41.7803 2.48621 27.9043 2.48621C14.0281 2.48621 2.7793 13.735 2.7793 27.6112C2.7793 31.6305 3.72304 35.4291 5.40099 38.7981C5.84691 39.6933 5.99532 40.7167 5.73681 41.6827L4.24034 47.2758C3.59071 49.7036 5.81191 51.9247 8.23984 51.2752L13.8328 49.7787C14.7989 49.5202 15.8222 49.6687 16.7175 50.1144C20.0863 51.7925 23.8851 52.7362 27.9043 52.7362Z" stroke="#FFE500" stroke-width="4.75"/>
</svg>
