<svg width="56" height="56" viewBox="0 0 56 56" fill="none" xmlns="http://www.w3.org/2000/svg">
<circle cx="27.9592" cy="28.2771" r="27.5276" fill="white"/>
<path d="M40.5332 28.3607C40.5332 26.0695 39.9744 23.9599 38.8567 22.0319C37.739 20.1039 36.2162 18.5671 34.2883 17.4215C32.3603 16.2759 30.2507 15.7031 27.9595 15.7031C25.6683 15.7031 23.5587 16.2759 21.6307 17.4215C19.7027 18.5671 18.1799 20.1039 17.0622 22.0319C15.9446 23.9599 15.3857 26.0695 15.3857 28.3607C15.3857 30.4284 15.8468 32.3563 16.7689 34.1446C17.6909 35.9329 18.9623 37.4138 20.5829 38.5873C22.2035 39.7609 24.0197 40.5153 26.0315 40.8506V32.049H22.7623V28.3607H26.0315V25.5945C26.0315 24.0297 26.4506 22.8143 27.2889 21.9481C28.1271 21.0819 29.2727 20.6488 30.7257 20.6488C31.2845 20.6488 31.9272 20.6767 32.6537 20.7326L33.5757 20.9003V24.0018H31.9831C31.2566 24.0018 30.7257 24.1834 30.3904 24.5466C30.0551 24.9099 29.8874 25.3989 29.8874 26.0136V28.3607H33.4081L32.8213 32.049H29.8874V40.8506C31.8992 40.5153 33.7154 39.7609 35.3361 38.5873C36.9567 37.4138 38.228 35.9329 39.1501 34.1446C40.0722 32.3563 40.5332 30.4284 40.5332 28.3607Z" fill="#EB0239"/>
</svg>
