<svg width="56" height="56" viewBox="0 0 56 56" fill="none" xmlns="http://www.w3.org/2000/svg">
<circle cx="28.342" cy="28.2771" r="27.5276" fill="white"/>
<path d="M28.3423 17.0059C26.2384 17.0059 24.673 17.0309 23.646 17.081C22.6191 17.1311 21.73 17.3064 20.9786 17.607C20.2272 17.9075 19.5634 18.3459 18.9874 18.9219C18.4113 19.498 17.973 20.1617 17.6724 20.9131C17.3718 21.6645 17.1965 22.5537 17.1464 23.5806C17.0963 24.6075 17.0713 26.1729 17.0713 28.2769C17.0713 30.3808 17.0963 31.9462 17.1464 32.9731C17.1965 34 17.3718 34.8892 17.6724 35.6406C17.973 36.392 18.4113 37.0557 18.9874 37.6318C19.5634 38.2079 20.2272 38.6462 20.9786 38.9467C21.73 39.2473 22.6191 39.4226 23.646 39.4727C24.673 39.5228 26.2384 39.5479 28.3423 39.5479C30.4462 39.5479 32.0116 39.5228 33.0385 39.4727C34.0654 39.4226 34.9546 39.2473 35.706 38.9467C36.4574 38.6462 37.1211 38.2079 37.6972 37.6318C38.2733 37.0557 38.7116 36.392 39.0122 35.6406C39.3127 34.8892 39.488 34 39.5381 32.9731C39.5882 31.9462 39.6133 30.3808 39.6133 28.2769C39.6133 26.1729 39.5882 24.6075 39.5381 23.5806C39.488 22.5537 39.3127 21.6645 39.0122 20.9131C38.7116 20.1617 38.2733 19.498 37.6972 18.9219C37.1211 18.3459 36.4574 17.9075 35.706 17.607C34.9546 17.3064 34.0654 17.1311 33.0385 17.081C32.0116 17.0309 30.4462 17.0059 28.3423 17.0059ZM27.3655 19.0346H28.3423C30.4462 19.0346 31.9741 19.0597 32.9258 19.1098C33.7273 19.1599 34.3911 19.2851 34.917 19.4855C35.443 19.6859 35.8939 19.9739 36.2696 20.3496C36.6453 20.7253 36.9333 21.1761 37.1337 21.7021C37.334 22.2281 37.4593 22.8918 37.5094 23.6933C37.5595 24.6451 37.5845 26.1729 37.5845 28.2769C37.5845 30.3808 37.5595 31.9086 37.5094 32.8604C37.4593 33.6619 37.334 34.3256 37.1337 34.8516C36.9333 35.3776 36.6453 35.8284 36.2696 36.2041C35.8939 36.5798 35.443 36.8679 34.917 37.0682C34.3911 37.2686 33.7273 37.3938 32.9258 37.4439C31.924 37.494 30.3961 37.5191 28.3423 37.5191C26.2885 37.5191 24.7606 37.494 23.7587 37.4439C22.9573 37.3938 22.2935 37.2686 21.7675 37.0682C21.2416 36.8679 20.7907 36.5798 20.415 36.2041C20.0393 35.8284 19.7513 35.3776 19.5509 34.8516C19.3505 34.3256 19.2253 33.6619 19.1752 32.8604C19.1251 31.8585 19.1001 30.3182 19.1001 28.2393C19.1001 26.1604 19.1251 24.6451 19.1752 23.6933C19.2253 22.8918 19.3505 22.2281 19.5509 21.7021C19.7513 21.1761 20.0393 20.7253 20.415 20.3496C20.7907 19.9739 21.2416 19.6859 21.7675 19.4855C22.2935 19.2851 22.9823 19.1599 23.8339 19.1098C24.6855 19.0597 25.8627 19.0346 27.3655 19.0346ZM34.3535 20.9131C34.0028 20.9131 33.6897 21.0384 33.4142 21.2888C33.1387 21.5393 33.001 21.8524 33.001 22.2281C33.001 22.6038 33.1387 22.9294 33.4142 23.2049C33.6897 23.4804 34.0154 23.6182 34.3911 23.6182C34.7668 23.6182 35.0798 23.4804 35.3303 23.2049C35.5808 22.9294 35.706 22.6038 35.706 22.2281C35.706 21.8524 35.5808 21.5393 35.3303 21.2888C35.0798 21.0384 34.7542 20.9131 34.3535 20.9131ZM28.3423 22.4911C27.2903 22.4911 26.3135 22.7415 25.4118 23.2425C24.5101 23.7434 23.7963 24.4447 23.2703 25.3464C22.7444 26.2481 22.4814 27.2249 22.4814 28.2769C22.4814 29.3288 22.7444 30.3056 23.2703 31.2073C23.7963 32.109 24.5101 32.8103 25.4118 33.3112C26.3135 33.8122 27.2903 34.0626 28.3423 34.0626C29.3942 34.0626 30.3585 33.7996 31.2352 33.2737C32.1118 32.7477 32.8006 32.0464 33.3015 31.1697C33.8025 30.2931 34.0529 29.3288 34.0529 28.2769C34.0529 27.2249 33.8025 26.2606 33.3015 25.384C32.8006 24.5073 32.1118 23.806 31.2352 23.28C30.3585 22.7541 29.3942 22.4911 28.3423 22.4911ZM28.3423 24.5199C28.9935 24.5199 29.6197 24.6827 30.2208 25.0083C30.8219 25.3339 31.2853 25.7972 31.6109 26.3984C31.9365 26.9995 32.0993 27.6256 32.0993 28.2769C32.0993 28.9281 31.9365 29.5542 31.6109 30.1554C31.2853 30.7565 30.8219 31.2198 30.2208 31.5454C29.6197 31.8711 28.9935 32.0339 28.3423 32.0339C27.2903 32.0339 26.4012 31.6707 25.6748 30.9443C24.9485 30.218 24.5853 29.3288 24.5853 28.2769C24.5853 27.2249 24.9485 26.3357 25.6748 25.6094C26.4012 24.883 27.2903 24.5199 28.3423 24.5199Z" fill="#EB0239"/>
</svg>
