<svg width="13" height="13" viewBox="0 0 13 13" fill="none" xmlns="http://www.w3.org/2000/svg">
<path d="M6.35986 0.134766C9.81161 0.134766 12.6099 2.93298 12.6099 6.38477C12.6099 9.83652 9.81161 12.6348 6.35986 12.6348C2.90808 12.6348 0.109863 9.83652 0.109863 6.38477C0.109863 2.93298 2.90808 0.134766 6.35986 0.134766ZM6.35986 1.38477C3.59844 1.38477 1.35986 3.62334 1.35986 6.38477C1.35986 9.1462 3.59844 11.3848 6.35986 11.3848C9.1213 11.3848 11.3599 9.1462 11.3599 6.38477C11.3599 3.62334 9.1213 1.38477 6.35986 1.38477ZM6.35986 3.25977C7.2933 3.25977 8.13174 3.66981 8.70343 4.31754C8.93186 4.57633 8.90724 4.9713 8.64843 5.1997C8.38968 5.42814 7.99468 5.40352 7.7663 5.1447C7.4218 4.75442 6.9198 4.50977 6.35986 4.50977C5.3243 4.50977 4.48486 5.3492 4.48486 6.38477C4.48486 7.42033 5.3243 8.25977 6.35986 8.25977C6.9198 8.25977 7.4218 8.01514 7.7663 7.62483C7.99468 7.36602 8.38968 7.34139 8.64843 7.56983C8.90724 7.79827 8.93186 8.1932 8.70343 8.45202C8.13174 9.0997 7.2933 9.50977 6.35986 9.50977C4.63398 9.50977 3.23486 8.11064 3.23486 6.38477C3.23486 4.65888 4.63398 3.25977 6.35986 3.25977Z" fill="white"/>
</svg>
