<svg width="103" height="101" viewBox="0 0 103 101" fill="none" xmlns="http://www.w3.org/2000/svg">
<path d="M30.5196 12.7275L30.7893 13.1485L30.5196 12.7275ZM101.997 31.4311C102.084 31.1691 101.943 30.8859 101.681 30.7986L97.4119 29.3756C97.1499 29.2882 96.8667 29.4298 96.7794 29.6918C96.6921 29.9538 96.8337 30.2369 97.0956 30.3243L100.89 31.5892L99.6255 35.3839C99.5381 35.6459 99.6797 35.929 99.9417 36.0164C100.204 36.1037 100.487 35.9621 100.574 35.7001L101.997 31.4311ZM4.06842 96.9033C4.20525 96.6635 4.12173 96.3581 3.88187 96.2213C3.64201 96.0845 3.33664 96.168 3.19981 96.4078L4.06842 96.9033ZM7.90769 88.4029C7.7649 88.6392 7.84076 88.9466 8.07712 89.0894C8.31349 89.2321 8.62085 89.1563 8.76363 88.9199L7.90769 88.4029ZM13.6318 81.0302C13.7788 80.7965 13.7084 80.4878 13.4747 80.3408C13.2409 80.1938 12.9322 80.2642 12.7852 80.498L13.6318 81.0302ZM17.7792 72.6716C17.6293 72.9035 17.6958 73.213 17.9277 73.3629C18.1596 73.5128 18.4691 73.4464 18.619 73.2145L17.7792 72.6716ZM23.6884 65.4503C23.8402 65.2197 23.7764 64.9096 23.5458 64.7577C23.3151 64.6058 23.0051 64.6697 22.8532 64.9003L23.6884 65.4503ZM27.9759 57.1654C27.823 57.3953 27.8854 57.7056 28.1153 57.8586C28.3452 58.0115 28.6556 57.9491 28.8085 57.7192L27.9759 57.1654ZM33.9562 49.9939C34.1094 49.7641 34.0472 49.4537 33.8175 49.3005C33.5877 49.1474 33.2773 49.2095 33.1241 49.4393L33.9562 49.9939ZM38.2527 41.7223C38.1003 41.9526 38.1635 42.2628 38.3939 42.4152C38.6242 42.5675 38.9344 42.5043 39.0867 42.274L38.2527 41.7223ZM44.1799 34.5045C44.3301 34.2728 44.264 33.9632 44.0322 33.813C43.8005 33.6629 43.4909 33.729 43.3407 33.9608L44.1799 34.5045ZM48.3197 26.1304C48.1741 26.3649 48.2462 26.6732 48.4807 26.8189C48.7153 26.9645 49.0236 26.8925 49.1693 26.6579L48.3197 26.1304ZM53.9391 18.6735C54.0754 18.4333 53.9913 18.1281 53.7511 17.9918C53.511 17.8555 53.2058 17.9396 53.0695 18.1797L53.9391 18.6735ZM57.2734 10.0134C57.162 10.2661 57.2765 10.5612 57.5292 10.6726C57.7818 10.784 58.077 10.6695 58.1884 10.4169L57.2734 10.0134ZM59.8305 1.08597C59.6992 0.843035 59.3959 0.752515 59.1529 0.883793C58.91 1.01507 58.8195 1.31844 58.9507 1.56138L59.8305 1.08597ZM51.0212 1.92814C51.2781 1.8267 51.404 1.53626 51.3026 1.27943C51.2012 1.02259 50.9107 0.896608 50.6539 0.998049L51.0212 1.92814ZM42.2483 5.08379C42.0064 5.21707 41.9184 5.52118 42.0517 5.76303C42.185 6.00487 42.4891 6.09287 42.7309 5.95958L42.2483 5.08379ZM34.8029 10.6207C35.0378 10.4755 35.1105 10.1674 34.9653 9.9325C34.8201 9.69761 34.512 9.6249 34.2771 9.77008L34.8029 10.6207ZM26.7703 14.8687C26.5611 15.0488 26.5374 15.3645 26.7176 15.5738C26.8977 15.7831 27.2134 15.8067 27.4227 15.6266L26.7703 14.8687ZM23.0094 22.1894C23.0614 21.9182 22.8837 21.6562 22.6125 21.6042C22.3413 21.5522 22.0793 21.7299 22.0273 22.0011L23.0094 22.1894ZM24.8665 30.0594C25.0568 30.2594 25.3733 30.2673 25.5733 30.0769C25.7734 29.8865 25.7812 29.57 25.5908 29.37L24.8665 30.0594ZM32.323 34.0097C32.0747 33.889 31.7755 33.9925 31.6548 34.2408C31.5341 34.4892 31.6375 34.7884 31.8859 34.9091L32.323 34.0097ZM39.8496 37.8802C40.1153 37.9555 40.3917 37.8012 40.467 37.5356C40.5423 37.2699 40.388 36.9935 40.1224 36.9181L39.8496 37.8802ZM48.2914 38.6876C48.0186 38.6447 47.7627 38.8311 47.7199 39.1039C47.677 39.3767 47.8634 39.6326 48.1362 39.6755L48.2914 38.6876ZM56.5597 40.5666C56.8354 40.5824 57.0716 40.3717 57.0874 40.096C57.1032 39.8203 56.8925 39.584 56.6168 39.5682L56.5597 40.5666ZM64.9819 39.6677C64.7059 39.6767 64.4894 39.9077 64.4984 40.1837C64.5075 40.4597 64.7385 40.6762 65.0145 40.6671L64.9819 39.6677ZM73.4482 40.0199C73.7224 39.9867 73.9177 39.7375 73.8844 39.4634C73.8512 39.1893 73.602 38.994 73.3279 39.0272L73.4482 40.0199ZM81.5838 37.6492C81.3138 37.7069 81.1417 37.9727 81.1995 38.2427C81.2573 38.5127 81.523 38.6848 81.7931 38.627L81.5838 37.6492ZM89.9754 36.4678C90.2387 36.3845 90.3847 36.1036 90.3014 35.8403C90.2182 35.577 89.9372 35.4311 89.6739 35.5143L89.9754 36.4678ZM97.5095 32.5921C97.2561 32.702 97.1397 32.9964 97.2496 33.2498C97.3594 33.5031 97.6538 33.6195 97.9072 33.5096L97.5095 32.5921ZM1.81521 100.926C2.54399 99.5992 3.29592 98.2575 4.06842 96.9033L3.19981 96.4078C2.42485 97.7664 1.67027 99.1128 0.938695 100.445L1.81521 100.926ZM8.76363 88.9199C10.3379 86.3139 11.9663 83.6793 13.6318 81.0302L12.7852 80.498C11.1171 83.1513 9.48551 85.791 7.90769 88.4029L8.76363 88.9199ZM18.619 73.2145C20.2948 70.6223 21.9898 68.0299 23.6884 65.4503L22.8532 64.9003C21.1534 67.4817 19.4568 70.0766 17.7792 72.6716L18.619 73.2145ZM28.8085 57.7192C30.543 55.1118 32.2643 52.5323 33.9562 49.9939L33.1241 49.4393C31.4326 51.9771 29.7107 54.5574 27.9759 57.1654L28.8085 57.7192ZM39.0867 42.274C40.8483 39.611 42.5534 37.0149 44.1799 34.5045L43.3407 33.9608C41.7165 36.4677 40.0131 39.0609 38.2527 41.7223L39.0867 42.274ZM49.1693 26.6579C50.9274 23.8264 52.5313 21.1532 53.9391 18.6735L53.0695 18.1797C51.6699 20.6449 50.0732 23.3064 48.3197 26.1304L49.1693 26.6579ZM58.1884 10.4169C59.1183 8.30798 59.769 6.45308 60.073 4.90495C60.3738 3.37346 60.3535 2.0539 59.8305 1.08597L58.9507 1.56138C59.3058 2.21837 59.3788 3.251 59.0918 4.71222C58.808 6.15682 58.1898 7.93518 57.2734 10.0134L58.1884 10.4169ZM50.6539 0.998049C48.3426 1.91086 45.556 3.26081 42.2483 5.08379L42.7309 5.95958C46.017 4.14853 48.7632 2.81992 51.0212 1.92814L50.6539 0.998049ZM34.2771 9.77008C32.9909 10.5651 31.649 11.4102 30.2499 12.3065L30.7893 13.1485C32.1842 12.2549 33.5216 11.4127 34.8029 10.6207L34.2771 9.77008ZM30.2499 12.3065C28.9247 13.1554 27.7673 14.0105 26.7703 14.8687L27.4227 15.6266C28.379 14.8034 29.4977 13.9759 30.7893 13.1485L30.2499 12.3065ZM22.0273 22.0011C21.4696 24.9098 22.5749 27.6518 24.8665 30.0594L25.5908 29.37C23.4512 27.1221 22.5294 24.6925 23.0094 22.1894L22.0273 22.0011ZM31.8859 34.9091C34.2223 36.0447 36.9017 37.0445 39.8496 37.8802L40.1224 36.9181C37.2212 36.0957 34.5983 35.1156 32.323 34.0097L31.8859 34.9091ZM48.1362 39.6755C50.8226 40.0975 53.6426 40.3995 56.5597 40.5666L56.6168 39.5682C53.7315 39.403 50.9443 39.1043 48.2914 38.6876L48.1362 39.6755ZM65.0145 40.6671C67.7829 40.5767 70.6031 40.3647 73.4482 40.0199L73.3279 39.0272C70.5125 39.3684 67.7216 39.5782 64.9819 39.6677L65.0145 40.6671ZM81.7931 38.627C84.5291 38.0415 87.2643 37.325 89.9754 36.4678L89.6739 35.5143C86.9944 36.3616 84.29 37.07 81.5838 37.6492L81.7931 38.627ZM97.9072 33.5096C99.1991 32.9496 100.48 32.3535 101.746 31.7202L101.299 30.8257C100.049 31.4507 98.7851 32.0392 97.5095 32.5921L97.9072 33.5096Z" fill="#ACACAC"/>
</svg>
