<svg width="56" height="56" viewBox="0 0 56 56" fill="none" xmlns="http://www.w3.org/2000/svg">
<circle cx="27.7249" cy="28.2771" r="27.5276" fill="white"/>
<path d="M16.7295 18.8215C16.7295 18.4306 16.8883 18.0763 17.2059 17.7587C17.5236 17.441 17.9023 17.2822 18.3421 17.2822H37.1071C37.5469 17.2822 37.9256 17.441 38.2433 17.7587C38.5609 18.0763 38.7197 18.4306 38.7197 18.8215V37.7331C38.7197 38.1241 38.5609 38.4784 38.2433 38.796C37.9256 39.1136 37.5469 39.2725 37.1071 39.2725H18.3421C17.9023 39.2725 17.5236 39.1136 17.2059 38.796C16.8883 38.4784 16.7295 38.1241 16.7295 37.7331V18.8215ZM23.5465 35.6807V25.7851H20.2479V35.6807H23.5465ZM21.8605 24.3924C22.447 24.3924 22.9112 24.2336 23.2533 23.9159C23.5953 23.5983 23.7542 23.1952 23.7297 22.7065C23.7053 22.2178 23.5342 21.8024 23.2166 21.4604C22.899 21.1183 22.4592 20.9473 21.8972 20.9473C21.3352 20.9473 20.8832 21.1183 20.5411 21.4604C20.1991 21.8024 20.028 22.2178 20.028 22.7065C20.028 23.1952 20.1991 23.5983 20.5411 23.9159C20.8832 24.2336 21.323 24.3924 21.8605 24.3924ZM28.6042 35.6807V30.1099C28.6042 29.7678 28.6531 29.499 28.7508 29.3036C28.8486 29.0104 29.044 28.7416 29.3372 28.4972C29.6304 28.2529 29.9969 28.1307 30.4367 28.1307C31.0231 28.1307 31.4507 28.3262 31.7195 28.7171C31.9883 29.1081 32.1227 29.6701 32.1227 30.4031V35.6807H35.4212V29.9633C35.4212 28.4972 35.0669 27.3855 34.3583 26.6281C33.6498 25.8706 32.7335 25.4919 31.6096 25.4919C30.8277 25.4919 30.168 25.6874 29.6304 26.0783C29.2395 26.3227 28.8974 26.6892 28.6042 27.1778V25.7851H25.3057C25.3546 26.1761 25.3546 27.9353 25.3057 31.0628V35.6807H28.6042Z" fill="#EB0239"/>
</svg>
