<svg width="33" height="33" viewBox="0 0 33 33" fill="none" xmlns="http://www.w3.org/2000/svg">
<g filter="url(#filter0_d_524_238)">
<path d="M28.2361 5.88584L26.8244 4.47358C26.264 3.92163 25.3203 3.86776 24.6858 4.50228V3.04482C24.6858 1.69153 23.5957 0.554062 22.1951 0.554062H7.25052C5.87718 0.554062 4.75977 1.67148 4.75977 3.04482V22.9709C4.75977 23.7949 5.43015 24.4653 6.25422 24.4653H19.2061C20.0302 24.4653 20.7006 23.7949 20.7006 22.9709V15.5356C23.3189 12.9172 25.5723 10.6639 28.2361 8.00005C28.2361 8.00005 28.2361 8.00005 28.2366 8.00005C28.819 7.41678 28.819 6.46817 28.2361 5.88584ZM22.1951 1.55036C23.0409 1.55036 23.6896 2.23756 23.6896 3.04482V5.49859C23.1856 6.00259 23.6965 5.49136 20.7007 8.4888V3.04482C20.7007 2.22075 21.371 1.55036 22.1951 1.55036ZM16.201 18.3663C15.4791 18.5944 14.8929 18.7797 14.3161 18.9604L14.2976 18.9662C14.1306 18.7663 13.9459 18.5816 13.7459 18.4148L14.3476 16.507C15.1783 16.8648 15.8457 17.5342 16.201 18.3663ZM9.65584 6.84472C10.4289 5.83839 11.8682 5.77101 12.7304 6.64265C13.5926 5.77101 15.0319 5.83833 15.805 6.84472C16.4448 7.67756 16.3177 8.8763 15.5799 9.62222L13.5562 11.6681C13.1005 12.1287 12.3604 12.1287 11.9047 11.6681L9.88095 9.62222C9.14306 8.8763 9.01603 7.67762 9.65584 6.84472ZM7.74873 14.5023H11.2358C11.5111 14.5023 11.7339 14.7251 11.7339 15.0004C11.7339 15.2758 11.5111 15.4986 11.2358 15.4986H7.74873C7.47338 15.4986 7.25058 15.2758 7.25058 15.0004C7.25058 14.7251 7.47338 14.5023 7.74873 14.5023ZM7.74873 16.9931H11.2358C11.5111 16.9931 11.7339 17.2158 11.7339 17.4912C11.7339 17.7666 11.5111 17.9894 11.2358 17.9894H7.74873C7.47338 17.9894 7.25058 17.7666 7.25058 17.4912C7.25058 17.2158 7.47338 16.9931 7.74873 16.9931ZM17.7118 20.4801H12.7302H7.74873C7.47338 20.4801 7.25058 20.2573 7.25058 19.982C7.25058 19.7066 7.47338 19.4838 7.74873 19.4838H12.3649L12.2549 19.8326C12.1995 20.0097 12.2467 20.2028 12.3781 20.3342C12.4729 20.4291 12.6004 20.4802 12.7302 20.4802C12.7804 20.4802 12.8309 20.4724 12.8801 20.4573L14.6148 19.911C14.9481 19.8065 15.2363 19.7161 15.9714 19.4839H17.7118C17.9871 19.4839 18.2099 19.7067 18.2099 19.9821C18.2099 20.2574 17.9871 20.4801 17.7118 20.4801ZM17.0349 17.7921C16.8858 17.4824 16.6998 17.1941 16.487 16.9281L22.6242 10.7905C22.8187 10.5959 22.8187 10.2807 22.6242 10.0861C22.4296 9.89147 22.1143 9.89147 21.9197 10.0861L15.7834 16.2228C15.5195 16.0106 15.2336 15.8246 14.9262 15.6753C15.4966 15.1044 14.8036 15.7979 23.6545 6.94248L25.7697 9.05769C18.7762 16.0511 20.6256 14.2019 17.0349 17.7921Z" fill="#D15294"/>
</g>
<defs>
<filter id="filter0_d_524_238" x="0.759766" y="0.554062" width="31.9136" height="31.9113" filterUnits="userSpaceOnUse" color-interpolation-filters="sRGB">
<feFlood flood-opacity="0" result="BackgroundImageFix"/>
<feColorMatrix in="SourceAlpha" type="matrix" values="0 0 0 0 0 0 0 0 0 0 0 0 0 0 0 0 0 0 127 0" result="hardAlpha"/>
<feOffset dy="4"/>
<feGaussianBlur stdDeviation="2"/>
<feComposite in2="hardAlpha" operator="out"/>
<feColorMatrix type="matrix" values="0 0 0 0 0.819608 0 0 0 0 0.321569 0 0 0 0 0.360784 0 0 0 0.25 0"/>
<feBlend mode="normal" in2="BackgroundImageFix" result="effect1_dropShadow_524_238"/>
<feBlend mode="normal" in="SourceGraphic" in2="effect1_dropShadow_524_238" result="shape"/>
</filter>
</defs>
</svg>
