<svg width="49" height="49" viewBox="0 0 49 49" fill="none" xmlns="http://www.w3.org/2000/svg">
<path d="M41.3649 34.8513C42.4516 33.5061 43.0479 31.831 43.0557 30.1018C43.0557 28.0635 42.246 26.1087 40.8047 24.6674C39.3634 23.2261 37.4086 22.4164 35.3703 22.4164C33.332 22.4164 31.3772 23.2261 29.936 24.6674C28.4947 26.1087 27.685 28.0635 27.685 30.1018C27.6928 31.831 28.2891 33.5061 29.3757 34.8513C27.3616 35.8852 25.6456 37.4175 24.3913 39.3022C23.1369 37.4175 21.4209 35.8852 19.4068 34.8513C20.4934 33.5061 21.0897 31.831 21.0975 30.1018C21.0975 28.0635 20.2878 26.1087 18.8465 24.6674C17.4053 23.2261 15.4505 22.4164 13.4122 22.4164C11.3739 22.4164 9.41911 23.2261 7.97782 24.6674C6.53654 26.1087 5.72684 28.0635 5.72684 30.1018C5.73464 31.831 6.33095 33.5061 7.41761 34.8513C5.25818 35.9547 3.44517 37.6326 2.17826 39.7004C0.911354 41.7681 0.23971 44.1454 0.237305 46.5704C0.237305 47.1527 0.468649 47.7112 0.880443 48.123C1.29224 48.5348 1.85075 48.7662 2.43312 48.7662H46.3494C46.9318 48.7662 47.4903 48.5348 47.9021 48.123C48.3139 47.7112 48.5452 47.1527 48.5452 46.5704C48.5428 44.1454 47.8712 41.7681 46.6042 39.7004C45.3373 37.6326 43.5243 35.9547 41.3649 34.8513ZM13.4122 26.808C14.0636 26.808 14.7004 27.0012 15.2421 27.3631C15.7837 27.725 16.2059 28.2395 16.4552 28.8413C16.7045 29.4432 16.7697 30.1054 16.6426 30.7443C16.5155 31.3833 16.2018 31.9701 15.7412 32.4308C15.2806 32.8914 14.6937 33.2051 14.0548 33.3322C13.4158 33.4593 12.7536 33.3941 12.1517 33.1448C11.5499 32.8955 11.0355 32.4733 10.6736 31.9317C10.3116 31.39 10.1185 30.7532 10.1185 30.1018C10.1185 29.2282 10.4655 28.3904 11.0832 27.7727C11.7009 27.1551 12.5386 26.808 13.4122 26.808ZM4.9056 44.3745C5.39087 42.4872 6.49002 40.8148 8.03003 39.6207C9.57004 38.4265 11.4634 37.7784 13.4122 37.7784C15.3609 37.7784 17.2543 38.4265 18.7943 39.6207C20.3344 40.8148 21.4335 42.4872 21.9188 44.3745H4.9056ZM35.3703 26.808C36.0218 26.808 36.6586 27.0012 37.2002 27.3631C37.7419 27.725 38.164 28.2395 38.4133 28.8413C38.6626 29.4432 38.7278 30.1054 38.6008 30.7443C38.4737 31.3833 38.16 31.9701 37.6993 32.4308C37.2387 32.8914 36.6518 33.2051 36.0129 33.3322C35.374 33.4593 34.7117 33.3941 34.1099 33.1448C33.508 32.8955 32.9936 32.4733 32.6317 31.9317C32.2698 31.39 32.0766 30.7532 32.0766 30.1018C32.0766 29.2282 32.4236 28.3904 33.0413 27.7727C33.659 27.1551 34.4968 26.808 35.3703 26.808ZM26.8637 44.3745C27.349 42.4872 28.4482 40.8148 29.9882 39.6207C31.5282 38.4265 33.4216 37.7784 35.3703 37.7784C37.3191 37.7784 39.2125 38.4265 40.7525 39.6207C42.2925 40.8148 43.3916 42.4872 43.8769 44.3745H26.8637ZM28.7829 0.458271C27.2287 0.422235 25.6992 0.852012 24.3913 1.69232C23.0833 0.852012 21.5538 0.422235 19.9996 0.458271C18.8708 0.447776 17.7539 0.689554 16.7304 1.16595C15.707 1.64234 14.8029 2.34131 14.0841 3.21182C13.2697 4.30234 12.7109 5.56199 12.4491 6.8976C12.1872 8.23321 12.2289 9.61061 12.5712 10.9279C13.8184 16.9927 22.3953 21.6523 23.3702 22.1661C23.6854 22.3306 24.0357 22.4165 24.3913 22.4165C24.7468 22.4165 25.0971 22.3306 25.4123 22.1661C26.3872 21.6523 34.9641 16.9927 36.2113 10.9301C36.5536 9.61245 36.5954 8.23471 36.3335 6.89874C36.0716 5.56277 35.5128 4.30275 34.6984 3.21182C33.9797 2.34131 33.0755 1.64234 32.0521 1.16595C31.0286 0.689554 29.9117 0.447776 28.7829 0.458271ZM31.9119 10.043C31.3498 12.7548 27.36 15.9344 24.3913 17.6998C21.9078 16.2045 17.4766 13.003 16.8684 10.0408C16.663 9.36195 16.6117 8.64584 16.718 7.94463C16.8244 7.24342 17.0858 6.57475 17.4832 5.98733C17.7914 5.6222 18.1773 5.33057 18.6127 5.13378C19.0481 4.93698 19.5219 4.83999 19.9996 4.8499C20.458 4.80492 20.9205 4.86744 21.3505 5.03248C21.7804 5.19753 22.166 5.46056 22.4765 5.80069C22.6677 6.12413 22.9387 6.39309 23.2636 6.58186C23.5884 6.77063 23.9563 6.87288 24.332 6.87883C24.7113 6.87301 25.0838 6.77793 25.4196 6.6013C25.7553 6.42468 26.0447 6.17146 26.2643 5.86217C26.5699 5.50113 26.9592 5.2202 27.3981 5.04378C27.837 4.86737 28.3124 4.80081 28.7829 4.8499C29.2602 4.84032 29.7336 4.93747 30.1686 5.13425C30.6036 5.33104 30.9891 5.62249 31.2971 5.98733C31.6942 6.57533 31.9552 7.24445 32.0612 7.94601C32.1672 8.64758 32.1154 9.36395 31.9097 10.043H31.9119Z" fill="#FF9800"/>
</svg>
