<svg width="33" height="21" viewBox="0 0 33 21" fill="none" xmlns="http://www.w3.org/2000/svg">
<path d="M9.02712 12.2549C8.85775 12.0855 8.72131 11.8738 8.63192 11.6245C8.58238 11.4863 8.54295 11.3438 8.51524 11.1954C8.50564 11.1437 8.49741 11.0914 8.49068 11.0382C8.48179 10.9685 8.47553 10.8973 8.47196 10.8246C8.46287 10.6372 8.46782 10.4567 8.4872 10.2825C8.51783 10.0064 8.58454 9.74598 8.68838 9.4979C8.85304 9.09799 9.09769 8.73102 9.42702 8.40168C9.90691 7.9218 10.5326 7.52189 11.3042 7.21137C12.0758 6.90086 12.9274 6.67032 13.8542 6.52448C14.7905 6.37863 15.7408 6.30335 16.7147 6.29865C17.6886 6.30335 18.639 6.37863 19.5658 6.52448C20.488 6.67503 21.3348 6.90086 22.0923 7.20667C22.8545 7.51719 23.4802 7.91709 23.9695 8.40639C24.2894 8.72631 24.5388 9.08858 24.7081 9.48378C24.8822 9.88369 24.9669 10.3259 24.9528 10.8105C24.9481 11.408 24.7646 11.8832 24.4165 12.2314C24.2847 12.3631 24.1248 12.4666 23.9507 12.5278C23.7719 12.5936 23.579 12.6172 23.372 12.5795L20.742 12.1326C20.5397 12.0996 20.3703 12.0526 20.2245 11.9914C20.0834 11.935 19.961 11.8597 19.8716 11.7703C19.7587 11.6574 19.6787 11.5115 19.6364 11.3375C19.5893 11.1681 19.5658 10.9658 19.5658 10.74L19.5517 10.0107C19.5517 9.90721 19.5141 9.82253 19.4388 9.74725C19.4012 9.70961 19.3635 9.68138 19.3165 9.65316C19.2647 9.62963 19.2224 9.61552 19.1847 9.5967C18.9448 9.52613 18.5966 9.46967 18.145 9.43203C17.6886 9.3991 17.2134 9.37557 16.7194 9.37087C16.216 9.37557 15.7408 9.38969 15.2798 9.42733C14.8281 9.46496 14.4847 9.52613 14.24 9.6014C14.2071 9.61552 14.1647 9.62963 14.1177 9.64845C14.0659 9.67197 14.0236 9.70491 13.9813 9.74725C13.9013 9.82723 13.8683 9.91662 13.8683 10.0201L13.8636 10.7305C13.8636 10.9658 13.8401 11.1681 13.7884 11.3328C13.746 11.5068 13.6707 11.648 13.5531 11.7656C13.4637 11.855 13.3508 11.9303 13.205 11.9914C13.0591 12.0526 12.8897 12.0996 12.6921 12.1373L10.0292 12.5889C9.82223 12.6266 9.63874 12.6125 9.46937 12.5466C9.3047 12.476 9.15885 12.3866 9.02712 12.2549Z" fill="black"/>
<path fill-rule="evenodd" clip-rule="evenodd" d="M25.4511 10.8196C25.4445 11.5205 25.2248 12.1279 24.7687 12.584C24.5884 12.7643 24.3667 12.9094 24.119 12.9971C23.8654 13.0899 23.5845 13.1246 23.2852 13.0708L20.6594 12.6246C20.4288 12.5869 20.2221 12.5312 20.0347 12.4529C19.849 12.3782 19.6657 12.2704 19.5181 12.1229C19.3361 11.9409 19.2152 11.7139 19.1529 11.4631C19.0925 11.2426 19.0665 10.9978 19.0662 10.7447L19.0534 10.0838C19.0424 10.0794 19.0275 10.0733 19.0106 10.0659C18.8167 10.0129 18.5183 9.96381 18.1056 9.92931C17.6593 9.89714 17.1973 9.87436 16.7187 9.86966C16.223 9.87436 15.7628 9.88829 15.3203 9.92438C14.9025 9.95924 14.6041 10.0135 14.4063 10.072C14.3915 10.0779 14.3776 10.0831 14.3663 10.0873L14.362 10.732C14.3619 10.9893 14.3372 11.2405 14.2686 11.4664C14.2064 11.7119 14.0913 11.9322 13.9053 12.1182C13.7642 12.2593 13.5947 12.3686 13.3973 12.4514C13.2097 12.53 13.0045 12.5854 12.7849 12.6272L12.7799 12.6282L10.1147 13.0802C9.83194 13.1312 9.5544 13.1151 9.28788 13.0115L9.27997 13.0084L9.27212 13.005C9.06233 12.9151 8.85941 12.7933 8.67362 12.6075C8.45132 12.3852 8.27541 12.1102 8.16151 11.7926C8.10355 11.6308 8.05692 11.4627 8.02408 11.2867C8.01265 11.2256 8.00291 11.1636 7.99496 11.1008C7.98447 11.0182 7.97713 10.9343 7.97294 10.8489C7.96264 10.6371 7.96805 10.4297 7.99058 10.2272C8.0262 9.90598 8.1043 9.59951 8.22686 9.30636C8.41754 8.84374 8.69973 8.42238 9.07353 8.04858C9.60921 7.51289 10.2952 7.07902 11.1173 6.74818C11.9274 6.42214 12.8159 6.18238 13.776 6.03131L13.7768 6.03117C14.7382 5.88138 15.7135 5.80423 16.7117 5.79939L16.7165 5.79936C17.7146 5.8042 18.6901 5.88136 19.6428 6.0313L19.6456 6.03171C20.5974 6.18711 21.4809 6.42172 22.2785 6.74371L22.28 6.74431C23.0922 7.07523 23.7774 7.50894 24.3217 8.05329C24.6831 8.41469 24.9696 8.82877 25.1656 9.28567C25.3698 9.75516 25.4665 10.2687 25.4511 10.8196Z" fill="white"/>
</svg>
