<svg width="1498" height="968" viewBox="0 0 1498 968" fill="none" xmlns="http://www.w3.org/2000/svg">
<path d="M589.294 880.222C588.045 881.564 586.619 882.619 585.107 883.391C585.099 883.395 585.091 883.403 585.083 883.407C571.691 890.083 556.614 885.473 552.623 884.036L552.599 884.016C551.111 880.429 546.534 867.762 550.026 855.052C550.384 853.746 550.828 852.44 551.37 851.142C551.374 851.134 551.382 851.127 551.382 851.119C552.057 849.542 553.016 848.041 554.265 846.7C559.517 841.063 567.861 840.398 572.893 845.219C576.664 848.83 577.505 854.486 575.482 859.47L575.506 859.49C579.002 857.79 582.938 857.611 586.277 859.04C587.514 859.57 588.67 860.322 589.691 861.298C594.727 866.11 594.55 874.585 589.294 880.222Z" fill="#FFA9C0" fill-opacity="0.11"/>
<path d="M50.7228 678.463C50.9232 680.227 50.8486 681.982 50.5422 683.658C50.5422 683.67 50.5421 683.678 50.5382 683.686C47.7491 698.427 36.8361 708.503 33.8074 711.054L33.7839 711.062C30.7001 710.37 20.1603 707.364 13.8514 697.611C13.2032 696.608 12.5982 695.537 12.0522 694.387C12.0483 694.379 12.0483 694.371 12.0444 694.363C11.3884 692.954 10.9326 691.345 10.7323 689.582C9.89162 682.174 13.8671 674.873 19.6142 673.273C23.9197 672.074 27.9934 674.423 30.1187 678.786L30.1423 678.778C30.8965 674.952 32.8607 671.577 35.5398 669.566C36.5337 668.818 37.6257 668.261 38.7885 667.938C44.5436 666.342 49.8822 671.055 50.7228 678.463Z" fill="#FFA9C0" fill-opacity="0.11"/>
<path d="M80.4477 381.635C78.5503 382.925 76.5507 383.861 74.5433 384.462C74.5315 384.466 74.5237 384.474 74.5119 384.478C56.799 389.625 40.9481 381.763 36.8273 379.438L36.8076 379.41C36.3009 375.107 35.2952 360.032 43.6272 346.33C44.4836 344.925 45.4382 343.531 46.5027 342.162C46.5106 342.154 46.5185 342.146 46.5264 342.138C47.8384 340.482 49.453 338.961 51.3504 337.672C59.321 332.254 69.1733 332.982 73.3531 339.3C76.484 344.033 75.5412 350.553 71.5264 355.808L71.546 355.832C76.1578 354.538 80.7619 355.032 84.1324 357.233C85.3856 358.049 86.4619 359.1 87.3104 360.378C91.4902 366.703 88.4183 376.218 80.4477 381.635Z" fill="#FFA9C0" fill-opacity="0.11"/>
<path d="M1005.7 797.458C1003.8 798.747 1001.8 799.683 999.797 800.284C999.786 800.288 999.778 800.292 999.766 800.296C982.053 805.443 966.206 797.581 962.081 795.256L962.062 795.232C961.555 790.929 960.549 775.854 968.881 762.156C969.738 760.751 970.692 759.353 971.757 757.988C971.765 757.98 971.772 757.972 971.78 757.964C973.092 756.308 974.707 754.787 976.604 753.498C984.575 748.08 994.427 748.808 998.607 755.126C1001.74 759.859 1000.8 766.379 996.78 771.634L996.8 771.662C1001.41 770.368 1006.02 770.862 1009.39 773.063C1010.64 773.879 1011.72 774.93 1012.56 776.208C1016.74 782.522 1013.67 792.036 1005.7 797.458Z" fill="#FFA9C0" fill-opacity="0.11"/>
<path d="M65.9789 515.896C67.2164 517.182 68.1945 518.611 68.9055 520.103C68.9095 520.111 68.9173 520.119 68.9212 520.127C75.7566 534.828 70.0134 550.672 68.1317 555.071L68.1081 555.091C63.834 555.529 49.6253 556.177 38.1349 547.83C37.0546 547.046 36.0095 546.186 35.0078 545.242C35 545.238 34.996 545.226 34.9882 545.222C33.7979 544.084 32.753 542.706 31.9202 541.118C28.6165 534.836 29.8027 527.46 34.2928 524.132C37.6594 521.64 42.2045 521.859 45.9954 524.431L46.0151 524.415C45.084 521.146 45.469 517.886 47.0482 515.418C47.6296 514.51 48.3721 513.702 49.2834 513.026C53.7814 509.706 61.0724 510.8 65.9789 515.896Z" fill="#FFA9C0" fill-opacity="0.11"/>
<path d="M173.582 496.274C172.718 497.899 171.535 499.256 170.141 500.327C170.133 500.335 170.129 500.339 170.121 500.347C157.719 509.674 138.82 507.453 133.733 506.636L133.697 506.621C130.558 503.113 120.243 490.614 119.017 476.665C118.891 475.232 118.86 473.783 118.946 472.326C118.946 472.318 118.95 472.31 118.95 472.298C119.072 470.527 119.543 468.787 120.412 467.159C124.053 460.332 133.198 458.19 140.835 462.374C146.559 465.507 149.807 471.303 149.552 476.88L149.583 476.896C152.84 474.508 157.212 473.636 161.561 474.559C163.176 474.898 164.782 475.487 166.334 476.335C173.979 480.518 177.223 489.447 173.582 496.274Z" fill="#FFA9C0" fill-opacity="0.11"/>
<path d="M181.159 168.392C180.872 170.689 180.2 172.827 179.234 174.742C179.23 174.753 179.226 174.765 179.222 174.777C170.537 191.58 151.901 198.224 146.813 199.765L146.778 199.761C142.649 197.245 128.762 187.854 123.015 172.361C122.426 170.769 121.919 169.113 121.519 167.393C121.515 167.381 121.519 167.369 121.515 167.357C121.047 165.255 120.922 163.018 121.208 160.721C122.41 151.072 130.373 144.145 138.988 145.248C145.442 146.076 150.427 151.175 152.018 157.736L152.054 157.74C154.352 153.397 158.209 150.26 162.637 149.205C164.279 148.811 165.995 148.707 167.743 148.93C176.35 150.025 182.361 158.743 181.159 168.392Z" fill="#FFA9C0" fill-opacity="0.11"/>
<path d="M409.848 590.261C410.786 592.371 411.38 594.58 411.659 596.781C411.659 596.793 411.666 596.805 411.666 596.817C413.976 616.252 404.364 633.154 401.606 637.541L401.578 637.561C397.473 637.943 383.209 638.449 371.55 628.871C370.352 627.887 369.181 626.797 368.054 625.587C368.046 625.579 368.042 625.567 368.034 625.559C366.667 624.07 365.473 622.259 364.534 620.149C360.586 611.284 362.668 600.615 369.177 596.32C374.056 593.103 380.035 594.377 384.384 598.947L384.411 598.927C383.85 593.872 384.969 588.888 387.511 585.313C388.454 583.987 389.589 582.853 390.909 581.985C397.422 577.69 405.9 581.392 409.848 590.261Z" fill="#FFA9C0" fill-opacity="0.11"/>
<path d="M259.403 440.718C259.985 442.239 260.358 443.652 260.531 444.926C260.531 444.934 260.535 444.942 260.535 444.95C262.279 458.68 252.709 466.331 249.107 468.723H249.072C244.354 465.312 227.301 451.861 218.988 432.996C218.234 431.284 217.586 429.576 217.067 427.888C217.063 427.876 217.063 427.868 217.063 427.856C216.47 425.862 216.258 423.935 216.474 422.184C217.287 415.667 223.632 414.19 230.133 417.542C234.6 419.847 238.63 424.11 240.908 428.601L240.932 428.613C241.462 426.388 243.073 425.4 245.281 425.77C246.062 425.902 246.927 426.204 247.862 426.682C252.242 428.939 257.152 434.855 259.403 440.718Z" fill="#FFA9C0" fill-opacity="0.11"/>
<path d="M318.727 743.605C318.471 745.664 317.89 747.638 317.045 749.449C317.041 749.461 317.037 749.469 317.033 749.481C308.568 767.323 289.496 776.089 283.961 778.302H283.925C280.323 775.189 269.147 764.206 268.487 747.945C268.424 746.428 268.459 744.875 268.601 743.287C268.601 743.275 268.605 743.267 268.609 743.255C268.797 741.356 269.312 739.378 270.18 737.395C273.598 729.577 281.301 724.446 287.673 725.262C292.446 725.875 295.596 729.649 296.025 734.78L296.056 734.784C298.378 731.345 301.662 728.964 305.099 728.184C306.36 727.897 307.653 727.822 308.945 727.985C315.321 728.797 319.74 735.477 318.727 743.605Z" fill="#FFA9C0" fill-opacity="0.11"/>
<path d="M466.139 480.264C465.946 481.796 465.534 483.233 464.952 484.519C464.948 484.527 464.948 484.535 464.944 484.543C459.727 495.849 448.862 500.49 445.896 501.577H445.876C443.515 499.945 435.576 493.842 432.418 483.572C432.095 482.517 431.82 481.418 431.608 480.276C431.608 480.268 431.608 480.26 431.608 480.252C431.361 478.854 431.314 477.362 431.502 475.829C432.308 469.38 436.994 464.667 441.971 465.304C445.699 465.782 448.532 469.125 449.38 473.484H449.4C450.779 470.563 453.049 468.425 455.622 467.672C456.577 467.39 457.575 467.302 458.584 467.43C463.558 468.071 466.944 473.815 466.139 480.264Z" fill="#FFA9C0" fill-opacity="0.11"/>
<path d="M196.545 281.009C196.565 282.303 196.38 283.537 196.027 284.671C196.027 284.679 196.027 284.683 196.023 284.691C192.436 295.786 181.723 301.188 178.6 302.549H178.577C176.133 300.642 168.395 293.879 166.458 283.776C166.277 282.828 166.148 281.857 166.085 280.862C166.085 280.854 166.085 280.85 166.085 280.842C166.018 279.651 166.144 278.409 166.481 277.163C167.813 272.231 172.024 268.971 175.988 269.481C178.958 269.863 181.225 272.247 181.955 275.488H181.975C183.079 273.314 184.866 271.805 186.897 271.304C187.64 271.121 188.425 271.069 189.23 271.172C193.19 271.678 196.466 275.894 196.545 281.009Z" fill="#FFA9C0" fill-opacity="0.11"/>
<path d="M362.571 373.125C362.343 374.956 361.726 376.652 360.807 378.164C360.803 378.172 360.799 378.18 360.795 378.192C352.558 391.428 334.141 396.277 329.109 397.383L329.074 397.38C324.898 395.258 310.819 387.384 304.706 374.824C304.078 373.535 303.536 372.193 303.092 370.808C303.088 370.8 303.092 370.788 303.088 370.78C302.569 369.084 302.389 367.289 302.616 365.454C303.575 357.755 311.341 352.408 319.956 353.511C326.41 354.339 331.506 358.551 333.254 363.845L333.289 363.849C335.473 360.426 339.24 358.017 343.624 357.281C345.251 357.006 346.96 356.966 348.708 357.189C357.323 358.288 363.529 365.426 362.571 373.125Z" fill="#FFA9C0" fill-opacity="0.11"/>
<path d="M965.541 173.798C966.818 174.913 967.851 176.035 968.629 177.126C968.633 177.134 968.641 177.138 968.645 177.146C976.929 188.965 971.803 200.808 969.639 204.82L969.607 204.836C963.589 204.04 941.292 200.119 924.443 186.831C922.915 185.625 921.489 184.371 920.189 183.069C920.181 183.061 920.177 183.049 920.169 183.042C918.653 181.493 917.517 179.821 916.869 178.093C914.453 171.668 919.599 167.138 927.236 166.991C932.484 166.891 938.283 168.822 942.568 171.832L942.596 171.828C942.007 169.507 943.016 167.791 945.236 167.031C946.021 166.76 946.968 166.609 948.064 166.589C953.199 166.489 960.615 169.503 965.541 173.798Z" fill="#FFA9C0" fill-opacity="0.11"/>
<path d="M130.918 844.526C131.821 846.771 132.36 849.104 132.568 851.421C132.568 851.433 132.572 851.445 132.576 851.457C134.261 871.882 123.56 889.199 120.508 893.685L120.48 893.705C116.171 893.948 101.223 893.92 89.3873 883.443C88.1734 882.368 86.9871 881.182 85.8518 879.872C85.844 879.864 85.84 879.852 85.8322 879.844C84.4612 878.236 83.2787 876.293 82.3712 874.048C78.5764 864.617 81.1574 853.535 88.1342 849.291C93.3589 846.115 99.5696 847.683 103.95 852.631L103.977 852.611C103.58 847.297 104.94 842.13 107.733 838.483C108.766 837.13 109.999 835.991 111.414 835.132C118.39 830.888 127.123 835.096 130.918 844.526Z" fill="#FFA9C0" fill-opacity="0.11"/>
<path d="M807.833 760.727C807.103 762.514 806.018 764.051 804.679 765.321C804.671 765.329 804.667 765.337 804.659 765.345C792.725 776.407 772.804 776.14 767.419 775.846L767.383 775.834C763.746 772.522 751.678 760.623 748.928 746.225C748.645 744.744 748.461 743.239 748.394 741.714C748.394 741.703 748.398 741.695 748.398 741.687C748.335 739.828 748.645 737.965 749.376 736.177C752.444 728.673 761.746 725.449 770.145 728.976C776.438 731.619 780.437 737.304 780.755 743.14L780.791 743.152C783.929 740.309 788.392 738.928 793.02 739.418C794.736 739.597 796.477 740.035 798.178 740.751C806.58 744.274 810.902 753.219 807.833 760.727Z" fill="#FFA9C0" fill-opacity="0.11"/>
<path d="M903.734 25.4179C902.838 27.1257 901.797 28.6543 900.682 29.964C900.674 29.9719 900.67 29.9799 900.662 29.9879C890.763 41.4725 879.135 43.6858 876.047 44.0799L876.027 44.0719C874.755 41.5202 870.775 32.2291 872.92 19.5303C873.14 18.2246 873.427 16.8871 873.784 15.5097C873.784 15.5018 873.792 15.4938 873.792 15.4819C874.24 13.8059 874.908 12.0783 875.803 10.3705C879.567 3.19712 885.872 -0.867275 889.883 1.2943C892.888 2.91448 893.752 7.56803 892.416 12.8147L892.436 12.8227C895.025 9.86097 898.003 8.06165 900.595 7.93426C901.558 7.88649 902.465 8.06961 903.278 8.5075C907.293 10.673 907.497 18.2445 903.734 25.4179Z" fill="#FFA9C0" fill-opacity="0.11"/>
<path d="M883.689 935.563C883.991 937.47 884.074 939.325 883.968 941.057C883.968 941.069 883.968 941.077 883.968 941.089C882.923 956.299 874.972 965.18 872.748 967.386L872.729 967.39C870.195 966.136 861.486 961.168 855.629 949.731C855.028 948.557 854.454 947.314 853.924 945.997C853.92 945.989 853.92 945.977 853.916 945.969C853.275 944.361 852.78 942.573 852.474 940.663C851.197 932.641 853.802 925.543 858.284 924.811C861.643 924.262 865.108 927.442 867.17 932.442L867.19 932.438C867.488 928.497 868.788 925.237 870.78 923.549C871.519 922.92 872.348 922.514 873.259 922.363C877.741 921.634 882.412 927.542 883.689 935.563Z" fill="#FFA9C0" fill-opacity="0.11"/>
<path d="M331.461 217.778C329.591 219.784 327.454 221.452 325.179 222.762C325.164 222.77 325.156 222.778 325.144 222.79C305.035 234.191 282.27 231.11 276.24 230.015L276.205 229.995C273.926 225.58 266.906 209.86 272.044 192.48C272.571 190.697 273.231 188.893 274.032 187.082C274.036 187.07 274.048 187.058 274.052 187.05C275.054 184.849 276.484 182.691 278.353 180.681C286.214 172.25 298.773 169.734 306.406 175.064C312.121 179.057 313.445 186.322 310.448 193.256L310.483 193.276C315.736 190.354 321.663 189.347 326.711 190.565C328.581 191.015 330.329 191.775 331.877 192.854C339.506 198.184 339.321 209.343 331.461 217.778Z" fill="#FFA9C0" fill-opacity="0.11"/>
<path d="M848.791 484.758C846.921 486.764 844.784 488.432 842.509 489.742C842.498 489.75 842.486 489.758 842.474 489.766C822.365 501.167 799.6 498.086 793.57 496.991L793.535 496.971C791.256 492.556 784.236 476.836 789.375 459.46C789.905 457.677 790.561 455.873 791.362 454.062C791.366 454.05 791.378 454.038 791.382 454.026C792.384 451.825 793.814 449.667 795.684 447.657C803.544 439.226 816.103 436.71 823.736 442.04C829.452 446.033 830.775 453.298 827.778 460.232L827.813 460.252C833.065 457.33 838.994 456.323 844.041 457.541C845.911 457.991 847.659 458.751 849.207 459.83C856.84 465.165 856.655 476.323 848.791 484.758Z" fill="#FFA9C0" fill-opacity="0.11"/>
<path d="M275.394 131.896C274.899 133.775 274.274 135.403 273.555 136.753C273.551 136.761 273.547 136.769 273.543 136.781C265.687 151.251 251.156 151.788 246.021 151.526L245.99 151.502C243.818 144.854 236.739 119.731 241.838 95.6352C242.301 93.4497 242.863 91.3439 243.539 89.3455C243.543 89.3336 243.551 89.3216 243.554 89.3097C244.368 86.965 245.503 84.9547 246.929 83.4261C252.236 77.7295 259.374 80.8346 263.306 88.7006C266.009 94.1065 266.928 101.089 266.001 107.036L266.017 107.064C268.075 105.301 270.31 105.5 272.18 107.43C272.84 108.115 273.465 109.019 274.031 110.149C276.678 115.44 277.299 124.643 275.394 131.896Z" fill="#FFA9C0" fill-opacity="0.11"/>
<path d="M447.007 317.453C445.758 318.795 444.363 319.881 442.906 320.705C442.898 320.709 442.89 320.717 442.882 320.721C430.005 327.887 416.315 324.607 412.705 323.54L412.685 323.524C411.542 320.267 408.136 308.727 412.233 296.586C412.654 295.34 413.153 294.086 413.742 292.832C413.746 292.824 413.754 292.816 413.757 292.808C414.488 291.287 415.478 289.814 416.731 288.473C421.983 282.836 429.773 281.642 434.122 285.806C437.383 288.927 437.783 294.165 435.575 298.966L435.595 298.982C438.954 297.151 442.623 296.713 445.624 297.824C446.74 298.234 447.761 298.859 448.641 299.703C452.994 303.871 452.259 311.816 447.007 317.453Z" fill="#FFA9C0" fill-opacity="0.11"/>
<path d="M327.587 44.1197C326.711 45.3776 325.674 46.4365 324.543 47.2725C324.535 47.2765 324.531 47.2844 324.523 47.2884C313.363 55.4132 299.291 52.977 295.34 52.0574L295.32 52.0415C294.291 48.4588 291.537 36.4248 296.691 25.3144C297.174 24.2714 297.728 23.2444 298.356 22.2412C298.36 22.2333 298.368 22.2293 298.372 22.2213C299.134 21.0271 300.116 19.9204 301.307 18.9611C306.017 15.1634 312.334 15.0241 315.802 18.344C318.399 20.8281 318.921 24.7452 317.374 28.3836L317.389 28.3995C319.962 27.0938 322.732 26.9147 325.034 27.882C325.878 28.2363 326.668 28.7459 327.371 29.4186C330.836 32.7386 331.064 39.1357 327.587 44.1197Z" fill="#FFA9C0" fill-opacity="0.11"/>
<path d="M421.698 140.395C420.206 141.995 418.434 143.19 416.501 143.99C416.489 143.994 416.482 144.002 416.47 144.006C399.338 150.877 378.239 142.409 372.622 139.882L372.59 139.854C370.041 134.834 361.956 117.207 364.792 100.75C365.083 99.0586 365.492 97.3827 366.03 95.7307C366.034 95.7187 366.042 95.7108 366.046 95.6988C366.725 93.6965 367.798 91.8375 369.29 90.2332C375.56 83.5057 386.752 83.8918 394.282 91.101C399.924 96.503 401.907 104.194 399.912 110.539L399.947 110.567C404.429 108.831 409.729 109.194 414.462 111.614C416.218 112.51 417.892 113.692 419.42 115.153C426.951 122.366 427.972 133.664 421.698 140.395Z" fill="#FFA9C0" fill-opacity="0.11"/>
<path d="M544.671 32.3684C546.019 34.2354 546.981 36.2577 547.574 38.3237C547.578 38.3356 547.586 38.3436 547.586 38.3555C552.658 56.6115 543.615 74.4096 540.959 79.0711L540.931 79.095C536.225 80.138 519.765 82.9763 505.089 75.7113C503.581 74.9629 502.092 74.1111 500.634 73.1397C500.627 73.1318 500.619 73.1238 500.607 73.1159C498.843 71.9137 497.233 70.3731 495.885 68.5061C490.224 60.656 491.313 50.079 498.325 44.8841C503.577 40.9948 510.656 41.2337 516.258 44.896L516.285 44.8721C515.012 40.1151 515.692 35.151 518.194 31.3056C519.121 29.8765 520.3 28.6066 521.718 27.5517C528.734 22.3647 539.011 24.5183 544.671 32.3684Z" fill="#FFA9C0" fill-opacity="0.11"/>
<path d="M443.563 189.443C444.329 190.506 444.824 191.692 445.064 192.938C445.064 192.946 445.068 192.95 445.072 192.958C447.099 203.973 439.635 215.811 437.486 218.936L437.466 218.952C434.214 219.975 422.892 223.041 413.547 219.649C412.588 219.299 411.645 218.885 410.738 218.391C410.73 218.387 410.722 218.379 410.722 218.379C409.622 217.766 408.656 216.93 407.89 215.867C404.669 211.405 406.216 204.705 411.343 200.907C415.185 198.061 419.942 197.655 423.442 199.506L423.462 199.49C422.967 196.616 423.804 193.459 425.787 190.856C426.522 189.889 427.414 189.001 428.451 188.232C433.573 184.439 440.342 184.976 443.563 189.443Z" fill="#FFA9C0" fill-opacity="0.11"/>
<path d="M749.766 404.358C749.962 405.612 750.001 406.738 749.895 407.706C749.895 407.714 749.895 407.718 749.895 407.726C748.693 418.115 739.132 421.013 735.627 421.754L735.6 421.742C732.284 417.988 720.515 403.601 717.176 387.702C716.874 386.261 716.661 384.852 716.551 383.49C716.551 383.483 716.555 383.475 716.551 383.467C716.441 381.862 716.634 380.413 717.16 379.211C719.113 374.729 724.754 375.402 729.586 379.605C732.905 382.491 735.478 386.675 736.523 390.54L736.543 390.556C737.423 389.095 738.974 388.825 740.766 389.697C741.398 390.003 742.07 390.461 742.765 391.062C746.018 393.892 749.011 399.509 749.766 404.358Z" fill="#FFA9C0" fill-opacity="0.11"/>
<path d="M596.379 139.34C597.13 140.383 597.699 141.526 598.08 142.708C598.084 142.716 598.088 142.72 598.088 142.728C601.777 154.455 596.851 166.665 595.283 170.056L595.264 170.072C592.325 170.223 582.65 170.092 575.5 163.03C574.832 162.369 574.196 161.653 573.591 160.876L573.579 160.861C572.864 159.921 572.267 158.802 571.823 157.533C570.075 152.521 571.395 146.872 574.62 144.484C577.036 142.692 580.049 143.039 582.406 145.172L582.422 145.16C582.021 142.605 582.504 140.105 583.73 138.266C584.178 137.589 584.732 136.996 585.384 136.51C588.605 134.122 593.413 135.232 596.379 139.34Z" fill="#FFA9C0" fill-opacity="0.11"/>
<path d="M662.507 80.8983C660.61 82.188 658.61 83.1235 656.603 83.7246C656.591 83.7286 656.583 83.7366 656.572 83.7366C638.859 88.8837 623.008 81.0217 618.887 78.6969L618.867 78.669C618.36 74.3658 617.355 59.2905 625.687 45.5926C626.543 44.1874 627.498 42.7901 628.562 41.4247C628.57 41.4167 628.578 41.4088 628.586 41.4008C629.898 39.7448 631.512 38.2241 633.41 36.9343C641.38 31.5165 651.233 32.245 655.413 38.5625C658.543 43.2957 657.601 49.8162 653.586 55.0709L653.606 55.0987C658.218 53.805 662.821 54.2986 666.192 56.5C667.441 57.316 668.522 58.3669 669.37 59.6448C673.55 65.9663 670.478 75.4804 662.507 80.8983Z" fill="#FFA9C0" fill-opacity="0.11"/>
<path d="M648.038 215.159C649.276 216.444 650.258 217.873 650.965 219.366C650.969 219.374 650.977 219.382 650.981 219.39C657.816 234.091 652.073 249.931 650.195 254.334L650.171 254.354C645.897 254.791 631.689 255.44 620.198 247.093C619.118 246.308 618.073 245.448 617.071 244.505C617.063 244.501 617.059 244.489 617.051 244.485C615.861 243.347 614.816 241.969 613.984 240.381C610.68 234.099 611.866 226.723 616.356 223.395C619.723 220.903 624.268 221.122 628.059 223.693L628.078 223.677C627.147 220.409 627.532 217.149 629.112 214.681C629.693 213.773 630.436 212.965 631.347 212.288C635.837 208.968 643.132 210.063 648.038 215.159Z" fill="#FFA9C0" fill-opacity="0.11"/>
<path d="M755.635 195.537C754.771 197.161 753.589 198.519 752.194 199.59C752.186 199.598 752.182 199.606 752.175 199.61C739.773 208.937 720.873 206.711 715.786 205.899L715.755 205.883C712.616 202.376 702.3 189.881 701.075 175.928C700.949 174.495 700.917 173.046 701.004 171.589C701.004 171.581 701.008 171.569 701.008 171.561C701.129 169.789 701.601 168.05 702.469 166.422C706.107 159.595 715.256 157.453 722.893 161.637C728.616 164.77 731.865 170.566 731.61 176.143L731.641 176.159C734.898 173.766 739.27 172.898 743.619 173.818C745.233 174.156 746.84 174.746 748.391 175.593C756.032 179.785 759.273 188.71 755.635 195.537Z" fill="#FFA9C0" fill-opacity="0.11"/>
<path d="M642.767 600.957C642.48 603.254 641.809 605.392 640.842 607.307C640.834 607.319 640.834 607.331 640.831 607.342C632.149 624.145 613.509 630.789 608.422 632.33L608.386 632.326C604.258 629.81 590.371 620.419 584.624 604.926C584.035 603.334 583.528 601.678 583.127 599.958C583.123 599.946 583.127 599.934 583.123 599.922C582.656 597.82 582.53 595.583 582.817 593.286C584.019 583.641 591.982 576.71 600.596 577.813C607.051 578.641 612.036 583.74 613.627 590.301L613.662 590.305C615.96 585.962 619.818 582.825 624.241 581.77C625.883 581.376 627.6 581.268 629.348 581.495C637.959 582.59 643.969 591.308 642.767 600.957Z" fill="#FFA9C0" fill-opacity="0.11"/>
<path d="M924.462 256.037C924.176 258.334 923.543 260.532 922.643 262.558C922.639 262.57 922.636 262.582 922.632 262.594C914.586 280.392 897.679 289.719 893.063 292L893.032 292.004C889.335 290.157 876.906 283.039 871.905 268.7C871.39 267.227 870.954 265.679 870.617 264.051C870.613 264.039 870.616 264.027 870.612 264.019C870.216 262.028 870.129 259.851 870.416 257.55C871.618 247.905 878.894 239.903 886.66 239.688C892.478 239.525 896.921 243.78 898.276 249.975L898.307 249.971C900.436 245.361 903.956 241.706 907.967 239.999C909.452 239.366 911.008 239.003 912.579 238.96C920.345 238.741 925.668 246.388 924.462 256.037Z" fill="#FFA9C0" fill-opacity="0.11"/>
<path d="M841.462 139.981C842.043 141.502 842.416 142.915 842.589 144.189C842.589 144.197 842.593 144.205 842.593 144.213C844.337 157.943 834.768 165.594 831.165 167.986H831.13C826.412 164.575 809.359 151.123 801.047 132.258C800.293 130.547 799.648 128.839 799.13 127.151C799.126 127.139 799.126 127.131 799.126 127.119C798.533 125.125 798.321 123.198 798.537 121.447C799.35 114.93 805.694 113.453 812.195 116.805C816.662 119.11 820.692 123.373 822.971 127.864L822.995 127.876C823.525 125.65 825.136 124.663 827.343 125.033C828.125 125.165 828.989 125.463 829.924 125.945C834.296 128.202 839.211 134.118 841.462 139.981Z" fill="#FFA9C0" fill-opacity="0.11"/>
<path d="M810.735 289.361C810.48 291.419 809.899 293.393 809.054 295.204C809.05 295.216 809.046 295.224 809.042 295.236C800.577 313.078 781.505 321.844 775.97 324.057H775.93C772.328 320.944 761.156 309.961 760.492 293.7C760.429 292.183 760.464 290.63 760.606 289.042C760.606 289.03 760.61 289.022 760.614 289.01C760.802 287.111 761.321 285.137 762.185 283.151C765.602 275.332 773.306 270.201 779.678 271.017C784.455 271.63 787.601 275.404 788.033 280.535H788.061C790.383 277.1 793.667 274.715 797.104 273.935C798.365 273.648 799.658 273.573 800.95 273.736C807.33 274.556 811.749 281.236 810.735 289.361Z" fill="#FFA9C0" fill-opacity="0.11"/>
<path d="M1048.2 179.526C1048 181.059 1047.59 182.496 1047.01 183.782C1047.01 183.79 1047.01 183.798 1047 183.806C1041.79 195.111 1030.92 199.753 1027.95 200.84H1027.93C1025.57 199.208 1017.63 193.105 1014.48 182.835C1014.15 181.78 1013.88 180.681 1013.67 179.538C1013.67 179.53 1013.67 179.523 1013.67 179.515C1013.42 178.117 1013.37 176.624 1013.56 175.092C1014.37 168.643 1019.05 163.934 1024.03 164.571C1027.76 165.048 1030.59 168.392 1031.44 172.751H1031.46C1032.84 169.829 1035.11 167.692 1037.68 166.939C1038.63 166.657 1039.63 166.569 1040.64 166.696C1045.62 167.333 1049 173.078 1048.2 179.526Z" fill="#FFA9C0" fill-opacity="0.11"/>
<path d="M944.631 72.3873C944.404 74.2185 943.787 75.9143 942.868 77.423C942.864 77.431 942.86 77.4429 942.856 77.4509C934.618 90.687 916.206 95.5356 911.17 96.6423L911.131 96.6383C906.955 94.5166 892.876 86.6426 886.763 74.0831C886.135 72.7934 885.588 71.4518 885.148 70.0665C885.145 70.0586 885.145 70.0466 885.145 70.0387C884.626 68.3428 884.445 66.5475 884.673 64.7123C885.632 57.0135 893.398 51.6673 902.013 52.77C908.467 53.598 913.562 57.8096 915.314 63.1041L915.35 63.1081C917.534 59.6886 921.301 57.2762 925.685 56.5398C927.311 56.2651 929.02 56.2253 930.768 56.4482C939.383 57.5549 945.59 64.6885 944.631 72.3873Z" fill="#FFA9C0" fill-opacity="0.11"/>
<path d="M131.474 45.1507C131.945 47.1252 132.106 49.1275 131.996 51.0741C131.996 51.0861 131.996 51.094 131.996 51.106C130.885 68.2513 119.889 81.2605 116.805 84.5885L116.778 84.6004C113.176 84.258 100.786 82.3512 92.261 72.1723C91.385 71.1254 90.5522 69.9949 89.7704 68.7648C89.7665 68.7568 89.7626 68.7449 89.7587 68.7369C88.8198 67.2282 88.0773 65.4687 87.602 63.4942C85.6142 55.1982 89.1145 46.333 95.4195 43.6977C100.141 41.7232 105.095 43.8052 108.12 48.4587L108.147 48.4468C108.473 43.9923 110.233 39.8761 112.995 37.209C114.02 36.2178 115.183 35.4296 116.46 34.8962C122.765 32.2688 129.486 36.8547 131.474 45.1507Z" fill="#FFA9C0" fill-opacity="0.11"/>
<path d="M1032.51 590.779C1032.98 592.753 1033.14 594.755 1033.03 596.702C1033.03 596.714 1033.03 596.722 1033.03 596.734C1031.92 613.879 1020.93 626.884 1017.84 630.216L1017.81 630.228C1014.21 629.886 1001.82 627.979 993.298 617.8C992.422 616.753 991.589 615.623 990.808 614.393C990.804 614.385 990.8 614.373 990.796 614.365C989.857 612.856 989.114 611.097 988.639 609.122C986.651 600.826 990.152 591.961 996.457 589.326C1001.18 587.351 1006.13 589.433 1009.16 594.087L1009.18 594.075C1009.51 589.62 1011.27 585.504 1014.03 582.837C1015.06 581.846 1016.22 581.057 1017.5 580.524C1023.8 577.897 1030.52 582.483 1032.51 590.779Z" fill="#FFA9C0" fill-opacity="0.11"/>
<path d="M51.3691 28.7936C51.6873 30.1113 51.7895 31.421 51.707 32.663C51.707 32.6709 51.707 32.6749 51.707 32.6829C50.9134 43.6102 43.43 50.8592 41.3322 52.6904L41.3126 52.6943C38.8731 52.1052 30.4782 49.6092 24.7232 42.185C24.1339 41.4207 23.5682 40.6086 23.0418 39.7368C23.0418 39.7368 23.0378 39.7249 23.0339 39.7169C22.4014 38.6501 21.8987 37.4399 21.5844 36.1223C20.2566 30.577 22.6489 25.2268 26.9269 24.1759C30.1324 23.3877 33.4873 25.2348 35.5261 28.5389L35.5457 28.5349C35.7775 25.7006 36.9796 23.2325 38.8574 21.7954C39.5527 21.262 40.3423 20.8719 41.2104 20.6609C45.4923 19.606 50.0413 23.2484 51.3691 28.7936Z" fill="#FFA9C0" fill-opacity="0.11"/>
<path opacity="0.78" d="M131.255 225.935C131.652 227.678 131.731 229.41 131.534 231.058C131.534 231.07 131.534 231.078 131.534 231.086C129.668 245.616 117.911 255.48 114.627 257.976L114.599 257.984C110.942 257.279 98.3986 254.23 90.1452 244.553C89.2967 243.558 88.4952 242.495 87.7528 241.356C87.7489 241.348 87.745 241.34 87.741 241.332C86.8454 239.935 86.1658 238.347 85.7691 236.603C84.0956 229.282 88.0435 222.105 94.5803 220.572C99.4789 219.422 104.437 221.771 107.32 226.098L107.347 226.09C107.87 222.316 109.838 219.004 112.769 217.038C113.853 216.309 115.071 215.768 116.398 215.457C122.927 213.921 129.586 218.61 131.255 225.935Z" fill="#FFA9C0" fill-opacity="0.11"/>
<path opacity="0.78" d="M151.303 594.767C151.303 596.618 151.02 598.434 150.506 600.133C150.502 600.145 150.502 600.153 150.502 600.161C145.874 615.121 133.362 624.253 129.921 626.534L129.894 626.538C126.775 625.447 116.192 621.056 110.798 610.173C110.244 609.054 109.745 607.868 109.313 606.61C109.309 606.602 109.309 606.59 109.309 606.582C108.795 605.042 108.512 603.318 108.512 601.463C108.512 593.676 113.497 586.579 119.649 585.615C124.257 584.895 128.205 587.821 129.898 592.61L129.925 592.606C131.159 588.724 133.594 585.464 136.611 583.701C137.731 583.048 138.929 582.598 140.174 582.403C146.318 581.443 151.303 586.981 151.303 594.767Z" fill="#FFA9C0" fill-opacity="0.11"/>
<path opacity="0.78" d="M91.4266 361.194C91.4266 362.567 91.1202 363.877 90.5663 365.079C90.5624 365.087 90.5624 365.091 90.5585 365.099C85.5656 375.652 72.0716 380.975 68.3633 382.264H68.3358C64.9692 381.094 53.5613 376.608 47.7434 367.914C47.1463 367.022 46.6081 366.083 46.1407 365.099C46.1367 365.091 46.1367 365.087 46.1327 365.079C45.5788 363.877 45.2725 362.567 45.2725 361.19C45.2725 355.414 50.6504 350.733 57.2814 350.733C62.2508 350.733 66.5091 353.36 68.3358 357.106H68.3633C69.695 354.371 72.3192 352.233 75.5719 351.278C76.7779 350.924 78.0703 350.729 79.4138 350.729C86.0488 350.737 91.4266 355.418 91.4266 361.194Z" fill="#FFA9C0" fill-opacity="0.11"/>
<path opacity="0.78" d="M222.316 371.671C223.118 373.168 223.684 374.585 224.025 375.883C224.029 375.891 224.033 375.899 224.033 375.907C227.616 389.904 218.687 399.099 215.265 402.057L215.23 402.061C209.903 399.151 190.493 387.475 179.442 369.032C178.441 367.36 177.549 365.676 176.795 363.993C176.791 363.981 176.791 363.973 176.783 363.961C175.911 361.97 175.439 360.004 175.439 358.157C175.439 351.298 181.823 348.925 188.992 351.537C193.918 353.332 198.648 357.217 201.587 361.564L201.614 361.572C201.877 359.196 203.421 357.962 205.755 358.053C206.58 358.085 207.514 358.284 208.544 358.658C213.376 360.414 219.229 365.891 222.316 371.671Z" fill="#FFA9C0" fill-opacity="0.11"/>
<path opacity="0.78" d="M145.123 315.538C145.123 316.884 144.907 318.205 144.51 319.44C144.506 319.447 144.506 319.455 144.506 319.463C140.487 331.657 128.907 338.874 125.52 340.753H125.497C122.928 339.045 114.847 332.891 113.115 322.473C112.954 321.502 112.851 320.498 112.816 319.463C112.816 319.455 112.816 319.444 112.816 319.444C112.785 318.205 112.958 316.888 113.358 315.542C114.933 310.224 119.483 306.287 123.65 306.283C126.774 306.283 129.107 308.456 129.794 311.725H129.814C131.032 309.32 132.957 307.517 135.109 306.729C135.899 306.438 136.724 306.283 137.573 306.283C141.741 306.283 145.123 310.22 145.123 315.538Z" fill="#FFA9C0" fill-opacity="0.11"/>
<path opacity="0.78" d="M352.36 172.771C352.36 173.981 352.179 175.132 351.853 176.191C351.853 176.199 351.853 176.202 351.849 176.21C348.899 185.498 340.916 190.179 338.724 191.314H338.709C336.717 190.283 329.972 186.338 326.531 178.686C326.177 177.902 325.859 177.074 325.584 176.21L325.58 176.195C325.254 175.136 325.069 173.985 325.069 172.775C325.069 167.696 328.251 163.571 332.172 163.571C335.11 163.571 337.628 165.884 338.709 169.18H338.724C339.514 166.776 341.066 164.897 342.987 164.053C343.702 163.739 344.464 163.571 345.261 163.571C349.181 163.567 352.36 167.688 352.36 172.771Z" fill="#FFA9C0" fill-opacity="0.11"/>
<path opacity="0.78" d="M131.554 428.919C131.683 429.851 131.664 430.754 131.507 431.606C131.507 431.606 131.507 431.614 131.507 431.622C129.916 439.954 122.68 444.839 120.547 446.108H120.531C118.594 444.958 112.407 440.794 110.105 433.688C109.889 433.02 109.708 432.331 109.575 431.622V431.606C109.421 430.754 109.398 429.847 109.527 428.919C110.046 425.241 112.788 422.498 115.691 422.498C117.867 422.498 119.718 424.011 120.535 426.28H120.547C121.148 424.612 122.302 423.358 123.721 422.809C124.239 422.606 124.801 422.498 125.39 422.498C128.293 422.498 131.035 425.237 131.554 428.919Z" fill="#FFA9C0" fill-opacity="0.11"/>
<path opacity="0.78" d="M488.333 363.598C487.237 364.773 485.991 365.696 484.668 366.373C484.66 366.377 484.656 366.381 484.648 366.389C472.926 372.233 459.723 368.196 456.23 366.942L456.211 366.926C454.907 363.786 450.9 352.699 453.96 341.569C454.274 340.426 454.663 339.28 455.138 338.145C455.142 338.137 455.146 338.133 455.15 338.125C455.739 336.744 456.58 335.43 457.676 334.256C462.276 329.32 469.579 328.739 473.983 332.958C477.282 336.119 478.021 341.071 476.249 345.434L476.269 345.45C479.329 343.961 482.778 343.806 485.701 345.056C486.785 345.518 487.799 346.179 488.69 347.03C493.09 351.242 492.933 358.662 488.333 363.598Z" fill="#FFA9C0" fill-opacity="0.11"/>
<path opacity="0.78" d="M393.162 552.177C391.952 553.475 390.566 554.557 389.096 555.405C389.089 555.409 389.081 555.417 389.073 555.421C376.046 562.805 361.303 560.811 357.399 560.103L357.375 560.091C355.898 557.232 351.349 547.05 354.68 535.792C355.022 534.637 355.446 533.467 355.969 532.297C355.973 532.289 355.98 532.277 355.98 532.277C356.629 530.852 357.556 529.45 358.766 528.153C363.857 522.691 371.992 521.063 376.934 524.514C380.635 527.102 381.491 531.807 379.55 536.297L379.574 536.309C382.976 534.418 386.818 533.762 390.082 534.554C391.296 534.844 392.428 535.338 393.429 536.039C398.375 539.482 398.253 546.711 393.162 552.177Z" fill="#FFA9C0" fill-opacity="0.11"/>
<path opacity="0.78" d="M351.376 469.145C350.944 470.789 350.398 472.214 349.766 473.397C349.762 473.405 349.758 473.413 349.754 473.421C342.875 486.088 330.151 486.557 325.657 486.33L325.63 486.306C323.729 480.483 317.53 458.493 321.992 437.394C322.397 435.48 322.892 433.637 323.481 431.889C323.485 431.877 323.493 431.869 323.497 431.857C324.212 429.803 325.202 428.048 326.451 426.706C331.098 421.718 337.344 424.437 340.789 431.324C343.154 436.057 343.96 442.171 343.15 447.374L343.166 447.398C344.969 445.854 346.926 446.029 348.56 447.717C349.137 448.314 349.683 449.11 350.178 450.097C352.504 454.739 353.046 462.796 351.376 469.145Z" fill="#FFA9C0" fill-opacity="0.11"/>
<path opacity="0.78" d="M244.551 572.244C243.313 573.574 241.891 574.664 240.363 575.508C240.355 575.512 240.347 575.52 240.339 575.524C225.188 583.74 207.161 579.935 202.093 578.593L202.065 578.573C201.103 574.469 198.793 560.791 206.654 548.897C207.388 547.786 208.206 546.703 209.121 545.652C209.125 545.644 209.136 545.64 209.14 545.632C210.248 544.386 211.627 543.252 213.257 542.3C219.688 538.546 227.784 538.956 231.893 542.886C234.969 545.831 235.272 550.17 232.95 554.036L232.97 554.052C236.38 552.834 239.931 552.869 242.771 554.123C243.812 554.581 244.771 555.21 245.603 556.006C249.716 559.939 249.433 567.005 244.551 572.244Z" fill="#FFA9C0" fill-opacity="0.11"/>
<path opacity="0.78" d="M501.629 631.605C500.533 632.78 499.315 633.731 498.038 634.452C498.03 634.456 498.026 634.464 498.018 634.468C486.744 640.741 474.759 637.871 471.596 636.936L471.581 636.92C470.579 634.07 467.601 623.962 471.184 613.334C471.553 612.243 471.989 611.144 472.504 610.049C472.508 610.042 472.512 610.038 472.516 610.03C473.156 608.696 474.024 607.41 475.12 606.236C479.72 601.3 486.536 600.257 490.346 603.903C493.198 606.634 493.552 611.224 491.619 615.428L491.635 615.443C494.577 613.839 497.787 613.457 500.419 614.428C501.393 614.787 502.289 615.336 503.062 616.072C506.869 619.715 506.229 626.669 501.629 631.605Z" fill="#FFA9C0" fill-opacity="0.11"/>
<path opacity="0.78" d="M397.075 392.296C396.305 393.399 395.401 394.322 394.411 395.059C394.404 395.063 394.4 395.067 394.396 395.075C384.622 402.188 372.306 400.055 368.846 399.25L368.826 399.235C367.926 396.098 365.514 385.564 370.028 375.835C370.452 374.924 370.936 374.024 371.486 373.148L371.497 373.132C372.165 372.089 373.025 371.118 374.066 370.278C378.191 366.954 383.722 366.831 386.755 369.737C389.03 371.914 389.489 375.342 388.13 378.526L388.146 378.538C390.397 377.396 392.824 377.241 394.839 378.085C395.578 378.395 396.269 378.841 396.886 379.43C399.919 382.332 400.115 387.933 397.075 392.296Z" fill="#FFA9C0" fill-opacity="0.11"/>
<path opacity="0.78" d="M449.228 746.503C447.92 747.904 446.372 748.951 444.679 749.648C444.667 749.652 444.663 749.66 444.651 749.664C429.653 755.679 411.182 748.267 406.264 746.053L406.232 746.029C404.001 741.635 396.922 726.201 399.405 711.795C399.66 710.314 400.017 708.845 400.489 707.4C400.493 707.392 400.501 707.384 400.501 707.372C401.094 705.616 402.033 703.992 403.341 702.587C408.833 696.695 418.63 697.038 425.222 703.347C430.16 708.077 431.896 714.812 430.148 720.369L430.175 720.393C434.1 718.872 438.739 719.191 442.884 721.313C444.42 722.097 445.889 723.132 447.224 724.41C453.824 730.719 454.72 740.612 449.228 746.503Z" fill="#FFA9C0" fill-opacity="0.11"/>
<path opacity="0.78" d="M476.198 89.7993C474.89 91.2006 473.343 92.2475 471.65 92.9442C471.638 92.9482 471.634 92.9561 471.622 92.9601C456.624 98.9751 438.153 91.5628 433.234 89.3495L433.203 89.3216C430.972 84.9268 423.893 69.4933 426.375 55.0868C426.631 53.6059 426.984 52.137 427.46 50.692C427.463 50.684 427.471 50.6761 427.471 50.6641C428.064 48.9086 429.007 47.2844 430.311 45.8792C435.803 39.9876 445.601 40.33 452.192 46.6396C457.13 51.3687 458.867 58.1003 457.119 63.6575L457.15 63.6853C461.074 62.1647 465.714 62.4831 469.858 64.6049C471.394 65.3891 472.863 66.4241 474.199 67.7019C480.795 74.0115 481.69 83.9038 476.198 89.7993Z" fill="#FFA9C0" fill-opacity="0.11"/>
<path opacity="0.78" d="M587.137 382.01C588.316 383.646 589.157 385.413 589.679 387.224C589.683 387.236 589.687 387.244 589.691 387.252C594.134 403.235 586.21 418.82 583.889 422.9L583.865 422.92C579.744 423.832 565.335 426.316 552.485 419.959C551.166 419.306 549.861 418.557 548.585 417.705C548.577 417.701 548.569 417.689 548.561 417.686C547.017 416.635 545.607 415.285 544.428 413.649C539.471 406.778 540.425 397.515 546.566 392.969C551.166 389.561 557.364 389.772 562.267 392.977L562.291 392.957C561.175 388.793 561.772 384.446 563.96 381.078C564.773 379.828 565.803 378.714 567.048 377.794C573.18 373.248 582.176 375.135 587.137 382.01Z" fill="#FFA9C0" fill-opacity="0.11"/>
<path opacity="0.78" d="M498.611 519.53C499.283 520.458 499.715 521.501 499.927 522.591C499.927 522.599 499.935 522.607 499.935 522.607C501.711 532.253 495.174 542.619 493.292 545.354L493.273 545.37C490.425 546.265 480.514 548.948 472.331 545.983C471.49 545.676 470.669 545.314 469.872 544.88C469.872 544.88 469.864 544.872 469.856 544.868C468.893 544.331 468.049 543.598 467.377 542.667C464.557 538.758 465.912 532.894 470.398 529.57C473.761 527.078 477.925 526.724 480.989 528.344L481.009 528.328C480.576 525.812 481.311 523.049 483.043 520.772C483.684 519.928 484.466 519.148 485.377 518.475C489.867 515.147 495.795 515.621 498.611 519.53Z" fill="#FFA9C0" fill-opacity="0.11"/>
<path opacity="0.78" d="M630.657 298.134C630.838 299.547 630.862 300.833 630.74 301.952C630.74 301.96 630.74 301.972 630.74 301.972C629.377 314.014 619.654 318.476 616.095 319.746L616.067 319.738C612.763 315.833 601.061 300.77 597.907 282.967C597.62 281.355 597.427 279.763 597.337 278.218C597.337 278.21 597.341 278.198 597.337 278.19C597.247 276.367 597.467 274.683 598.013 273.242C600.055 267.876 605.751 267.972 610.583 272.207C613.903 275.117 616.444 279.6 617.446 283.899L617.466 283.911C618.377 282.131 619.952 281.638 621.752 282.422C622.388 282.701 623.06 283.139 623.755 283.748C627.012 286.594 629.962 292.669 630.657 298.134Z" fill="#FFA9C0" fill-opacity="0.11"/>
<path opacity="0.78" d="M632.401 475.666C633.061 476.577 633.556 477.577 633.89 478.616C633.89 478.624 633.897 478.632 633.897 478.632C637.13 488.898 632.817 499.586 631.442 502.56L631.427 502.572C628.854 502.703 620.38 502.592 614.122 496.406C613.537 495.829 612.979 495.204 612.449 494.519L612.441 494.503C611.816 493.679 611.29 492.704 610.901 491.589C609.373 487.202 610.528 482.254 613.348 480.164C615.462 478.596 618.102 478.898 620.164 480.765L620.176 480.753C619.826 478.512 620.247 476.331 621.319 474.718C621.712 474.125 622.195 473.608 622.769 473.182C625.597 471.096 629.808 472.067 632.401 475.666Z" fill="#FFA9C0" fill-opacity="0.11"/>
<path opacity="0.78" d="M690.3 424.501C688.643 425.631 686.886 426.451 685.13 426.977C685.119 426.981 685.111 426.985 685.103 426.989C669.594 431.495 655.719 424.612 652.109 422.578L652.093 422.554C651.649 418.788 650.769 405.588 658.064 393.594C658.814 392.364 659.647 391.142 660.582 389.947C660.586 389.939 660.598 389.931 660.602 389.923C661.749 388.474 663.163 387.145 664.825 386.014C671.802 381.273 680.428 381.91 684.089 387.439C686.831 391.583 686.006 397.296 682.491 401.894L682.506 401.918C686.545 400.783 690.575 401.217 693.525 403.148C694.621 403.86 695.564 404.78 696.307 405.902C699.968 411.428 697.277 419.756 690.3 424.501Z" fill="#FFA9C0" fill-opacity="0.11"/>
<path opacity="0.78" d="M677.634 542.046C678.718 543.172 679.574 544.422 680.195 545.732C680.199 545.74 680.203 545.744 680.207 545.752C686.19 558.622 681.165 572.491 679.519 576.348L679.5 576.364C675.756 576.746 663.319 577.316 653.258 570.007C652.315 569.322 651.4 568.57 650.52 567.742C650.52 567.742 650.508 567.73 650.504 567.722C649.463 566.723 648.548 565.52 647.818 564.127C644.926 558.626 645.963 552.169 649.896 549.259C652.842 547.077 656.821 547.268 660.141 549.522L660.157 549.506C659.339 546.644 659.677 543.789 661.064 541.628C661.571 540.832 662.223 540.123 663.02 539.534C666.957 536.628 673.34 537.583 677.634 542.046Z" fill="#FFA9C0" fill-opacity="0.11"/>
<path opacity="0.78" d="M771.837 524.865C771.079 526.286 770.046 527.472 768.824 528.411C768.816 528.415 768.813 528.423 768.805 528.431C757.947 536.596 741.401 534.649 736.946 533.937L736.918 533.921C734.172 530.852 725.137 519.908 724.069 507.695C723.959 506.441 723.931 505.172 724.006 503.898C724.006 503.89 724.01 503.882 724.01 503.874C724.116 502.321 724.528 500.801 725.286 499.375C728.472 493.4 736.478 491.521 743.168 495.184C748.181 497.926 751.025 503.002 750.801 507.882L750.829 507.898C753.681 505.804 757.507 505.044 761.317 505.852C762.732 506.151 764.138 506.664 765.493 507.409C772.183 511.075 775.023 518.889 771.837 524.865Z" fill="#FFA9C0" fill-opacity="0.11"/>
<path opacity="0.78" d="M778.469 237.801C778.218 239.812 777.633 241.683 776.784 243.362C776.78 243.374 776.776 243.382 776.772 243.39C769.171 258.099 752.852 263.919 748.398 265.265H748.366C744.752 263.063 732.594 254.839 727.562 241.273C727.043 239.879 726.603 238.43 726.254 236.922C726.25 236.914 726.254 236.902 726.25 236.89C725.841 235.051 725.731 233.088 725.983 231.078C727.035 222.63 734.004 216.564 741.547 217.531C747.196 218.256 751.564 222.718 752.954 228.462L752.986 228.466C754.997 224.665 758.376 221.918 762.249 220.994C763.687 220.652 765.191 220.556 766.72 220.756C774.258 221.723 779.522 229.354 778.469 237.801Z" fill="#FFA9C0" fill-opacity="0.11"/>
<path opacity="0.78" d="M998.546 542.742C999.367 544.589 999.889 546.524 1000.13 548.455C1000.14 548.467 1000.14 548.475 1000.14 548.487C1002.16 565.501 993.749 580.301 991.333 584.143L991.31 584.159C987.715 584.493 975.227 584.935 965.021 576.551C963.972 575.691 962.947 574.736 961.961 573.677C961.953 573.669 961.949 573.661 961.945 573.653C960.751 572.352 959.702 570.763 958.881 568.916C955.424 561.158 957.247 551.815 962.947 548.053C967.217 545.234 972.454 546.353 976.264 550.35L976.288 550.33C975.797 545.903 976.775 541.54 978.998 538.411C979.823 537.249 980.817 536.258 981.972 535.497C987.668 531.739 995.089 534.984 998.546 542.742Z" fill="#FFA9C0" fill-opacity="0.11"/>
<path opacity="0.78" d="M537.384 222.209C537.859 223.255 538.079 224.362 538.072 225.473C538.072 225.481 538.076 225.485 538.076 225.493C537.918 235.301 529.476 244.143 527.096 246.44L527.076 246.452C524.11 246.754 513.869 247.383 506.433 242.825C505.671 242.355 504.936 241.834 504.241 241.249L504.229 241.237C503.392 240.516 502.705 239.628 502.229 238.582C500.234 234.183 502.713 228.709 507.764 226.357C511.547 224.593 515.704 225.087 518.387 227.292L518.406 227.28C518.477 224.724 519.738 222.165 521.887 220.286C522.684 219.585 523.6 218.984 524.625 218.506C529.677 216.15 535.389 217.81 537.384 222.209Z" fill="#FFA9C0" fill-opacity="0.11"/>
<path opacity="0.78" d="M846.982 476.227C847.493 477.557 847.819 478.799 847.968 479.913C847.968 479.921 847.972 479.925 847.972 479.933C849.501 491.955 841.121 498.651 837.967 500.749H837.936C833.807 497.763 818.875 485.984 811.596 469.468C810.936 467.971 810.37 466.474 809.915 464.993C809.911 464.985 809.915 464.973 809.911 464.965C809.392 463.218 809.204 461.53 809.396 459.997C810.107 454.293 815.662 452.999 821.354 455.933C825.267 457.951 828.794 461.685 830.786 465.614L830.806 465.622C831.273 463.672 832.683 462.812 834.612 463.134C835.296 463.25 836.054 463.512 836.871 463.934C840.709 465.913 845.014 471.092 846.982 476.227Z" fill="#FFA9C0" fill-opacity="0.11"/>
<path opacity="0.78" d="M245.964 317.815C245.344 319.097 244.66 320.176 243.953 321.044L243.941 321.06C236.238 330.331 225.702 328.607 222.044 327.672L222.025 327.648C221.4 322.545 219.86 303.437 226.939 286.833C227.583 285.328 228.287 283.895 229.053 282.553C229.057 282.545 229.064 282.538 229.068 282.53C229.988 280.961 231.088 279.679 232.329 278.784C236.956 275.456 241.651 278.724 243.371 284.962C244.55 289.245 244.224 294.404 242.715 298.552L242.723 298.572C244.456 297.601 246.035 298.071 247.107 299.731C247.488 300.32 247.807 301.06 248.054 301.956C249.217 306.16 248.364 312.875 245.964 317.815Z" fill="#FFA9C0" fill-opacity="0.11"/>
<path opacity="0.78" d="M1027.98 510.848C1027.81 512.19 1027.45 513.448 1026.94 514.574C1026.94 514.582 1026.94 514.586 1026.93 514.594C1022.37 524.49 1012.86 528.559 1010.26 529.51H1010.24C1008.17 528.081 1001.22 522.739 998.458 513.746C998.175 512.823 997.935 511.859 997.747 510.86C997.747 510.852 997.747 510.848 997.747 510.84C997.531 509.618 997.487 508.312 997.656 506.967C998.359 501.322 1002.46 497.198 1006.82 497.755C1010.09 498.173 1012.56 501.103 1013.31 504.917H1013.33C1014.54 502.357 1016.52 500.49 1018.77 499.825C1019.61 499.579 1020.48 499.499 1021.37 499.614C1025.72 500.172 1028.68 505.203 1027.98 510.848Z" fill="#FFA9C0" fill-opacity="0.11"/>
<path opacity="0.78" d="M791.943 336.398C791.958 337.528 791.801 338.611 791.487 339.602C791.483 339.61 791.483 339.614 791.483 339.622C788.344 349.335 778.963 354.064 776.229 355.255H776.21C774.069 353.583 767.296 347.663 765.599 338.818C765.442 337.99 765.328 337.138 765.273 336.266V336.25C765.214 335.207 765.324 334.121 765.619 333.03C766.785 328.711 770.47 325.857 773.943 326.302C776.543 326.637 778.527 328.727 779.168 331.561H779.183C780.15 329.658 781.713 328.337 783.489 327.899C784.141 327.736 784.828 327.696 785.532 327.783C789.004 328.229 791.872 331.923 791.943 336.398Z" fill="#FFA9C0" fill-opacity="0.11"/>
<path opacity="0.78" d="M937.297 417.049C937.096 418.653 936.558 420.138 935.753 421.459C935.749 421.467 935.749 421.475 935.741 421.483C928.529 433.071 912.407 437.319 907.999 438.282L907.968 438.278C904.31 436.423 891.987 429.528 886.633 418.53C886.083 417.399 885.608 416.229 885.219 415.01C885.215 415.003 885.219 414.995 885.215 414.987C884.759 413.502 884.602 411.929 884.802 410.325C885.643 403.586 892.439 398.904 899.981 399.871C905.63 400.596 910.093 404.282 911.625 408.92L911.657 408.924C913.57 405.926 916.865 403.816 920.703 403.176C922.126 402.937 923.626 402.901 925.154 403.096C932.705 404.059 938.137 410.305 937.297 417.049Z" fill="#FFA9C0" fill-opacity="0.11"/>
<path opacity="0.78" d="M39.0853 519.152C38.5511 520.462 37.8439 521.628 37.019 522.623C37.0151 522.631 37.0112 522.635 37.0072 522.643C29.6927 531.361 18.9761 532.798 16.0927 533.033L16.0732 533.025C14.3761 531.003 8.81349 523.658 8.47565 513.802C8.4403 512.791 8.45996 511.752 8.54638 510.689C8.54638 510.681 8.55034 510.677 8.55034 510.669C8.66426 509.375 8.97854 508.042 9.51672 506.732C11.7677 501.227 17.0394 498.213 21.2899 499.996C24.4719 501.334 26.1768 504.984 25.8861 509.049L25.9058 509.057C27.8228 506.812 30.3409 505.478 32.7961 505.442C33.7075 505.426 34.611 505.593 35.4713 505.956C39.7178 507.739 41.3402 513.647 39.0853 519.152Z" fill="#FFA9C0" fill-opacity="0.11"/>
<path opacity="0.78" d="M52.6327 322.401C51.9923 323.966 51.0417 325.311 49.871 326.422C49.8632 326.43 49.8553 326.442 49.8553 326.442C39.4059 336.127 21.9679 335.892 17.25 335.633L17.2185 335.621C14.0327 332.723 3.46537 322.302 1.06122 309.699C0.813737 308.405 0.652722 307.087 0.593797 305.75C0.593797 305.742 0.597753 305.734 0.597753 305.726C0.542756 304.098 0.813761 302.465 1.45408 300.901C4.14107 294.329 12.2845 291.506 19.6384 294.595C25.1499 296.908 28.6461 301.884 28.9289 306.996L28.9604 307.007C31.7103 304.519 35.615 303.309 39.669 303.735C41.1736 303.891 42.6938 304.277 44.1866 304.902C51.5366 307.995 55.3236 315.829 52.6327 322.401Z" fill="#FFA9C0" fill-opacity="0.11"/>
<path opacity="0.78" d="M64.0883 122.426C65.5615 123.393 66.795 124.58 67.781 125.901C67.7889 125.909 67.7928 125.913 67.8007 125.921C76.3723 137.629 74.6792 152.919 74.031 157.003L74.0153 157.027C70.9198 159.081 59.8614 165.681 47.3575 164.531C46.0729 164.411 44.7727 164.212 43.4645 163.918C43.4567 163.918 43.4488 163.91 43.4409 163.91C41.8499 163.536 40.2786 162.875 38.8055 161.907C32.6183 157.839 30.5481 149.941 34.1818 144.269C36.9042 140.017 42.0542 138.226 47.0668 139.304L47.0825 139.281C44.8826 136.215 44.0342 132.465 44.7924 129.006C45.0713 127.724 45.5741 126.482 46.3126 125.332C49.9385 119.659 57.9012 118.358 64.0883 122.426Z" fill="#FFA9C0" fill-opacity="0.11"/>
<path opacity="0.78" d="M279.645 456.502C280.266 457.712 280.686 458.994 280.918 460.28C280.922 460.288 280.922 460.292 280.926 460.3C282.902 471.661 277.783 481.924 276.298 484.595L276.283 484.607C273.878 484.965 265.499 485.729 258.334 480.471C257.599 479.929 256.877 479.328 256.173 478.651L256.161 478.636C255.309 477.804 254.551 476.777 253.93 475.566C251.326 470.479 252.21 464.13 255.906 461.391C258.676 459.337 262.235 459.894 264.937 462.442L264.953 462.43C264.462 459.472 264.961 456.502 266.344 454.317C266.854 453.505 267.491 452.8 268.237 452.247C271.934 449.512 277.041 451.415 279.645 456.502Z" fill="#FFA9C0" fill-opacity="0.11"/>
<path opacity="0.78" d="M81.5751 351.565C82.4119 352.114 83.0876 352.83 83.5983 353.658L83.61 353.67C88.0412 361.019 85.8766 371.592 85.1774 374.43L85.1657 374.45C83.1033 376.086 75.8005 381.424 68.1717 381.584C67.3899 381.6 66.6003 381.56 65.8146 381.456C65.8146 381.456 65.8068 381.452 65.7989 381.452C64.8443 381.317 63.9251 380.983 63.0884 380.433C59.5686 378.12 58.8732 372.882 61.5288 368.734C63.5205 365.625 66.8281 364.016 69.8372 364.375L69.8491 364.355C68.7177 362.428 68.4663 359.928 69.1891 357.512C69.4562 356.616 69.8568 355.728 70.395 354.888C73.0506 350.74 78.0553 349.252 81.5751 351.565Z" fill="#FFA9C0" fill-opacity="0.11"/>
<path opacity="0.78" d="M129.116 84.1665C129.701 85.2692 130.114 86.3161 130.361 87.2715C130.361 87.2795 130.369 87.2874 130.369 87.2874C132.962 97.5977 126.366 104.337 123.836 106.503H123.809C119.896 104.345 105.652 95.6949 97.5751 82.0885C96.8444 80.8545 96.1923 79.6125 95.6423 78.3704C95.6384 78.3625 95.6385 78.3545 95.6345 78.3466C94.9981 76.8816 94.6563 75.4286 94.6642 74.0752C94.6838 69.0275 99.3861 67.2999 104.658 69.2465C108.276 70.58 111.745 73.4542 113.893 76.6667L113.913 76.6706C114.113 74.9231 115.253 74.0194 116.969 74.0911C117.578 74.119 118.266 74.2662 119.02 74.5449C122.567 75.8546 126.861 79.9031 129.116 84.1665Z" fill="#FFA9C0" fill-opacity="0.11"/>
<path opacity="0.78" d="M177.811 273.218C178.632 273.76 179.347 274.421 179.94 275.165L179.952 275.177C185.766 282.577 185.526 292.708 185.314 295.583L185.306 295.599C183.236 296.522 176.251 299.11 169.212 296.02C168.556 295.73 167.904 295.395 167.259 295.001L167.248 294.993C166.482 294.516 165.747 293.883 165.087 293.091C162.479 289.974 161.901 285.551 163.571 282.944C164.824 280.989 167.079 280.4 169.345 281.28L169.353 281.268C168.375 279.54 168.049 277.617 168.43 275.953C168.568 275.344 168.807 274.763 169.145 274.234C170.815 271.626 174.57 271.089 177.811 273.218Z" fill="#FFA9C0" fill-opacity="0.11"/>
<path opacity="0.78" d="M252.314 176.111C253.552 176.692 254.64 177.449 255.551 178.324L255.567 178.336C264.445 186.998 264.598 199.968 264.433 203.654L264.421 203.674C261.467 205.175 251.438 209.578 240.934 206.767C239.948 206.504 238.966 206.174 237.991 205.776C237.983 205.776 237.98 205.768 237.972 205.768C236.809 205.278 235.685 204.582 234.66 203.67C230.594 200.075 229.451 194.451 231.781 190.816C233.525 188.093 236.848 186.99 240.266 187.787L240.274 187.771C238.722 185.681 238.117 183.237 238.588 181.023C238.761 180.211 239.075 179.423 239.551 178.687C241.88 175.044 247.415 173.81 252.314 176.111Z" fill="#FFA9C0" fill-opacity="0.11"/>
<path opacity="0.78" d="M307.357 269.433C307.173 270.838 306.693 272.14 305.978 273.298C305.975 273.306 305.975 273.31 305.971 273.318C299.579 283.457 285.41 287.095 281.532 287.923L281.505 287.92C278.303 286.271 267.52 280.153 262.877 270.476C262.397 269.48 261.985 268.449 261.655 267.379C261.655 267.371 261.651 267.359 261.651 267.359C261.258 266.053 261.129 264.672 261.313 263.262C262.083 257.351 268.074 253.275 274.689 254.162C279.647 254.827 283.544 258.087 284.864 262.164L284.891 262.168C286.584 259.548 289.491 257.713 292.862 257.168C294.111 256.965 295.427 256.941 296.766 257.12C303.39 258.008 308.127 263.521 307.357 269.433Z" fill="#FFA9C0" fill-opacity="0.11"/>
<path opacity="0.78" d="M224.286 31.8429C224.698 33.5706 224.796 35.2943 224.616 36.9383C224.616 36.9463 224.616 36.9542 224.616 36.9662C222.915 51.4404 211.322 61.3804 208.085 63.8963L208.058 63.9042C204.416 63.2394 191.904 60.3454 183.592 50.8114C182.739 49.8321 181.93 48.7812 181.176 47.6586C181.172 47.6506 181.168 47.6427 181.164 47.6347C180.261 46.2534 179.565 44.681 179.153 42.9533C177.413 35.6923 181.259 28.507 187.744 26.9107C192.604 25.7165 197.561 27.9975 200.476 32.2649L200.504 32.2569C200.983 28.499 202.904 25.179 205.799 23.1926C206.871 22.4562 208.077 21.9029 209.393 21.5804C215.875 19.9841 222.545 24.5779 224.286 31.8429Z" fill="#FFA9C0" fill-opacity="0.11"/>
<path opacity="0.78" d="M444.936 266.081C445.349 267.809 445.49 269.564 445.392 271.268C445.392 271.28 445.392 271.288 445.392 271.296C444.418 286.307 434.793 297.696 432.094 300.61L432.071 300.622C428.916 300.32 418.07 298.652 410.606 289.743C409.84 288.827 409.11 287.836 408.426 286.761C408.422 286.753 408.418 286.745 408.414 286.737C407.589 285.416 406.941 283.875 406.529 282.147C404.789 274.886 407.853 267.124 413.372 264.815C417.509 263.087 421.845 264.911 424.493 268.983L424.517 268.971C424.803 265.07 426.343 261.467 428.763 259.134C429.659 258.267 430.676 257.578 431.796 257.108C437.311 254.803 443.196 258.82 444.936 266.081Z" fill="#FFA9C0" fill-opacity="0.11"/>
<path opacity="0.78" d="M372.694 250.803C373.523 251.73 374.171 252.646 374.639 253.514C374.639 253.514 374.647 253.522 374.651 253.529C379.612 262.908 374.804 271.053 372.859 273.772L372.836 273.78C368.526 272.637 352.648 267.705 341.586 256.459C340.584 255.44 339.657 254.393 338.828 253.322C338.824 253.315 338.816 253.303 338.816 253.303C337.854 252.033 337.178 250.711 336.864 249.389C335.689 244.485 339.845 241.667 345.42 242.272C349.25 242.686 353.296 244.632 356.144 247.228H356.164C355.944 245.48 356.835 244.326 358.521 243.98C359.118 243.856 359.821 243.832 360.618 243.92C364.37 244.326 369.497 247.212 372.694 250.803Z" fill="#FFA9C0" fill-opacity="0.11"/>
<path opacity="0.78" d="M513.155 176.831C513.43 177.986 513.525 179.132 513.454 180.219C513.454 180.227 513.454 180.231 513.454 180.239C512.759 189.805 506.21 196.15 504.372 197.755L504.356 197.758C502.219 197.241 494.869 195.059 489.829 188.559C489.31 187.89 488.819 187.178 488.356 186.417L488.348 186.401C487.794 185.466 487.354 184.411 487.079 183.252C485.916 178.4 488.01 173.714 491.758 172.791C494.563 172.098 497.501 173.718 499.288 176.612L499.304 176.609C499.504 174.124 500.557 171.963 502.203 170.709C502.812 170.243 503.503 169.901 504.265 169.714C508.009 168.79 511.989 171.979 513.155 176.831Z" fill="#FFA9C0" fill-opacity="0.11"/>
<path opacity="0.78" d="M615.612 193.085C615.612 194.295 615.431 195.446 615.101 196.504C615.101 196.504 615.101 196.516 615.097 196.524C612.143 205.812 604.164 210.493 601.972 211.628H601.957C599.965 210.597 593.22 206.652 589.779 199C589.425 198.216 589.107 197.388 588.832 196.524L588.828 196.508C588.502 195.45 588.317 194.299 588.317 193.089C588.317 188.009 591.499 183.885 595.42 183.885C598.358 183.885 600.876 186.198 601.957 189.494H601.972C602.762 187.09 604.314 185.211 606.239 184.367C606.954 184.053 607.716 183.885 608.509 183.885C612.434 183.885 615.612 188.006 615.612 193.085Z" fill="#FFA9C0" fill-opacity="0.11"/>
<path opacity="0.78" d="M1006.26 91.3598C1004.63 93.1153 1002.76 94.5006 1000.78 95.5118C1000.77 95.5197 1000.76 95.5277 1000.75 95.5317C983.206 104.273 963.45 98.2386 958.221 96.3597L958.19 96.3358C956.241 91.6384 950.243 75.0465 954.819 58.3908C955.291 56.6791 955.872 54.9674 956.579 53.2676C956.583 53.2556 956.591 53.2476 956.599 53.2357C957.483 51.1697 958.736 49.2071 960.378 47.4476C967.261 40.0633 978.185 39.1954 984.781 45.505C989.719 50.2342 990.823 57.6464 988.175 64.171L988.206 64.1948C992.787 61.9696 997.945 61.7347 1002.32 63.6057C1003.94 64.2983 1005.45 65.2816 1006.79 66.5634C1013.38 72.873 1013.15 83.9754 1006.26 91.3598Z" fill="#FFA9C0" fill-opacity="0.11"/>
<path opacity="0.78" d="M901.153 644.268C899.515 646.024 897.645 647.485 895.653 648.631C895.641 648.639 895.634 648.647 895.622 648.655C878.015 658.635 858.082 655.94 852.806 654.981L852.775 654.961C850.779 651.095 844.632 637.33 849.133 622.119C849.597 620.555 850.171 618.978 850.874 617.394C850.878 617.382 850.886 617.374 850.89 617.362C851.766 615.435 853.019 613.545 854.657 611.785C861.539 604.401 872.535 602.199 879.217 606.869C884.222 610.364 885.38 616.725 882.756 622.796L882.788 622.816C887.388 620.26 892.577 619.376 896.997 620.443C898.635 620.837 900.167 621.502 901.518 622.45C908.2 627.115 908.035 636.884 901.153 644.268Z" fill="#FFA9C0" fill-opacity="0.11"/>
<path opacity="0.78" d="M835.799 87.988C835.807 89.3614 835.508 90.6751 834.966 91.8813C834.962 91.8892 834.962 91.8932 834.958 91.9012C830.036 102.49 816.582 107.904 812.877 109.222H812.85C809.475 108.075 798.036 103.668 792.159 95.0102C791.554 94.1185 791.008 93.187 790.537 92.2077C790.533 92.1997 790.533 92.1957 790.529 92.1878C789.967 90.9896 789.653 89.6799 789.641 88.3065C789.602 82.5304 794.948 77.8131 801.579 77.7654C806.548 77.7295 810.823 80.333 812.673 84.063H812.7C814.012 81.3202 816.625 79.1666 819.873 78.1873C821.075 77.8251 822.368 77.6221 823.712 77.6141C830.35 77.5703 835.76 82.2119 835.799 87.988Z" fill="#FFA9C0" fill-opacity="0.11"/>
<path opacity="0.78" d="M867.561 231.87C867.129 233.514 866.583 234.939 865.95 236.121C865.946 236.129 865.946 236.137 865.939 236.145C859.06 248.812 846.336 249.286 841.842 249.055L841.814 249.031C839.913 243.211 833.714 221.217 838.177 200.119C838.582 198.208 839.076 196.361 839.666 194.614C839.67 194.602 839.677 194.594 839.681 194.582C840.396 192.528 841.386 190.772 842.636 189.431C847.283 184.443 853.529 187.162 856.974 194.048C859.339 198.782 860.144 204.896 859.335 210.103L859.351 210.127C861.154 208.582 863.11 208.757 864.744 210.449C865.326 211.046 865.868 211.843 866.363 212.83C868.684 217.463 869.23 225.521 867.561 231.87Z" fill="#FFA9C0" fill-opacity="0.11"/>
<path opacity="0.78" d="M1011.23 368.308C1010.13 369.482 1008.91 370.433 1007.64 371.154C1007.63 371.158 1007.63 371.162 1007.62 371.17C996.343 377.444 984.357 374.573 981.195 373.638L981.175 373.622C980.178 370.772 977.196 360.669 980.779 350.036C981.148 348.945 981.584 347.846 982.099 346.752C982.103 346.744 982.111 346.732 982.111 346.732C982.751 345.398 983.619 344.112 984.711 342.938C989.311 338.002 996.127 336.959 999.937 340.605C1002.79 343.336 1003.14 347.926 1001.21 352.13L1001.23 352.146C1004.17 350.541 1007.38 350.159 1010.01 351.131C1010.98 351.489 1011.88 352.038 1012.65 352.775C1016.47 356.413 1015.83 363.372 1011.23 368.308Z" fill="#FFA9C0" fill-opacity="0.11"/>
<path opacity="0.78" d="M906.677 128.998C905.907 130.101 905.004 131.024 904.01 131.761C904.01 131.761 904.002 131.769 903.994 131.777C894.221 138.89 881.905 136.757 878.444 135.953L878.425 135.937C877.525 132.8 875.113 122.267 879.627 112.538C880.051 111.626 880.534 110.726 881.084 109.847L881.096 109.831C881.764 108.788 882.624 107.816 883.665 106.976C887.79 103.652 893.321 103.529 896.354 106.435C898.628 108.613 899.088 112.04 897.732 115.225L897.748 115.237C899.999 114.094 902.427 113.939 904.442 114.783C905.181 115.093 905.872 115.539 906.489 116.128C909.525 119.034 909.722 124.635 906.677 128.998Z" fill="#FFA9C0" fill-opacity="0.11"/>
<path opacity="0.78" d="M989.068 213.288C987.764 214.689 986.212 215.736 984.519 216.432C984.507 216.436 984.503 216.444 984.491 216.448C969.493 222.463 951.022 215.051 946.103 212.838L946.072 212.814C943.841 208.419 936.762 192.986 939.244 178.579C939.5 177.098 939.853 175.629 940.329 174.184C940.333 174.176 940.341 174.168 940.341 174.156C940.934 172.401 941.877 170.777 943.181 169.371C948.673 163.48 958.47 163.822 965.062 170.132C970 174.861 971.736 181.593 969.988 187.15L970.019 187.178C973.94 185.657 978.583 185.975 982.727 188.097C984.263 188.881 985.733 189.916 987.068 191.194C993.664 197.504 994.56 207.396 989.068 213.288Z" fill="#FFA9C0" fill-opacity="0.11"/>
<path opacity="0.78" d="M1096.74 118.712C1097.92 120.348 1098.76 122.119 1099.28 123.927C1099.28 123.939 1099.29 123.947 1099.29 123.955C1103.73 139.937 1095.81 155.522 1093.49 159.603L1093.46 159.622C1089.34 160.534 1074.93 163.022 1062.09 156.661C1060.77 156.008 1059.46 155.26 1058.18 154.408C1058.18 154.404 1058.17 154.396 1058.16 154.388C1056.62 153.337 1055.21 151.987 1054.03 150.351C1049.07 143.476 1050.03 134.217 1056.17 129.671C1060.77 126.263 1066.96 126.474 1071.87 129.679L1071.89 129.659C1070.77 125.495 1071.37 121.148 1073.56 117.78C1074.37 116.53 1075.4 115.416 1076.65 114.492C1082.78 109.95 1091.78 111.837 1096.74 118.712Z" fill="#FFA9C0" fill-opacity="0.11"/>
<path opacity="0.78" d="M1008.21 256.232C1008.88 257.16 1009.31 258.203 1009.53 259.294C1009.53 259.302 1009.53 259.31 1009.53 259.31C1011.3 268.955 1004.77 279.321 1002.89 282.056L1002.87 282.072C1000.02 282.967 990.107 285.65 981.925 282.685C981.084 282.378 980.263 282.016 979.465 281.582C979.465 281.582 979.458 281.574 979.45 281.57C978.487 281.033 977.643 280.3 976.971 279.369C974.15 275.46 975.506 269.596 979.992 266.272C983.354 263.78 987.519 263.426 990.583 265.046L990.602 265.03C990.17 262.514 990.905 259.751 992.637 257.47C993.277 256.626 994.059 255.846 994.971 255.174C999.465 251.85 1005.39 252.323 1008.21 256.232Z" fill="#FFA9C0" fill-opacity="0.11"/>
<path opacity="0.78" d="M1142.01 212.368C1142.67 213.28 1143.16 214.279 1143.5 215.318C1143.5 215.326 1143.51 215.334 1143.51 215.334C1146.73 225.6 1142.43 236.289 1141.05 239.262L1141.03 239.274C1138.46 239.406 1129.99 239.294 1123.73 233.108C1123.15 232.531 1122.59 231.906 1122.06 231.221L1122.05 231.205C1121.42 230.381 1120.9 229.406 1120.51 228.291C1118.98 223.904 1120.14 218.956 1122.96 216.866C1125.07 215.298 1127.71 215.6 1129.77 217.467L1129.78 217.455C1129.43 215.214 1129.85 213.029 1130.93 211.421C1131.32 210.827 1131.8 210.31 1132.38 209.884C1135.2 207.798 1139.41 208.769 1142.01 212.368Z" fill="#FFA9C0" fill-opacity="0.11"/>
<path opacity="0.78" d="M1182.62 616.518C1182.36 618.529 1181.78 620.4 1180.93 622.079C1180.93 622.091 1180.92 622.099 1180.92 622.111C1173.32 636.82 1157 642.636 1152.54 643.99L1152.51 643.986C1148.9 641.784 1136.74 633.564 1131.71 619.993C1131.19 618.6 1130.75 617.151 1130.4 615.642C1130.4 615.634 1130.4 615.623 1130.4 615.611C1129.99 613.771 1129.88 611.809 1130.13 609.799C1131.18 601.351 1138.15 595.285 1145.69 596.252C1151.34 596.976 1155.71 601.443 1157.1 607.183L1157.13 607.187C1159.14 603.386 1162.52 600.639 1166.4 599.715C1167.83 599.369 1169.34 599.277 1170.87 599.472C1178.41 600.436 1183.67 608.067 1182.62 616.518Z" fill="#FFA9C0" fill-opacity="0.11"/>
<path opacity="0.78" d="M571.206 83.5773C571.682 84.6243 571.902 85.7309 571.894 86.8416C571.894 86.8495 571.898 86.8535 571.898 86.8615C571.741 96.6702 563.299 105.512 560.918 107.808L560.898 107.82C557.932 108.123 547.691 108.752 540.255 104.194C539.493 103.724 538.758 103.203 538.063 102.617L538.051 102.606C537.214 101.885 536.527 100.997 536.052 99.9503C534.056 95.5515 536.535 90.078 541.587 87.7253C545.37 85.9618 549.526 86.4554 552.209 88.6608L552.228 88.6488C552.299 86.0932 553.56 83.5335 555.709 81.6546C556.507 80.954 557.422 80.3529 558.447 79.8752C563.499 77.5185 569.211 79.1785 571.206 83.5773Z" fill="#FFA9C0" fill-opacity="0.11"/>
<path opacity="0.78" d="M734.972 129.902C735.385 131.63 735.526 133.385 735.428 135.089C735.428 135.101 735.428 135.109 735.428 135.117C734.454 150.128 724.829 161.517 722.131 164.431L722.107 164.443C718.953 164.141 708.106 162.473 700.643 153.564C699.877 152.648 699.146 151.657 698.462 150.582C698.458 150.574 698.454 150.566 698.45 150.558C697.629 149.237 696.977 147.696 696.565 145.968C694.825 138.707 697.889 130.945 703.408 128.636C707.545 126.904 711.882 128.728 714.529 132.804L714.553 132.792C714.839 128.891 716.379 125.288 718.799 122.955C719.695 122.088 720.712 121.395 721.832 120.929C727.347 118.62 733.232 122.637 734.972 129.902Z" fill="#FFA9C0" fill-opacity="0.11"/>
<path opacity="0.78" d="M664.843 115.579C665.118 116.733 665.212 117.88 665.141 118.967C665.141 118.975 665.141 118.979 665.141 118.987C664.446 128.552 657.897 134.898 656.059 136.502L656.043 136.506C653.906 135.989 646.556 133.807 641.516 127.306C640.998 126.638 640.507 125.925 640.043 125.165L640.035 125.149C639.481 124.213 639.041 123.154 638.766 122C637.604 117.147 639.697 112.462 643.445 111.542C646.254 110.85 649.188 112.47 650.976 115.364L650.992 115.36C651.192 112.876 652.245 110.714 653.891 109.46C654.499 108.995 655.191 108.652 655.953 108.465C659.701 107.538 663.68 110.726 664.843 115.579Z" fill="#FFA9C0" fill-opacity="0.11"/>
<path opacity="0.78" d="M313.537 101.586C313.898 102.51 314.102 103.445 314.15 104.361L314.153 104.377C314.574 113.338 308.34 120.189 306.462 122.032L306.446 122.036C304.175 121.343 296.794 118.628 292.673 111.913C292.288 111.28 291.931 110.619 291.62 109.922L291.617 109.91C291.247 109.074 291.004 108.147 290.906 107.16C290.532 103.246 292.673 99.7393 295.659 99.0069C297.894 98.4575 300.169 99.5443 301.567 101.666L301.579 101.662C301.783 99.7951 302.663 98.2147 303.983 97.2951C304.466 96.9568 305.016 96.702 305.621 96.5547C308.607 95.8182 312.099 97.936 313.537 101.586Z" fill="#FFA9C0" fill-opacity="0.11"/>
<path opacity="0.78" d="M409.846 128.592C410.176 129.97 410.192 131.359 409.94 132.7C409.94 132.708 409.94 132.716 409.94 132.724C407.599 144.515 395.681 153.102 392.365 155.291L392.338 155.299C388.767 154.933 376.53 153.182 368.748 145.853C367.95 145.101 367.196 144.288 366.505 143.413C366.505 143.413 366.497 143.401 366.493 143.393C365.664 142.318 365.047 141.08 364.717 139.699C363.331 133.907 367.459 127.911 373.945 126.315C378.804 125.121 383.601 126.733 386.288 130.049L386.315 130.041C386.96 126.98 389.014 124.201 391.964 122.462C393.06 121.813 394.278 121.311 395.59 120.989C402.072 119.393 408.456 122.796 409.846 128.592Z" fill="#FFA9C0" fill-opacity="0.11"/>
<path d="M1388.77 891.842C1387.52 893.184 1386.09 894.239 1384.58 895.011C1384.57 895.015 1384.56 895.023 1384.56 895.027C1371.17 901.702 1356.09 897.093 1352.1 895.656L1352.07 895.636C1350.58 892.049 1346.01 879.382 1349.5 866.671C1349.86 865.366 1350.3 864.06 1350.84 862.762C1350.85 862.754 1350.86 862.746 1350.86 862.738C1351.53 861.162 1352.49 859.661 1353.74 858.32C1358.99 852.683 1367.33 852.018 1372.37 856.839C1376.14 860.449 1376.98 866.106 1374.96 871.09L1374.98 871.11C1378.48 869.41 1382.41 869.231 1385.75 870.66C1386.99 871.19 1388.14 871.942 1389.16 872.917C1394.2 877.73 1394.02 886.205 1388.77 891.842Z" fill="#FFA9C0" fill-opacity="0.11"/>
<path d="M1209.32 601.881C1210.25 603.991 1210.85 606.2 1211.13 608.406C1211.13 608.417 1211.13 608.429 1211.13 608.441C1213.44 627.876 1203.83 644.778 1201.07 649.165L1201.05 649.185C1196.94 649.567 1182.67 650.072 1171.02 640.495C1169.82 639.511 1168.65 638.421 1167.52 637.211C1167.51 637.203 1167.51 637.191 1167.5 637.183C1166.13 635.694 1164.94 633.883 1164 631.773C1160.05 622.908 1162.14 612.239 1168.64 607.944C1173.52 604.727 1179.5 606.001 1183.85 610.571L1183.88 610.551C1183.32 605.492 1184.44 600.512 1186.98 596.937C1187.92 595.611 1189.06 594.477 1190.38 593.609C1196.89 589.314 1205.37 593.016 1209.32 601.881Z" fill="#FFA9C0" fill-opacity="0.11"/>
<path d="M1118.19 755.229C1117.94 757.287 1117.36 759.262 1116.51 761.073C1116.51 761.085 1116.5 761.093 1116.5 761.105C1108.03 778.947 1088.96 787.712 1083.43 789.926H1083.39C1079.79 786.813 1068.61 775.83 1067.95 759.568C1067.89 758.051 1067.92 756.499 1068.06 754.911C1068.06 754.899 1068.07 754.891 1068.07 754.879C1068.26 752.98 1068.78 751.002 1069.64 749.019C1073.06 741.201 1080.76 736.07 1087.14 736.886C1091.91 737.499 1095.06 741.272 1095.49 746.404H1095.52C1097.84 742.968 1101.13 740.584 1104.57 739.804C1105.83 739.517 1107.12 739.441 1108.41 739.604C1114.79 740.421 1119.21 747.1 1118.19 755.229Z" fill="#FFA9C0" fill-opacity="0.11"/>
<path d="M1265.6 491.888C1265.41 493.42 1265 494.857 1264.42 496.143C1264.41 496.151 1264.41 496.159 1264.41 496.167C1259.19 507.472 1248.33 512.114 1245.36 513.201H1245.34C1242.98 511.569 1235.04 505.466 1231.88 495.196C1231.56 494.141 1231.29 493.042 1231.07 491.899C1231.07 491.892 1231.07 491.884 1231.07 491.876C1230.83 490.478 1230.78 488.986 1230.97 487.453C1231.77 481.004 1236.46 476.291 1241.44 476.928C1245.17 477.405 1248 480.749 1248.85 485.108H1248.87C1250.24 482.182 1252.51 480.049 1255.09 479.296C1256.04 479.014 1257.04 478.926 1258.05 479.053C1263.02 479.694 1266.41 485.439 1265.6 491.888Z" fill="#FFA9C0" fill-opacity="0.11"/>
<path d="M1162.04 384.744C1161.81 386.576 1161.19 388.271 1160.28 389.784C1160.27 389.792 1160.27 389.8 1160.26 389.812C1152.03 403.048 1133.61 407.897 1128.58 409.003L1128.54 408.999C1124.37 406.878 1110.29 399.004 1104.17 386.444C1103.55 385.154 1103 383.813 1102.56 382.428C1102.56 382.42 1102.56 382.408 1102.56 382.4C1102.04 380.704 1101.86 378.909 1102.09 377.073C1103.04 369.379 1110.81 364.028 1119.42 365.131C1125.88 365.959 1130.97 370.171 1132.72 375.465L1132.76 375.469C1134.95 372.046 1138.71 369.637 1143.1 368.901C1144.72 368.626 1146.43 368.586 1148.18 368.809C1156.79 369.912 1163 377.046 1162.04 384.744Z" fill="#FFA9C0" fill-opacity="0.11"/>
<path d="M1130.93 229.398C1129.06 231.404 1126.93 233.072 1124.65 234.382C1124.64 234.39 1124.63 234.398 1124.62 234.41C1104.51 245.811 1081.74 242.73 1075.71 241.635L1075.68 241.615C1073.4 237.2 1066.38 221.48 1071.52 204.1C1072.05 202.316 1072.7 200.513 1073.51 198.702C1073.51 198.69 1073.52 198.678 1073.53 198.67C1074.53 196.469 1075.96 194.311 1077.83 192.301C1085.69 183.869 1098.25 181.354 1105.88 186.684C1111.6 190.677 1112.92 197.942 1109.92 204.876L1109.96 204.896C1115.21 201.974 1121.14 200.967 1126.18 202.185C1128.05 202.635 1129.8 203.395 1131.35 204.474C1138.98 209.804 1138.79 220.967 1130.93 229.398Z" fill="#FFA9C0" fill-opacity="0.11"/>
<path d="M1246.48 329.077C1245.23 330.419 1243.83 331.505 1242.38 332.329C1242.37 332.333 1242.36 332.341 1242.35 332.345C1229.48 339.511 1215.79 336.23 1212.18 335.164L1212.16 335.148C1211.01 331.891 1207.61 320.351 1211.7 308.21C1212.12 306.964 1212.62 305.71 1213.21 304.456C1213.22 304.448 1213.22 304.44 1213.22 304.432C1213.95 302.911 1214.94 301.438 1216.2 300.097C1221.45 294.46 1229.24 293.266 1233.59 297.43C1236.85 300.551 1237.25 305.789 1235.04 310.59L1235.06 310.606C1238.42 308.775 1242.09 308.337 1245.09 309.448C1246.21 309.858 1247.23 310.483 1248.11 311.327C1252.46 315.495 1251.73 323.44 1246.48 329.077Z" fill="#FFA9C0" fill-opacity="0.11"/>
<path d="M1127.06 55.7396C1126.18 56.9975 1125.14 58.0564 1124.01 58.8924C1124 58.8964 1124 58.9043 1123.99 58.9083C1112.83 67.0331 1098.76 64.5969 1094.81 63.6773L1094.79 63.6614C1093.76 60.0787 1091.01 48.0487 1096.16 36.9343C1096.64 35.8914 1097.2 34.8643 1097.83 33.8612C1097.83 33.8532 1097.84 33.8492 1097.84 33.8413C1098.6 32.647 1099.59 31.5404 1100.78 30.581C1105.49 26.7833 1111.8 26.644 1115.27 29.964C1117.87 32.448 1118.39 36.3651 1116.84 40.0035L1116.86 40.0155C1119.43 38.7098 1122.2 38.5306 1124.5 39.498C1125.35 39.8523 1126.14 40.3618 1126.84 41.0345C1130.31 44.3625 1130.53 50.7596 1127.06 55.7396Z" fill="#FFA9C0" fill-opacity="0.11"/>
<path d="M1221.17 152.015C1219.68 153.615 1217.91 154.81 1215.98 155.61C1215.96 155.614 1215.96 155.622 1215.94 155.626C1198.81 162.497 1177.71 154.029 1172.1 151.502L1172.06 151.474C1169.52 146.454 1161.43 128.827 1164.27 112.37C1164.56 110.683 1164.97 109.003 1165.5 107.351C1165.51 107.339 1165.52 107.331 1165.52 107.319C1166.2 105.316 1167.27 103.457 1168.77 101.853C1175.03 95.1256 1186.23 95.5118 1193.76 102.721C1199.4 108.123 1201.38 115.814 1199.39 122.159L1199.42 122.187C1203.9 120.451 1209.2 120.814 1213.93 123.234C1215.69 124.13 1217.36 125.312 1218.89 126.773C1226.43 133.986 1227.45 145.288 1221.17 152.015Z" fill="#FFA9C0" fill-opacity="0.11"/>
<path d="M1344.15 43.9923C1345.5 45.8593 1346.46 47.8815 1347.05 49.9476C1347.06 49.9595 1347.07 49.9675 1347.07 49.9794C1352.14 68.2354 1343.09 86.0335 1340.44 90.695L1340.41 90.7189C1335.71 91.7619 1319.25 94.6002 1304.57 87.3352C1303.06 86.5868 1301.57 85.7349 1300.11 84.7636C1300.11 84.7557 1300.1 84.7477 1300.09 84.7437C1298.32 83.5415 1296.71 82.0009 1295.37 80.1339C1289.7 72.2838 1290.79 61.7068 1297.8 56.5119C1303.06 52.6227 1310.14 52.8615 1315.74 56.5239L1315.77 56.5C1314.49 51.7429 1315.17 46.7789 1317.67 42.9334C1318.6 41.5043 1319.78 40.2344 1321.2 39.1795C1328.21 33.9846 1338.49 36.1382 1344.15 43.9923Z" fill="#FFA9C0" fill-opacity="0.11"/>
<path d="M1243.03 201.067C1243.8 202.129 1244.29 203.316 1244.53 204.562C1244.53 204.57 1244.54 204.574 1244.54 204.582C1246.57 215.6 1239.1 227.435 1236.95 230.56L1236.93 230.576C1233.68 231.599 1222.36 234.664 1213.01 231.273C1212.06 230.923 1211.11 230.509 1210.21 230.015C1210.2 230.011 1210.19 230.003 1210.19 230.003C1209.09 229.39 1208.12 228.554 1207.36 227.491C1204.14 223.029 1205.68 216.329 1210.81 212.531C1214.65 209.685 1219.41 209.279 1222.91 211.13L1222.93 211.114C1222.43 208.24 1223.27 205.083 1225.26 202.48C1225.99 201.512 1226.88 200.625 1227.92 199.856C1233.05 196.059 1239.81 196.6 1243.03 201.067Z" fill="#FFA9C0" fill-opacity="0.11"/>
<path d="M1395.85 150.964C1396.6 152.007 1397.17 153.15 1397.55 154.332C1397.56 154.34 1397.56 154.344 1397.56 154.352C1401.25 166.075 1396.32 178.284 1394.76 181.68L1394.74 181.696C1391.8 181.847 1382.12 181.716 1374.97 174.654C1374.31 173.993 1373.67 173.277 1373.06 172.5L1373.05 172.484C1372.34 171.545 1371.74 170.43 1371.3 169.156C1369.55 164.145 1370.87 158.496 1374.09 156.107C1376.51 154.316 1379.52 154.662 1381.88 156.796L1381.89 156.784C1381.49 154.228 1381.98 151.729 1383.2 149.889C1383.65 149.213 1384.2 148.62 1384.86 148.134C1388.08 145.745 1392.89 146.852 1395.85 150.964Z" fill="#FFA9C0" fill-opacity="0.11"/>
<path d="M1461.98 92.5222C1460.08 93.812 1458.08 94.7475 1456.07 95.3486C1456.06 95.3525 1456.05 95.3565 1456.04 95.3605C1438.32 100.508 1422.48 92.6456 1418.35 90.3208L1418.33 90.2929C1417.83 85.9897 1416.82 70.9144 1425.16 57.2165C1426.01 55.8113 1426.97 54.414 1428.03 53.0486C1428.04 53.0406 1428.05 53.0327 1428.06 53.0247C1429.37 51.3687 1430.98 49.848 1432.88 48.5583C1440.85 43.1404 1450.7 43.8689 1454.88 50.1864C1458.01 54.9196 1457.07 61.4441 1453.06 66.6948L1453.08 66.7226C1457.69 65.4289 1462.29 65.9225 1465.66 68.1239C1466.91 68.9399 1467.99 69.9909 1468.84 71.2687C1473.02 77.5902 1469.95 87.1043 1461.98 92.5222Z" fill="#FFA9C0" fill-opacity="0.11"/>
<path d="M1447.51 226.783C1448.75 228.068 1449.73 229.497 1450.44 230.99C1450.44 230.998 1450.45 231.006 1450.45 231.014C1457.29 245.715 1451.55 261.555 1449.67 265.958L1449.65 265.977C1445.37 266.415 1431.16 267.064 1419.67 258.716C1418.59 257.932 1417.55 257.072 1416.54 256.133C1416.54 256.125 1416.53 256.117 1416.53 256.113C1415.33 254.974 1414.29 253.597 1413.46 252.009C1410.15 245.727 1411.34 238.351 1415.83 235.023C1419.2 232.531 1423.74 232.75 1427.53 235.321L1427.55 235.305C1426.62 232.037 1427.01 228.777 1428.59 226.309C1429.17 225.401 1429.91 224.593 1430.82 223.916C1435.31 220.592 1442.61 221.687 1447.51 226.783Z" fill="#FFA9C0" fill-opacity="0.11"/>
<path d="M1442.24 612.577C1441.95 614.874 1441.28 617.012 1440.31 618.927C1440.31 618.939 1440.3 618.951 1440.3 618.963C1431.61 635.766 1412.98 642.41 1407.89 643.95L1407.85 643.946C1403.72 641.43 1389.84 632.04 1384.09 616.546C1383.5 614.954 1382.99 613.298 1382.59 611.578C1382.59 611.566 1382.59 611.554 1382.59 611.542C1382.12 609.441 1382 607.203 1382.28 604.906C1383.49 595.261 1391.45 588.33 1400.06 589.433C1406.52 590.261 1411.5 595.36 1413.09 601.921L1413.13 601.925C1415.43 597.582 1419.28 594.445 1423.71 593.39C1425.35 592.996 1427.07 592.888 1428.81 593.115C1437.43 594.214 1443.44 602.928 1442.24 612.577Z" fill="#FFA9C0" fill-opacity="0.11"/>
<path opacity="0.78" d="M1151.83 184.391C1151.83 185.601 1151.65 186.752 1151.32 187.81C1151.32 187.818 1151.32 187.822 1151.32 187.83C1148.37 197.118 1140.39 201.799 1138.19 202.933H1138.17C1136.19 201.902 1129.44 197.957 1126 190.306C1125.64 189.522 1125.32 188.694 1125.05 187.83L1125.05 187.814C1124.72 186.756 1124.54 185.605 1124.54 184.395C1124.54 179.315 1127.72 175.195 1131.64 175.195C1134.58 175.195 1137.09 177.508 1138.17 180.804H1138.19C1138.98 178.4 1140.53 176.521 1142.46 175.677C1143.17 175.363 1143.93 175.195 1144.73 175.195C1148.65 175.191 1151.83 179.311 1151.83 184.391Z" fill="#FFA9C0" fill-opacity="0.11"/>
<path opacity="0.78" d="M1287.8 375.218C1286.71 376.393 1285.46 377.316 1284.14 377.993C1284.13 377.997 1284.13 378.001 1284.12 378.009C1272.4 383.853 1259.19 379.816 1255.7 378.562L1255.68 378.546C1254.38 375.405 1250.37 364.319 1253.43 353.189C1253.74 352.046 1254.13 350.9 1254.61 349.765C1254.61 349.757 1254.62 349.753 1254.62 349.745C1255.21 348.364 1256.05 347.05 1257.15 345.876C1261.75 340.94 1269.05 340.359 1273.45 344.578C1276.75 347.739 1277.49 352.695 1275.72 357.054L1275.74 357.07C1278.8 355.581 1282.25 355.426 1285.17 356.676C1286.25 357.138 1287.27 357.798 1288.16 358.65C1292.56 362.862 1292.4 370.282 1287.8 375.218Z" fill="#FFA9C0" fill-opacity="0.11"/>
<path opacity="0.78" d="M1192.63 563.797C1191.42 565.094 1190.03 566.177 1188.57 567.025C1188.56 567.029 1188.55 567.037 1188.54 567.041C1175.52 574.425 1160.77 572.431 1156.87 571.722L1156.84 571.71C1155.37 568.852 1150.82 558.669 1154.15 547.412C1154.49 546.257 1154.92 545.087 1155.44 543.917C1155.44 543.909 1155.45 543.901 1155.45 543.893C1156.1 542.467 1157.03 541.066 1158.23 539.769C1163.33 534.307 1171.46 532.679 1176.4 536.13C1180.11 538.718 1180.96 543.423 1179.02 547.913L1179.04 547.925C1182.45 546.034 1186.29 545.377 1189.55 546.17C1190.77 546.46 1191.9 546.954 1192.9 547.65C1197.84 551.106 1197.72 558.335 1192.63 563.797Z" fill="#FFA9C0" fill-opacity="0.11"/>
<path opacity="0.78" d="M1150.84 480.769C1150.41 482.413 1149.87 483.838 1149.23 485.021C1149.23 485.029 1149.23 485.037 1149.22 485.045C1142.35 497.711 1129.62 498.181 1125.13 497.954L1125.1 497.93C1123.2 492.106 1117 470.117 1121.46 449.018C1121.87 447.108 1122.36 445.26 1122.95 443.513C1122.96 443.501 1122.96 443.493 1122.97 443.481C1123.68 441.427 1124.67 439.671 1125.92 438.33C1130.57 433.342 1136.82 436.061 1140.26 442.948C1142.63 447.681 1143.43 453.795 1142.62 458.998L1142.64 459.022C1144.44 457.477 1146.4 457.653 1148.03 459.344C1148.61 459.942 1149.15 460.738 1149.65 461.725C1151.97 466.363 1152.52 474.42 1150.84 480.769Z" fill="#FFA9C0" fill-opacity="0.11"/>
<path opacity="0.78" d="M1301.1 643.23C1300 644.404 1298.78 645.355 1297.51 646.076C1297.5 646.08 1297.49 646.088 1297.49 646.092C1286.21 652.365 1274.23 649.495 1271.06 648.56L1271.05 648.544C1270.05 645.694 1267.07 635.59 1270.65 624.958C1271.02 623.867 1271.46 622.768 1271.97 621.674C1271.98 621.666 1271.98 621.662 1271.98 621.654C1272.62 620.32 1273.49 619.034 1274.58 617.86C1279.18 612.924 1286 611.881 1289.81 615.527C1292.66 618.258 1293.02 622.848 1291.08 627.052L1291.1 627.067C1294.04 625.463 1297.25 625.081 1299.88 626.052C1300.86 626.411 1301.75 626.956 1302.53 627.696C1306.34 631.335 1305.7 638.293 1301.1 643.23Z" fill="#FFA9C0" fill-opacity="0.11"/>
<path opacity="0.78" d="M1196.55 403.92C1195.78 405.023 1194.87 405.946 1193.88 406.683C1193.88 406.687 1193.87 406.698 1193.87 406.698C1184.09 413.812 1171.78 411.678 1168.32 410.874L1168.3 410.858C1167.4 407.722 1164.99 397.188 1169.5 387.459C1169.93 386.548 1170.41 385.648 1170.96 384.772L1170.97 384.756C1171.64 383.713 1172.5 382.742 1173.54 381.902C1177.66 378.578 1183.2 378.455 1186.23 381.361C1188.5 383.538 1188.96 386.966 1187.6 390.15L1187.62 390.162C1189.87 389.02 1192.3 388.865 1194.31 389.708C1195.05 390.019 1195.74 390.465 1196.36 391.054C1199.39 393.956 1199.59 399.557 1196.55 403.92Z" fill="#FFA9C0" fill-opacity="0.11"/>
<path opacity="0.78" d="M1248.7 758.127C1247.39 759.528 1245.84 760.575 1244.15 761.272C1244.14 761.276 1244.14 761.284 1244.12 761.288C1229.13 767.303 1210.65 759.891 1205.74 757.677L1205.71 757.653C1203.48 753.259 1196.4 737.825 1198.88 723.419C1199.14 721.938 1199.49 720.469 1199.97 719.024C1199.97 719.016 1199.98 719.008 1199.98 718.996C1200.57 717.244 1201.51 715.616 1202.82 714.211C1208.31 708.32 1218.11 708.662 1224.7 714.971C1229.64 719.701 1231.37 726.436 1229.62 731.989L1229.65 732.013C1233.58 730.493 1238.22 730.811 1242.36 732.933C1243.9 733.717 1245.37 734.752 1246.7 736.03C1253.3 742.343 1254.19 752.236 1248.7 758.127Z" fill="#FFA9C0" fill-opacity="0.11"/>
<path opacity="0.78" d="M1275.67 101.419C1274.36 102.821 1272.81 103.867 1271.12 104.564C1271.11 104.568 1271.1 104.576 1271.09 104.58C1256.09 110.595 1237.62 103.183 1232.7 100.969L1232.67 100.946C1230.44 96.5508 1223.36 81.1172 1225.85 66.7107C1226.1 65.2299 1226.46 63.761 1226.93 62.3159C1226.93 62.308 1226.94 62.3 1226.94 62.2881C1227.54 60.5325 1228.47 58.9084 1229.78 57.5031C1235.27 51.6116 1245.07 51.9539 1251.66 58.2635C1256.6 62.9927 1258.34 69.7282 1256.59 75.2814L1256.62 75.3053C1260.54 73.7846 1265.18 74.1031 1269.32 76.2248C1270.86 77.009 1272.33 78.0441 1273.67 79.3219C1280.27 85.6354 1281.16 95.5277 1275.67 101.419Z" fill="#FFA9C0" fill-opacity="0.11"/>
<path opacity="0.78" d="M1386.61 393.634C1387.79 395.27 1388.63 397.037 1389.15 398.848C1389.15 398.86 1389.16 398.868 1389.16 398.876C1393.61 414.859 1385.68 430.444 1383.36 434.524L1383.34 434.544C1379.22 435.456 1364.81 437.944 1351.96 431.582C1350.64 430.93 1349.33 430.181 1348.06 429.329C1348.05 429.325 1348.04 429.313 1348.03 429.309C1346.49 428.258 1345.08 426.909 1343.9 425.273C1338.94 418.402 1339.9 409.139 1346.04 404.593C1350.64 401.185 1356.84 401.396 1361.74 404.601L1361.76 404.581C1360.65 400.417 1361.24 396.07 1363.43 392.702C1364.24 391.452 1365.27 390.337 1366.52 389.418C1372.65 384.872 1381.65 386.759 1386.61 393.634Z" fill="#FFA9C0" fill-opacity="0.11"/>
<path opacity="0.78" d="M1298.09 531.154C1298.76 532.086 1299.19 533.125 1299.4 534.215C1299.4 534.223 1299.41 534.231 1299.41 534.231C1301.19 543.877 1294.65 554.243 1292.77 556.977L1292.75 556.993C1289.9 557.889 1279.99 560.572 1271.81 557.606C1270.97 557.3 1270.15 556.938 1269.35 556.504C1269.35 556.504 1269.34 556.496 1269.33 556.492C1268.37 555.954 1267.53 555.222 1266.86 554.29C1264.04 550.381 1265.39 544.518 1269.88 541.194C1273.24 538.702 1277.4 538.347 1280.47 539.968L1280.49 539.952C1280.06 537.436 1280.79 534.673 1282.52 532.392C1283.17 531.548 1283.94 530.768 1284.86 530.095C1289.34 526.771 1295.27 527.245 1298.09 531.154Z" fill="#FFA9C0" fill-opacity="0.11"/>
<path opacity="0.78" d="M1430.13 309.754C1430.31 311.167 1430.34 312.453 1430.21 313.572C1430.21 313.58 1430.21 313.584 1430.21 313.592C1428.85 325.634 1419.13 330.096 1415.57 331.366L1415.54 331.358C1412.24 327.453 1400.53 312.389 1397.38 294.587C1397.09 292.971 1396.9 291.383 1396.81 289.838C1396.81 289.83 1396.81 289.818 1396.81 289.81C1396.72 287.987 1396.94 286.303 1397.49 284.862C1399.53 279.496 1405.23 279.592 1410.06 283.827C1413.38 286.737 1415.92 291.22 1416.92 295.519L1416.94 295.531C1417.85 293.751 1419.43 293.258 1421.23 294.042C1421.86 294.321 1422.53 294.759 1423.23 295.368C1426.49 298.218 1429.44 304.293 1430.13 309.754Z" fill="#FFA9C0" fill-opacity="0.11"/>
<path opacity="0.78" d="M1431.88 487.29C1432.53 488.201 1433.03 489.2 1433.37 490.239C1433.37 490.247 1433.37 490.255 1433.37 490.255C1436.6 500.522 1432.29 511.21 1430.92 514.184L1430.9 514.196C1428.33 514.327 1419.86 514.216 1413.6 508.03C1413.01 507.452 1412.46 506.823 1411.93 506.143L1411.92 506.127C1411.29 505.307 1410.77 504.327 1410.38 503.213C1408.85 498.826 1410 493.878 1412.83 491.788C1414.94 490.219 1417.58 490.522 1419.64 492.389L1419.65 492.377C1419.3 490.136 1419.72 487.954 1420.8 486.342C1421.19 485.749 1421.67 485.232 1422.25 484.806C1425.07 482.72 1429.28 483.691 1431.88 487.29Z" fill="#FFA9C0" fill-opacity="0.11"/>
<path opacity="0.78" d="M1489.77 436.121C1488.11 437.247 1486.35 438.071 1484.6 438.597C1484.58 438.601 1484.58 438.605 1484.57 438.609C1469.06 443.115 1455.18 436.232 1451.57 434.198L1451.56 434.174C1451.12 430.408 1450.23 417.208 1457.53 405.214C1458.28 403.984 1459.12 402.762 1460.05 401.567C1460.05 401.559 1460.07 401.547 1460.07 401.547C1461.21 400.098 1462.63 398.765 1464.29 397.638C1471.27 392.897 1479.89 393.534 1483.56 399.063C1486.3 403.207 1485.47 408.916 1481.96 413.518L1481.97 413.542C1486.01 412.407 1490.04 412.841 1492.99 414.768C1494.09 415.48 1495.03 416.4 1495.77 417.522C1499.43 423.048 1496.75 431.379 1489.77 436.121Z" fill="#FFA9C0" fill-opacity="0.11"/>
<path opacity="0.78" d="M1477.1 553.67C1478.18 554.796 1479.04 556.046 1479.66 557.356C1479.67 557.364 1479.67 557.368 1479.68 557.376C1485.66 570.246 1480.63 584.115 1478.99 587.972L1478.97 587.992C1475.22 588.374 1462.79 588.943 1452.72 581.635C1451.78 580.95 1450.87 580.198 1449.99 579.37C1449.98 579.366 1449.98 579.358 1449.97 579.35C1448.93 578.35 1448.02 577.148 1447.28 575.755C1444.39 570.253 1445.43 563.797 1449.36 560.887C1452.31 558.705 1456.29 558.896 1459.61 561.149L1459.62 561.134C1458.81 558.271 1459.14 555.417 1460.53 553.256C1461.03 552.459 1461.69 551.751 1462.48 551.162C1466.42 548.248 1472.81 549.207 1477.1 553.67Z" fill="#FFA9C0" fill-opacity="0.11"/>
<path opacity="0.78" d="M1336.85 233.832C1337.33 234.879 1337.55 235.986 1337.54 237.097C1337.54 237.105 1337.54 237.109 1337.54 237.117C1337.39 246.925 1328.94 255.767 1326.56 258.068L1326.54 258.08C1323.58 258.382 1313.34 259.011 1305.9 254.453C1305.14 253.983 1304.4 253.462 1303.71 252.877L1303.7 252.865C1302.86 252.144 1302.17 251.256 1301.7 250.209C1299.7 245.811 1302.18 240.337 1307.23 237.984C1311.02 236.221 1315.17 236.715 1317.86 238.92L1317.87 238.908C1317.95 236.356 1319.21 233.797 1321.36 231.914C1322.15 231.217 1323.07 230.612 1324.09 230.134C1329.15 227.774 1334.86 229.434 1336.85 233.832Z" fill="#FFA9C0" fill-opacity="0.11"/>
<path opacity="0.78" d="M1079.12 468.126C1079.74 469.336 1080.16 470.618 1080.4 471.904C1080.4 471.912 1080.4 471.916 1080.4 471.924C1082.38 483.285 1077.26 493.547 1075.78 496.219L1075.76 496.231C1073.36 496.589 1064.98 497.353 1057.81 492.094C1057.08 491.553 1056.35 490.952 1055.65 490.275L1055.64 490.259C1054.79 489.427 1054.03 488.4 1053.41 487.19C1050.8 482.103 1051.69 475.753 1055.38 473.015C1058.15 470.96 1061.71 471.518 1064.42 474.065L1064.43 474.054C1063.94 471.096 1064.44 468.13 1065.83 465.941C1066.34 465.129 1066.97 464.424 1067.72 463.871C1071.41 461.136 1076.51 463.039 1079.12 468.126Z" fill="#FFA9C0" fill-opacity="0.11"/>
<path opacity="0.78" d="M1106.83 281.053C1106.64 282.458 1106.17 283.76 1105.45 284.918C1105.45 284.926 1105.45 284.93 1105.44 284.938C1099.05 295.073 1084.88 298.715 1081 299.543L1080.98 299.54C1077.77 297.891 1066.99 291.773 1062.35 282.096C1061.87 281.1 1061.46 280.069 1061.13 278.999C1061.13 278.991 1061.12 278.979 1061.12 278.979C1060.73 277.673 1060.6 276.292 1060.78 274.882C1061.55 268.971 1067.55 264.895 1074.16 265.782C1079.12 266.447 1083.02 269.707 1084.34 273.784L1084.36 273.788C1086.06 271.168 1088.96 269.333 1092.33 268.788C1093.58 268.585 1094.9 268.561 1096.24 268.74C1102.86 269.632 1107.6 275.141 1106.83 281.053Z" fill="#FFA9C0" fill-opacity="0.11"/>
<path opacity="0.78" d="M1244.41 277.705C1244.83 279.433 1244.97 281.188 1244.87 282.892C1244.87 282.904 1244.87 282.912 1244.87 282.92C1243.9 297.931 1234.27 309.32 1231.57 312.234L1231.55 312.246C1228.39 311.944 1217.55 310.276 1210.08 301.367C1209.32 300.451 1208.59 299.46 1207.9 298.385C1207.9 298.377 1207.9 298.369 1207.89 298.361C1207.07 297.04 1206.42 295.499 1206 293.771C1204.26 286.51 1207.33 278.748 1212.85 276.439C1216.98 274.711 1221.32 276.534 1223.97 280.607L1223.99 280.595C1224.28 276.694 1225.82 273.091 1228.24 270.758C1229.13 269.891 1230.15 269.202 1231.27 268.732C1236.79 266.427 1242.67 270.44 1244.41 277.705Z" fill="#FFA9C0" fill-opacity="0.11"/>
<path opacity="0.78" d="M1172.16 262.423C1172.99 263.35 1173.64 264.266 1174.11 265.133L1174.12 265.149C1179.08 274.528 1174.27 282.673 1172.33 285.392L1172.3 285.4C1167.99 284.257 1152.11 279.325 1141.05 268.079C1140.05 267.06 1139.12 266.013 1138.29 264.942C1138.29 264.934 1138.28 264.922 1138.28 264.922C1137.32 263.653 1136.64 262.327 1136.32 261.009C1135.15 256.105 1139.3 253.287 1144.88 253.892C1148.71 254.306 1152.76 256.252 1155.6 258.844H1155.62C1155.4 257.096 1156.29 255.942 1157.98 255.599C1158.58 255.476 1159.28 255.452 1160.08 255.54C1163.84 255.95 1168.96 258.836 1172.16 262.423Z" fill="#FFA9C0" fill-opacity="0.11"/>
<path opacity="0.78" d="M1312.62 188.455C1312.9 189.61 1312.99 190.756 1312.92 191.843C1312.92 191.851 1312.92 191.855 1312.92 191.863C1312.23 201.429 1305.68 207.774 1303.84 209.378L1303.82 209.382C1301.69 208.865 1294.34 206.683 1289.3 200.183C1288.78 199.514 1288.29 198.801 1287.82 198.041L1287.81 198.025C1287.26 197.09 1286.82 196.035 1286.55 194.876C1285.38 190.024 1287.48 185.338 1291.22 184.415C1294.03 183.722 1296.97 185.342 1298.76 188.236L1298.77 188.232C1298.97 185.748 1300.02 183.587 1301.67 182.333C1302.28 181.867 1302.97 181.525 1303.73 181.338C1307.48 180.414 1311.46 183.599 1312.62 188.455Z" fill="#FFA9C0" fill-opacity="0.11"/>
<path opacity="0.78" d="M1415.08 204.709C1415.08 205.919 1414.9 207.07 1414.57 208.128C1414.57 208.136 1414.57 208.14 1414.57 208.148C1411.61 217.436 1403.64 222.117 1401.44 223.252H1401.43C1399.44 222.22 1392.69 218.276 1389.25 210.624C1388.9 209.84 1388.58 209.012 1388.3 208.148L1388.3 208.132C1387.97 207.074 1387.79 205.923 1387.79 204.713C1387.79 199.633 1390.97 195.513 1394.89 195.513C1397.83 195.513 1400.35 197.826 1401.43 201.122H1401.44C1402.23 198.718 1403.79 196.839 1405.71 195.995C1406.42 195.681 1407.18 195.513 1407.98 195.513C1411.91 195.505 1415.08 199.625 1415.08 204.709Z" fill="#FFA9C0" fill-opacity="0.11"/>
<path opacity="0.78" d="M1370.68 95.2012C1371.15 96.2482 1371.37 97.3548 1371.36 98.4655C1371.36 98.4734 1371.37 98.4774 1371.37 98.4854C1371.21 108.294 1362.77 117.135 1360.39 119.432L1360.37 119.444C1357.41 119.747 1347.16 120.376 1339.73 115.818C1338.97 115.348 1338.23 114.827 1337.54 114.241L1337.52 114.229C1336.69 113.509 1336 112.621 1335.52 111.574C1333.53 107.175 1336.01 101.702 1341.06 99.3492C1344.84 97.5857 1349 98.0793 1351.68 100.285L1351.7 100.273C1351.77 97.7171 1353.03 95.1574 1355.18 93.2785C1355.98 92.5819 1356.89 91.9768 1357.92 91.4991C1362.97 89.1425 1368.68 90.8024 1370.68 95.2012Z" fill="#FFA9C0" fill-opacity="0.11"/>
<path opacity="0.78" d="M1464.31 127.203C1464.59 128.357 1464.68 129.504 1464.61 130.591C1464.61 130.599 1464.61 130.602 1464.61 130.61C1463.91 140.176 1457.36 146.522 1455.53 148.126L1455.51 148.13C1453.38 147.612 1446.03 145.431 1440.99 138.93C1440.47 138.262 1439.98 137.549 1439.51 136.789L1439.5 136.773C1438.95 135.837 1438.51 134.778 1438.24 133.624C1437.07 128.771 1439.17 124.086 1442.91 123.162C1445.72 122.47 1448.66 124.09 1450.44 126.984L1450.46 126.98C1450.66 124.496 1451.71 122.334 1453.36 121.08C1453.97 120.615 1454.66 120.272 1455.42 120.085C1459.17 119.162 1463.15 122.35 1464.31 127.203Z" fill="#FFA9C0" fill-opacity="0.11"/>
<path opacity="0.78" d="M1209.32 140.216C1209.65 141.593 1209.67 142.983 1209.42 144.324C1209.42 144.332 1209.42 144.34 1209.42 144.348C1207.07 156.139 1195.16 164.726 1191.84 166.915L1191.81 166.923C1188.24 166.557 1176 164.805 1168.22 157.481C1167.42 156.728 1166.67 155.916 1165.98 155.04C1165.98 155.04 1165.97 155.029 1165.97 155.021C1165.14 153.946 1164.52 152.708 1164.19 151.326C1162.8 145.53 1166.93 139.539 1173.42 137.943C1178.28 136.749 1183.07 138.361 1185.76 141.677L1185.79 141.669C1186.43 138.608 1188.49 135.829 1191.44 134.09C1192.53 133.441 1193.75 132.939 1195.06 132.613C1201.55 131.016 1207.93 134.42 1209.32 140.216Z" fill="#FFA9C0" fill-opacity="0.11"/>
</svg>
