<svg width="760" height="491" viewBox="0 0 760 491" fill="none" xmlns="http://www.w3.org/2000/svg">
<path d="M299.283 446.145C298.65 446.824 297.927 447.359 297.161 447.751C297.157 447.753 297.153 447.757 297.149 447.759C290.362 451.142 282.72 448.806 280.697 448.077L280.685 448.067C279.931 446.249 277.611 439.83 279.381 433.388C279.562 432.726 279.787 432.064 280.062 431.406C280.064 431.402 280.068 431.398 280.068 431.394C280.411 430.595 280.896 429.835 281.53 429.155C284.192 426.298 288.42 425.961 290.971 428.404C292.882 430.234 293.308 433.101 292.283 435.627L292.295 435.637C294.067 434.776 296.062 434.685 297.754 435.409C298.381 435.677 298.967 436.059 299.484 436.553C302.037 438.992 301.947 443.288 299.283 446.145Z" fill="white" fill-opacity="0.1"/>
<path d="M26.3221 343.888C26.4236 344.782 26.3858 345.672 26.2305 346.521C26.2305 346.527 26.2305 346.531 26.2285 346.535C24.8149 354.006 19.284 359.113 17.7489 360.406L17.737 360.41C16.1741 360.059 10.8323 358.536 7.63477 353.593C7.30626 353.084 6.99963 352.542 6.72289 351.959C6.7209 351.955 6.72093 351.951 6.71894 351.946C6.38644 351.232 6.15546 350.417 6.05392 349.523C5.62785 345.769 7.6427 342.069 10.5555 341.257C12.7376 340.65 14.8023 341.841 15.8794 344.052L15.8914 344.048C16.2736 342.109 17.2691 340.398 18.627 339.379C19.1307 339 19.6842 338.717 20.2735 338.554C23.1903 337.745 25.896 340.134 26.3221 343.888Z" fill="white" fill-opacity="0.1"/>
<path d="M41.3876 193.449C40.426 194.102 39.4126 194.577 38.3952 194.881C38.3892 194.883 38.3852 194.887 38.3792 194.889C29.4019 197.498 21.3683 193.513 19.2798 192.335L19.2698 192.321C19.013 190.14 18.5033 182.499 22.7261 175.555C23.1602 174.843 23.644 174.137 24.1835 173.443C24.1875 173.439 24.1915 173.435 24.1955 173.431C24.8605 172.591 25.6788 171.821 26.6404 171.167C30.6801 168.421 35.6735 168.79 37.7919 171.992C39.3787 174.391 38.9009 177.696 36.8661 180.359L36.876 180.371C39.2135 179.715 41.5469 179.965 43.2552 181.081C43.8903 181.495 44.4358 182.027 44.8659 182.675C46.9843 185.881 45.4273 190.703 41.3876 193.449Z" fill="white" fill-opacity="0.1"/>
<path d="M510.329 404.197C509.367 404.851 508.354 405.325 507.336 405.63C507.33 405.632 507.326 405.634 507.32 405.636C498.343 408.245 490.311 404.26 488.221 403.082L488.211 403.07C487.954 400.889 487.444 393.248 491.667 386.306C492.101 385.593 492.585 384.885 493.125 384.193C493.128 384.189 493.132 384.185 493.136 384.181C493.801 383.342 494.62 382.571 495.581 381.917C499.621 379.172 504.614 379.541 506.733 382.743C508.32 385.141 507.842 388.446 505.807 391.109L505.817 391.124C508.154 390.468 510.488 390.718 512.196 391.834C512.831 392.247 513.377 392.78 513.807 393.428C515.925 396.627 514.368 401.449 510.329 404.197Z" fill="white" fill-opacity="0.1"/>
<path d="M34.0546 261.495C34.6817 262.147 35.1775 262.871 35.5379 263.628C35.5398 263.632 35.5438 263.636 35.5458 263.64C39.0101 271.091 36.0993 279.121 35.1457 281.35L35.1337 281.36C32.9675 281.582 25.7662 281.911 19.9425 277.68C19.395 277.283 18.8654 276.847 18.3577 276.369C18.3537 276.367 18.3517 276.361 18.3477 276.359C17.7444 275.781 17.2149 275.083 16.7928 274.278C15.1184 271.095 15.7196 267.356 17.9953 265.669C19.7016 264.406 22.0052 264.517 23.9264 265.821L23.9364 265.813C23.4646 264.156 23.6597 262.504 24.46 261.253C24.7547 260.793 25.131 260.383 25.5929 260.04C27.8726 258.358 31.5678 258.913 34.0546 261.495Z" fill="#FFA9C0" fill-opacity="0.1"/>
<path d="M88.5889 251.551C88.1508 252.374 87.5515 253.062 86.8447 253.604C86.8408 253.609 86.8388 253.611 86.8348 253.615C80.5492 258.342 70.9706 257.216 68.3923 256.802L68.3744 256.794C66.7836 255.017 61.5553 248.682 60.9341 241.612C60.8704 240.886 60.8544 240.151 60.8982 239.413C60.8982 239.409 60.9003 239.405 60.9003 239.399C60.962 238.501 61.2009 237.619 61.6409 236.794C63.4866 233.334 68.1216 232.249 71.992 234.369C74.8929 235.957 76.5394 238.894 76.41 241.721L76.4259 241.729C78.0765 240.519 80.2924 240.077 82.4965 240.545C83.3147 240.716 84.1291 241.015 84.9155 241.445C88.7899 243.565 90.4345 248.09 88.5889 251.551Z" fill="white" fill-opacity="0.1"/>
<path d="M92.43 85.372C92.2846 86.5361 91.9442 87.6195 91.4544 88.59C91.4524 88.596 91.4504 88.6021 91.4484 88.6081C87.0464 97.1243 77.6012 100.492 75.0229 101.272L75.0049 101.27C72.9124 99.9953 65.8743 95.2358 62.9615 87.3835C62.6628 86.5765 62.4059 85.7372 62.2029 84.8656C62.2009 84.8595 62.2029 84.8535 62.2009 84.8474C61.964 83.7821 61.9003 82.6483 62.0456 81.4841C62.6549 76.5936 66.6906 73.083 71.0568 73.6419C74.328 74.0615 76.8545 76.646 77.6609 79.971L77.6788 79.973C78.8435 77.7718 80.7987 76.182 83.0425 75.6473C83.8747 75.4476 84.7448 75.3951 85.6307 75.5081C89.993 76.0629 93.0392 80.4814 92.43 85.372Z" fill="white" fill-opacity="0.1"/>
<path d="M208.336 299.185C208.812 300.255 209.112 301.374 209.254 302.49C209.254 302.496 209.258 302.502 209.258 302.508C210.429 312.358 205.557 320.924 204.159 323.148L204.145 323.158C202.064 323.352 194.835 323.608 188.926 318.754C188.319 318.255 187.725 317.702 187.154 317.089C187.15 317.085 187.148 317.079 187.144 317.075C186.451 316.32 185.846 315.402 185.37 314.333C183.369 309.84 184.424 304.433 187.723 302.256C190.196 300.626 193.226 301.271 195.43 303.588L195.444 303.577C195.16 301.015 195.727 298.489 197.015 296.677C197.493 296.006 198.069 295.431 198.738 294.991C202.039 292.814 206.335 294.69 208.336 299.185Z" fill="white" fill-opacity="0.1"/>
<path d="M132.086 223.393C132.381 224.164 132.57 224.88 132.658 225.526C132.658 225.53 132.66 225.534 132.66 225.538C133.544 232.497 128.694 236.374 126.868 237.587H126.85C124.459 235.858 115.816 229.041 111.603 219.479C111.221 218.612 110.892 217.746 110.63 216.891C110.628 216.885 110.628 216.881 110.628 216.875C110.327 215.864 110.219 214.887 110.329 214C110.741 210.697 113.957 209.948 117.252 211.647C119.515 212.815 121.558 214.976 122.713 217.252L122.725 217.258C122.994 216.13 123.81 215.63 124.929 215.817C125.325 215.884 125.763 216.037 126.237 216.279C128.457 217.423 130.946 220.422 132.086 223.393Z" fill="white" fill-opacity="0.1"/>
<path d="M162.153 376.904C162.023 377.947 161.729 378.948 161.3 379.866C161.298 379.872 161.297 379.876 161.295 379.882C157.004 388.924 147.338 393.367 144.532 394.489H144.515C142.689 392.911 137.024 387.345 136.69 379.103C136.658 378.334 136.676 377.547 136.748 376.742C136.748 376.736 136.75 376.732 136.752 376.726C136.847 375.764 137.108 374.761 137.548 373.756C139.28 369.794 143.184 367.193 146.414 367.607C148.833 367.918 150.43 369.83 150.647 372.431L150.663 372.433C151.839 370.69 153.504 369.483 155.246 369.088C155.885 368.943 156.54 368.904 157.195 368.987C160.426 369.398 162.666 372.784 162.153 376.904Z" fill="white" fill-opacity="0.1"/>
<path d="M236.864 243.436C236.766 244.213 236.557 244.941 236.263 245.593C236.261 245.597 236.261 245.601 236.259 245.605C233.615 251.335 228.108 253.687 226.604 254.238H226.595C225.398 253.411 221.374 250.318 219.773 245.113C219.61 244.578 219.471 244.021 219.363 243.442C219.363 243.438 219.363 243.434 219.363 243.43C219.238 242.722 219.214 241.965 219.31 241.188C219.718 237.92 222.093 235.531 224.615 235.854C226.505 236.096 227.94 237.791 228.37 240H228.38C229.079 238.519 230.23 237.436 231.534 237.054C232.018 236.911 232.524 236.867 233.035 236.931C235.556 237.256 237.272 240.167 236.864 243.436Z" fill="white" fill-opacity="0.1"/>
<path d="M100.229 142.449C100.239 143.105 100.145 143.73 99.9658 144.305C99.9658 144.309 99.9658 144.311 99.9638 144.315C98.146 149.938 92.7166 152.676 91.1338 153.366H91.1218C89.8834 152.399 85.9612 148.972 84.9796 143.851C84.8881 143.371 84.8223 142.879 84.7905 142.374C84.7905 142.37 84.7905 142.368 84.7905 142.364C84.7566 141.761 84.8204 141.131 84.9916 140.5C85.6665 138 87.8008 136.348 89.8097 136.606C91.3149 136.8 92.4638 138.008 92.8341 139.65H92.844C93.4035 138.549 94.3094 137.784 95.3387 137.53C95.715 137.437 96.1132 137.411 96.5213 137.463C98.5283 137.72 100.189 139.856 100.229 142.449Z" fill="#FFA9C0" fill-opacity="0.1"/>
<path d="M184.374 189.135C184.258 190.063 183.946 190.923 183.48 191.689C183.478 191.694 183.476 191.698 183.474 191.704C179.299 198.412 169.965 200.869 167.415 201.43L167.397 201.428C165.28 200.353 158.145 196.362 155.047 189.997C154.728 189.343 154.453 188.663 154.228 187.961C154.227 187.957 154.228 187.951 154.226 187.947C153.964 187.087 153.872 186.177 153.988 185.247C154.473 181.345 158.41 178.636 162.776 179.195C166.047 179.614 168.629 181.749 169.515 184.432L169.533 184.434C170.64 182.699 172.549 181.479 174.771 181.105C175.596 180.966 176.462 180.946 177.348 181.059C181.714 181.616 184.86 185.233 184.374 189.135Z" fill="white" fill-opacity="0.1"/>
<path d="M489.974 88.1118C490.621 88.6767 491.145 89.2457 491.539 89.7985C491.541 89.8025 491.545 89.8046 491.547 89.8086C495.746 95.7987 493.148 101.801 492.051 103.835L492.035 103.843C488.985 103.439 477.684 101.452 469.144 94.7173C468.37 94.106 467.647 93.4705 466.988 92.8107C466.984 92.8067 466.982 92.8006 466.978 92.7966C466.21 92.0118 465.634 91.1644 465.306 90.2888C464.081 87.0324 466.69 84.7364 470.56 84.6618C473.22 84.6114 476.159 85.5899 478.331 87.1151L478.345 87.1131C478.046 85.9369 478.558 85.0673 479.683 84.682C480.081 84.5448 480.561 84.4681 481.116 84.458C483.718 84.4076 487.477 85.9349 489.974 88.1118Z" fill="white" fill-opacity="0.1"/>
<path d="M66.9672 428.053C67.4251 429.191 67.6979 430.373 67.8034 431.547C67.8034 431.554 67.8053 431.56 67.8073 431.566C68.6615 441.918 63.2381 450.694 61.6911 452.968L61.6771 452.978C59.493 453.101 51.9173 453.087 45.9185 447.777C45.3033 447.232 44.702 446.631 44.1266 445.967C44.1227 445.963 44.1207 445.957 44.1167 445.953C43.4218 445.138 42.8225 444.153 42.3626 443.015C40.4393 438.236 41.7474 432.619 45.2834 430.468C47.9314 428.858 51.0791 429.653 53.2991 432.161L53.313 432.151C53.1119 429.457 53.8008 426.838 55.2164 424.99C55.74 424.304 56.3652 423.727 57.0819 423.292C60.6179 421.141 65.0439 423.273 66.9672 428.053Z" fill="white" fill-opacity="0.1"/>
<path d="M410.045 385.581C409.674 386.487 409.125 387.266 408.446 387.91C408.442 387.914 408.44 387.918 408.436 387.922C402.387 393.529 392.291 393.393 389.561 393.244L389.543 393.238C387.7 391.559 381.583 385.529 380.19 378.231C380.046 377.481 379.953 376.718 379.919 375.945C379.919 375.939 379.921 375.935 379.921 375.931C379.889 374.989 380.046 374.045 380.417 373.139C381.972 369.336 386.686 367.702 390.943 369.489C394.133 370.829 396.159 373.71 396.321 376.668L396.339 376.674C397.929 375.233 400.191 374.533 402.537 374.781C403.407 374.872 404.289 375.094 405.151 375.457C409.409 377.243 411.6 381.776 410.045 385.581Z" fill="white" fill-opacity="0.1"/>
<path d="M458.649 12.9092C458.195 13.7747 457.667 14.5495 457.102 15.2132C457.098 15.2173 457.096 15.2213 457.092 15.2253C452.075 21.046 446.181 22.1678 444.616 22.3675L444.606 22.3635C443.961 21.0702 441.945 16.3612 443.032 9.9252C443.143 9.26344 443.289 8.58554 443.47 7.88746C443.47 7.88343 443.474 7.87939 443.474 7.87334C443.701 7.02394 444.039 6.14832 444.493 5.28279C446.4 1.64714 449.596 -0.412793 451.629 0.682744C453.152 1.50389 453.59 3.86242 452.913 6.52157L452.923 6.52561C454.235 5.02454 455.744 4.1126 457.058 4.04804C457.546 4.02383 458.006 4.11664 458.418 4.33857C460.453 5.43612 460.556 9.27353 458.649 12.9092Z" fill="white" fill-opacity="0.1"/>
<path d="M448.489 474.193C448.642 475.159 448.684 476.099 448.63 476.977C448.63 476.983 448.63 476.987 448.63 476.993C448.101 484.702 444.071 489.203 442.944 490.321L442.934 490.323C441.65 489.688 437.236 487.17 434.267 481.373C433.963 480.778 433.672 480.149 433.403 479.481C433.401 479.477 433.401 479.471 433.399 479.467C433.075 478.652 432.824 477.746 432.668 476.777C432.021 472.712 433.341 469.115 435.613 468.743C437.315 468.465 439.071 470.077 440.117 472.611L440.127 472.609C440.278 470.612 440.937 468.959 441.946 468.104C442.321 467.785 442.741 467.579 443.203 467.502C445.474 467.133 447.842 470.127 448.489 474.193Z" fill="white" fill-opacity="0.1"/>
<path d="M168.606 110.402C167.659 111.419 166.576 112.264 165.423 112.928C165.415 112.932 165.411 112.936 165.405 112.942C155.213 118.72 143.675 117.159 140.619 116.604L140.601 116.594C139.446 114.356 135.889 106.389 138.493 97.5802C138.76 96.6764 139.094 95.7624 139.5 94.8444C139.502 94.8384 139.508 94.8323 139.51 94.8283C140.018 93.7126 140.743 92.619 141.69 91.6002C145.674 87.327 152.039 86.0519 155.908 88.7534C158.805 90.777 159.476 94.4591 157.957 97.9737L157.975 97.9837C160.636 96.5028 163.641 95.9924 166.199 96.6098C167.147 96.8378 168.033 97.2231 168.817 97.7699C172.684 100.471 172.59 106.127 168.606 110.402Z" fill="white" fill-opacity="0.1"/>
<path d="M430.803 245.714C429.855 246.731 428.772 247.576 427.619 248.24C427.613 248.244 427.607 248.248 427.601 248.252C417.409 254.03 405.872 252.469 402.815 251.914L402.798 251.904C401.643 249.666 398.085 241.699 400.689 232.892C400.958 231.988 401.29 231.074 401.696 230.156C401.698 230.15 401.704 230.144 401.706 230.138C402.214 229.022 402.939 227.929 403.887 226.91C407.871 222.637 414.236 221.362 418.104 224.063C421.001 226.087 421.672 229.769 420.153 233.284L420.171 233.294C422.833 231.813 425.837 231.302 428.396 231.92C429.343 232.148 430.229 232.533 431.014 233.08C434.882 235.783 434.789 241.439 430.803 245.714Z" fill="white" fill-opacity="0.1"/>
<path d="M140.191 66.8749C139.94 67.8272 139.624 68.6524 139.259 69.3364C139.257 69.3404 139.255 69.3444 139.253 69.3505C135.271 76.6843 127.907 76.9567 125.305 76.8235L125.289 76.8114C124.188 73.4421 120.6 60.7093 123.184 48.497C123.419 47.3893 123.704 46.322 124.046 45.3092C124.048 45.3032 124.052 45.2971 124.054 45.291C124.466 44.1027 125.042 43.0838 125.764 42.3091C128.454 39.422 132.072 40.9957 134.065 44.9824C135.435 47.7222 135.901 51.261 135.431 54.2753L135.439 54.2894C136.482 53.3956 137.615 53.4965 138.563 54.475C138.897 54.822 139.214 55.28 139.5 55.853C140.842 58.5343 141.157 63.1989 140.191 66.8749Z" fill="white" fill-opacity="0.1"/>
<path d="M227.169 160.92C226.536 161.6 225.829 162.15 225.091 162.568C225.087 162.57 225.083 162.574 225.079 162.576C218.552 166.208 211.614 164.545 209.784 164.004L209.774 163.996C209.195 162.346 207.468 156.497 209.545 150.344C209.758 149.712 210.011 149.077 210.31 148.441C210.312 148.437 210.316 148.433 210.318 148.429C210.688 147.658 211.19 146.912 211.825 146.232C214.487 143.375 218.435 142.77 220.639 144.88C222.291 146.462 222.494 149.117 221.375 151.55L221.385 151.558C223.088 150.63 224.947 150.408 226.468 150.971C227.034 151.179 227.552 151.496 227.998 151.923C230.204 154.036 229.831 158.063 227.169 160.92Z" fill="white" fill-opacity="0.1"/>
<path d="M166.643 22.3877C166.199 23.0252 165.674 23.5619 165.1 23.9856C165.096 23.9876 165.094 23.9916 165.09 23.9937C159.434 28.1115 152.302 26.8768 150.299 26.4107L150.289 26.4026C149.768 24.5868 148.372 18.4877 150.984 12.8567C151.229 12.3281 151.51 11.8076 151.828 11.2992C151.83 11.2951 151.834 11.2931 151.836 11.2891C152.223 10.6838 152.72 10.1229 153.324 9.63668C155.711 7.71193 158.912 7.64131 160.67 9.32396C161.986 10.5829 162.251 12.5682 161.467 14.4123L161.475 14.4203C162.779 13.7586 164.182 13.6678 165.349 14.158C165.777 14.3376 166.177 14.5958 166.534 14.9368C168.29 16.6195 168.405 19.8617 166.643 22.3877Z" fill="#FFA9C0" fill-opacity="0.1"/>
<path d="M214.342 71.1824C213.585 71.9935 212.687 72.5988 211.708 73.0043C211.702 73.0063 211.698 73.0103 211.692 73.0124C203.009 76.4947 192.315 72.2033 189.468 70.9222L189.452 70.908C188.16 68.3639 184.063 59.4301 185.5 51.0895C185.648 50.2321 185.855 49.3827 186.128 48.5454C186.13 48.5393 186.133 48.5353 186.135 48.5292C186.48 47.5144 187.023 46.5722 187.78 45.7591C190.958 42.3494 196.63 42.5451 200.447 46.1989C203.306 48.9368 204.311 52.8347 203.3 56.0507L203.318 56.0648C205.589 55.1852 208.275 55.3688 210.674 56.5954C211.564 57.0494 212.412 57.6486 213.187 58.3891C217.004 62.0449 217.521 67.7707 214.342 71.1824Z" fill="white" fill-opacity="0.1"/>
<path d="M276.668 16.4319C277.351 17.3781 277.839 18.403 278.139 19.4501C278.141 19.4562 278.145 19.4602 278.145 19.4663C280.716 28.7188 276.132 37.7393 274.786 40.1019L274.772 40.114C272.387 40.6426 264.045 42.0811 256.607 38.3991C255.842 38.0198 255.088 37.588 254.349 37.0957C254.345 37.0917 254.341 37.0877 254.335 37.0836C253.441 36.4743 252.625 35.6935 251.942 34.7473C249.073 30.7687 249.624 25.408 253.178 22.7751C255.84 20.8039 259.428 20.925 262.267 22.7811L262.281 22.769C261.636 20.358 261.98 17.8421 263.249 15.8932C263.719 15.1689 264.316 14.5253 265.035 13.9906C268.59 11.3617 273.799 12.4532 276.668 16.4319Z" fill="white" fill-opacity="0.1"/>
<path d="M225.423 96.0408C225.811 96.5795 226.062 97.1808 226.183 97.8123C226.183 97.8163 226.185 97.8183 226.187 97.8224C227.215 103.405 223.432 109.405 222.343 110.989L222.333 110.997C220.684 111.516 214.946 113.069 210.21 111.35C209.724 111.173 209.246 110.963 208.786 110.713C208.782 110.711 208.778 110.707 208.778 110.707C208.221 110.396 207.731 109.972 207.343 109.433C205.71 107.172 206.494 103.776 209.093 101.851C211.04 100.409 213.451 100.203 215.225 101.141L215.235 101.133C214.984 99.6765 215.408 98.0766 216.414 96.7571C216.786 96.2668 217.238 95.8169 217.763 95.4275C220.36 93.5048 223.79 93.7771 225.423 96.0408Z" fill="white" fill-opacity="0.1"/>
<path d="M380.614 204.965C380.713 205.601 380.733 206.172 380.679 206.662C380.679 206.666 380.679 206.668 380.679 206.672C380.07 211.938 375.224 213.406 373.448 213.782L373.434 213.776C371.754 211.873 365.789 204.582 364.096 196.524C363.943 195.793 363.836 195.079 363.78 194.389C363.78 194.385 363.782 194.381 363.78 194.377C363.724 193.564 363.822 192.829 364.088 192.22C365.078 189.948 367.937 190.289 370.386 192.42C372.068 193.883 373.372 196.003 373.902 197.962L373.912 197.97C374.358 197.23 375.144 197.092 376.052 197.534C376.373 197.69 376.713 197.922 377.066 198.226C378.714 199.661 380.231 202.508 380.614 204.965Z" fill="white" fill-opacity="0.1"/>
<path d="M302.874 70.6478C303.255 71.1764 303.543 71.7554 303.736 72.3547C303.738 72.3587 303.74 72.3607 303.74 72.3648C305.61 78.3085 303.113 84.4964 302.319 86.2153L302.309 86.2234C300.82 86.3001 295.916 86.2335 292.292 82.6543C291.954 82.3194 291.631 81.9562 291.324 81.5628L291.319 81.5548C290.956 81.0786 290.654 80.5117 290.429 79.8681C289.543 77.328 290.212 74.465 291.846 73.2545C293.071 72.3466 294.598 72.5221 295.792 73.6035L295.8 73.5975C295.597 72.3022 295.842 71.0352 296.463 70.1031C296.69 69.7601 296.971 69.4595 297.301 69.2133C298.934 68.0028 301.371 68.5657 302.874 70.6478Z" fill="white" fill-opacity="0.1"/>
<path d="M336.39 41.0279C335.428 41.6816 334.415 42.1558 333.397 42.4604C333.391 42.4624 333.387 42.4665 333.381 42.4665C324.404 45.0752 316.37 41.0905 314.282 39.9122L314.272 39.8981C314.015 37.7171 313.505 30.0766 317.728 23.1342C318.162 22.422 318.646 21.7138 319.186 21.0218C319.19 21.0178 319.193 21.0137 319.197 21.0097C319.862 20.1704 320.681 19.3997 321.642 18.746C325.682 16.0001 330.675 16.3693 332.794 19.5712C334.381 21.97 333.903 25.2748 331.868 27.938L331.878 27.9521C334.215 27.2964 336.549 27.5466 338.257 28.6623C338.89 29.0759 339.438 29.6085 339.868 30.2562C341.986 33.4601 340.429 38.282 336.39 41.0279Z" fill="white" fill-opacity="0.1"/>
<path d="M329.056 109.074C329.683 109.726 330.181 110.45 330.539 111.207C330.541 111.211 330.545 111.215 330.547 111.219C334.012 118.67 331.101 126.698 330.149 128.929L330.137 128.939C327.971 129.161 320.77 129.49 314.946 125.259C314.398 124.862 313.869 124.426 313.361 123.948C313.357 123.946 313.355 123.94 313.351 123.938C312.748 123.361 312.218 122.663 311.796 121.858C310.122 118.674 310.723 114.935 312.999 113.249C314.705 111.986 317.008 112.097 318.93 113.4L318.94 113.392C318.468 111.735 318.663 110.083 319.463 108.832C319.758 108.372 320.134 107.963 320.596 107.62C322.872 105.937 326.569 106.492 329.056 109.074Z" fill="#FFA9C0" fill-opacity="0.1"/>
<path d="M383.589 99.1297C383.151 99.9529 382.552 100.641 381.845 101.184C381.841 101.188 381.839 101.192 381.835 101.194C375.55 105.921 365.971 104.793 363.393 104.381L363.377 104.373C361.786 102.596 356.558 96.2628 355.937 89.1912C355.873 88.4649 355.857 87.7305 355.901 86.9921C355.901 86.988 355.903 86.982 355.903 86.978C355.964 86.0801 356.203 85.1985 356.643 84.3733C358.487 80.9132 363.124 79.8277 366.994 81.9482C369.895 83.536 371.542 86.4736 371.412 89.3002L371.428 89.3082C373.079 88.0957 375.295 87.6559 377.499 88.1219C378.317 88.2934 379.131 88.592 379.918 89.0217C383.79 91.1462 385.433 95.6696 383.589 99.1297Z" fill="white" fill-opacity="0.1"/>
<path d="M326.385 304.606C326.239 305.771 325.899 306.854 325.409 307.824C325.405 307.83 325.405 307.837 325.403 307.843C321.003 316.359 311.556 319.726 308.977 320.507L308.959 320.505C306.867 319.23 299.829 314.47 296.916 306.618C296.617 305.811 296.361 304.972 296.157 304.1C296.155 304.094 296.158 304.088 296.156 304.082C295.919 303.017 295.855 301.883 296 300.719C296.609 295.83 300.645 292.317 305.011 292.876C308.283 293.296 310.809 295.88 311.616 299.205L311.633 299.207C312.798 297.006 314.753 295.416 316.995 294.882C317.827 294.682 318.697 294.628 319.583 294.743C323.948 295.297 326.994 299.716 326.385 304.606Z" fill="white" fill-opacity="0.1"/>
<path d="M469.155 129.793C469.01 130.957 468.689 132.07 468.233 133.097C468.231 133.103 468.23 133.11 468.228 133.116C464.15 142.136 455.581 146.863 453.241 148.019L453.226 148.021C451.352 147.085 445.052 143.478 442.518 136.211C442.257 135.464 442.036 134.679 441.865 133.854C441.863 133.848 441.865 133.842 441.863 133.838C441.662 132.829 441.618 131.725 441.763 130.559C442.373 125.671 446.06 121.615 449.996 121.506C452.945 121.424 455.197 123.581 455.883 126.72L455.899 126.718C456.978 124.382 458.762 122.529 460.795 121.664C461.548 121.343 462.336 121.159 463.133 121.137C467.069 121.026 469.767 124.902 469.155 129.793Z" fill="white" fill-opacity="0.1"/>
<path d="M427.087 70.9726C427.382 71.7433 427.571 72.4596 427.659 73.1052C427.659 73.1092 427.661 73.1133 427.661 73.1173C428.545 80.0759 423.695 83.9536 421.869 85.1662H421.851C419.46 83.4371 410.817 76.6198 406.604 67.0586C406.222 66.191 405.895 65.3255 405.633 64.47C405.631 64.464 405.631 64.4599 405.631 64.4539C405.33 63.4431 405.222 62.4666 405.332 61.5788C405.744 58.2761 408.959 57.5276 412.254 59.2264C414.518 60.3945 416.561 62.5554 417.716 64.8312L417.728 64.8372C417.997 63.7094 418.813 63.209 419.932 63.3967C420.328 63.4633 420.766 63.6146 421.24 63.8587C423.456 65.0027 425.946 68.0008 427.087 70.9726Z" fill="white" fill-opacity="0.1"/>
<path d="M411.515 146.682C411.386 147.725 411.091 148.725 410.663 149.643C410.661 149.65 410.659 149.654 410.657 149.66C406.366 158.702 396.7 163.145 393.895 164.267H393.875C392.049 162.689 386.387 157.123 386.05 148.881C386.018 148.112 386.036 147.325 386.108 146.52C386.108 146.514 386.11 146.51 386.112 146.504C386.208 145.542 386.47 144.541 386.908 143.534C388.641 139.572 392.545 136.971 395.774 137.385C398.195 137.695 399.79 139.608 400.009 142.209H400.023C401.2 140.468 402.864 139.259 404.606 138.864C405.245 138.718 405.9 138.68 406.555 138.763C409.789 139.178 412.029 142.564 411.515 146.682Z" fill="white" fill-opacity="0.1"/>
<path d="M531.866 91.0151C531.768 91.7919 531.559 92.5202 531.265 93.1719C531.263 93.1759 531.263 93.1799 531.261 93.184C528.617 98.9139 523.11 101.266 521.606 101.817H521.596C520.4 100.99 516.376 97.897 514.775 92.6917C514.61 92.157 514.473 91.6002 514.365 91.0212C514.365 91.0171 514.365 91.0131 514.365 91.009C514.24 90.3009 514.216 89.5443 514.311 88.7675C514.72 85.4991 517.095 83.1123 519.617 83.4351C521.507 83.6772 522.942 85.372 523.372 87.5812H523.382C524.081 86.1003 525.232 85.0169 526.536 84.6356C527.02 84.4923 527.526 84.4479 528.037 84.5125C530.558 84.8353 532.272 87.7466 531.866 91.0151Z" fill="white" fill-opacity="0.1"/>
<path d="M479.377 36.7144C479.261 37.6425 478.949 38.502 478.483 39.2666C478.481 39.2707 478.479 39.2767 478.477 39.2807C474.302 45.9891 464.97 48.4465 462.418 49.0074L462.398 49.0054C460.281 47.93 453.146 43.9393 450.048 37.5739C449.729 36.9202 449.453 36.2403 449.23 35.5382C449.228 35.5341 449.228 35.5281 449.228 35.524C448.965 34.6646 448.873 33.7546 448.989 32.8245C449.474 28.9226 453.411 26.213 457.777 26.7718C461.048 27.1915 463.63 29.3261 464.518 32.0094L464.536 32.0115C465.643 30.2784 467.552 29.0557 469.774 28.6825C470.599 28.5433 471.465 28.5231 472.351 28.6361C476.717 29.197 479.863 32.8124 479.377 36.7144Z" fill="white" fill-opacity="0.1"/>
<path d="M67.2486 22.9102C67.4875 23.9109 67.5691 24.9258 67.5134 25.9124C67.5134 25.9184 67.5134 25.9224 67.5134 25.9285C66.9499 34.6181 61.3772 41.2115 59.8143 42.8982L59.8003 42.9043C57.9746 42.7308 51.695 41.7644 47.3746 36.6054C46.9306 36.0748 46.5085 35.5018 46.1123 34.8784C46.1103 34.8744 46.1084 34.8683 46.1064 34.8643C45.6305 34.0996 45.2542 33.2079 45.0133 32.2072C44.0059 28.0026 45.7799 23.5094 48.9754 22.1738C51.3685 21.1731 53.8792 22.2283 55.4122 24.5868L55.4261 24.5808C55.5914 22.3231 56.4834 20.237 57.883 18.8852C58.4027 18.3828 58.992 17.9833 59.6391 17.713C62.8346 16.3814 66.2411 18.7056 67.2486 22.9102Z" fill="white" fill-opacity="0.1"/>
<path d="M523.916 299.448C524.155 300.448 524.237 301.463 524.181 302.45C524.181 302.456 524.181 302.46 524.181 302.466C523.617 311.155 518.045 317.747 516.482 319.436L516.468 319.442C514.642 319.268 508.363 318.302 504.042 313.143C503.598 312.612 503.176 312.039 502.78 311.416C502.778 311.412 502.776 311.406 502.774 311.402C502.298 310.637 501.922 309.745 501.681 308.744C500.673 304.54 502.447 300.047 505.643 298.711C508.036 297.71 510.547 298.766 512.08 301.124L512.094 301.118C512.259 298.86 513.151 296.774 514.551 295.422C515.07 294.92 515.659 294.521 516.307 294.25C519.5 292.919 522.907 295.243 523.916 299.448Z" fill="white" fill-opacity="0.1"/>
<path d="M26.6501 14.6201C26.8114 15.2879 26.8631 15.9517 26.8213 16.5811C26.8213 16.5852 26.8213 16.5872 26.8213 16.5912C26.4191 22.1294 22.6263 25.8034 21.5631 26.7315L21.5532 26.7335C20.3168 26.4349 16.0621 25.1699 13.1453 21.4071C12.8466 21.0198 12.5599 20.6082 12.2931 20.1663C12.2931 20.1663 12.2911 20.1603 12.2891 20.1563C11.9686 19.6156 11.7137 19.0022 11.5545 18.3344C10.8815 15.5239 12.094 12.8123 14.2622 12.2797C15.8868 11.8802 17.5872 12.8164 18.6205 14.4909L18.6304 14.4889C18.7479 13.0524 19.3571 11.8015 20.3088 11.0732C20.6612 10.8028 21.0614 10.6051 21.5014 10.4982C23.6716 9.96353 25.9771 11.8096 26.6501 14.6201Z" fill="white" fill-opacity="0.1"/>
<path opacity="0.78" d="M67.1375 114.536C67.3386 115.42 67.3784 116.297 67.2789 117.132C67.2789 117.138 67.2789 117.143 67.2789 117.147C66.3331 124.511 60.3741 129.51 58.7096 130.775L58.6957 130.779C56.8421 130.422 50.4849 128.877 46.3019 123.972C45.8718 123.468 45.4656 122.929 45.0893 122.352C45.0873 122.348 45.0854 122.344 45.0834 122.34C44.6294 121.632 44.285 120.827 44.0839 119.943C43.2358 116.233 45.2367 112.595 48.5497 111.818C51.0324 111.235 53.5451 112.425 55.0064 114.619L55.0204 114.615C55.2852 112.702 56.2826 111.023 57.7679 110.027C58.3174 109.657 58.9347 109.383 59.6076 109.226C62.9166 108.447 66.2913 110.824 67.1375 114.536Z" fill="white" fill-opacity="0.1"/>
<path opacity="0.78" d="M77.2991 301.469C77.2991 302.407 77.1557 303.327 76.8949 304.189C76.8929 304.195 76.8929 304.199 76.8929 304.203C74.5475 311.785 68.2063 316.413 66.4622 317.569L66.4483 317.571C64.8674 317.018 59.5037 314.793 56.7701 309.277C56.4894 308.71 56.2365 308.109 56.0175 307.471C56.0155 307.467 56.0155 307.461 56.0155 307.457C55.7547 306.676 55.6113 305.803 55.6113 304.863C55.6113 300.916 58.1379 297.319 61.2558 296.831C63.5912 296.466 65.5921 297.948 66.4502 300.376L66.4642 300.374C67.0894 298.406 68.3238 296.754 69.8528 295.86C70.4203 295.529 71.0275 295.301 71.6586 295.203C74.7725 294.716 77.2991 297.523 77.2991 301.469Z" fill="white" fill-opacity="0.1"/>
<path opacity="0.78" d="M46.9521 183.089C46.9521 183.785 46.7968 184.448 46.5161 185.058C46.5141 185.062 46.5141 185.064 46.5121 185.068C43.9816 190.416 37.1425 193.114 35.263 193.768H35.2491C33.5428 193.174 27.761 190.901 24.8124 186.494C24.5098 186.042 24.237 185.566 24.0001 185.068C23.9981 185.064 23.9981 185.062 23.9961 185.058C23.7153 184.448 23.5601 183.785 23.5601 183.087C23.5601 180.159 26.2857 177.786 29.6465 177.786C32.1651 177.786 34.3233 179.118 35.2491 181.017H35.263C35.938 179.63 37.268 178.547 38.9165 178.063C39.5278 177.883 40.1828 177.784 40.8637 177.784C44.2265 177.788 46.9521 180.161 46.9521 183.089Z" fill="white" fill-opacity="0.1"/>
<path opacity="0.78" d="M113.289 188.399C113.695 189.157 113.982 189.876 114.155 190.533C114.157 190.537 114.159 190.541 114.159 190.546C115.975 197.639 111.449 202.3 109.715 203.799L109.697 203.801C106.998 202.326 97.1602 196.409 91.5596 187.061C91.0519 186.214 90.5999 185.36 90.2177 184.507C90.2157 184.501 90.2157 184.497 90.2117 184.491C89.7697 183.482 89.5308 182.485 89.5308 181.549C89.5308 178.073 92.7661 176.87 96.3997 178.194C98.8964 179.104 101.293 181.073 102.783 183.276L102.797 183.28C102.93 182.076 103.713 181.45 104.895 181.497C105.313 181.513 105.787 181.614 106.309 181.803C108.758 182.693 111.724 185.469 113.289 188.399Z" fill="white" fill-opacity="0.1"/>
<path opacity="0.78" d="M74.1672 159.949C74.1672 160.631 74.0576 161.301 73.8566 161.926C73.8546 161.93 73.8546 161.934 73.8546 161.938C71.8178 168.118 65.9484 171.776 64.2322 172.728H64.2202C62.9181 171.863 58.8227 168.744 57.9446 163.464C57.863 162.971 57.8113 162.463 57.7933 161.938C57.7933 161.934 57.7933 161.928 57.7933 161.928C57.7774 161.301 57.865 160.633 58.0681 159.951C58.8665 157.256 61.172 155.26 63.2845 155.258C64.8673 155.258 66.0499 156.36 66.3983 158.016H66.4083C67.0255 156.798 68.0011 155.884 69.0921 155.484C69.4923 155.337 69.9105 155.258 70.3405 155.258C72.4529 155.258 74.1672 157.254 74.1672 159.949Z" fill="white" fill-opacity="0.1"/>
<path opacity="0.78" d="M179.199 87.5913C179.199 88.2046 179.107 88.7877 178.942 89.3244C178.942 89.3284 178.942 89.3304 178.94 89.3345C177.445 94.0414 173.399 96.4141 172.288 96.9891H172.28C171.271 96.4665 167.852 94.4671 166.108 90.5894C165.929 90.1919 165.768 89.7723 165.628 89.3345L165.627 89.3264C165.461 88.7897 165.368 88.2066 165.368 87.5933C165.368 85.0189 166.98 82.9287 168.967 82.9287C170.457 82.9287 171.733 84.1009 172.28 85.7714H172.288C172.688 84.5528 173.475 83.6005 174.449 83.1728C174.811 83.0134 175.197 82.9287 175.601 82.9287C177.588 82.9267 179.199 85.0149 179.199 87.5913Z" fill="white" fill-opacity="0.1"/>
<path opacity="0.78" d="M67.2886 217.413C67.3543 217.885 67.3443 218.343 67.2647 218.775C67.2647 218.775 67.2647 218.779 67.2647 218.783C66.4583 223.006 62.791 225.482 61.7099 226.125H61.7019C60.7204 225.542 57.5845 223.432 56.4178 219.83C56.3083 219.491 56.2168 219.142 56.1491 218.783V218.775C56.0714 218.343 56.0594 217.883 56.1251 217.413C56.388 215.549 57.7777 214.159 59.249 214.159C60.352 214.159 61.2898 214.926 61.7039 216.076H61.7099C62.0145 215.23 62.5998 214.595 63.3186 214.316C63.5814 214.214 63.8661 214.159 64.1648 214.159C65.6361 214.159 67.0258 215.547 67.2886 217.413Z" fill="#FFA9C0" fill-opacity="0.1"/>
<path opacity="0.78" d="M248.114 184.307C247.558 184.902 246.927 185.37 246.256 185.713C246.252 185.715 246.25 185.717 246.246 185.722C240.305 188.683 233.613 186.637 231.843 186.002L231.833 185.994C231.172 184.402 229.142 178.783 230.693 173.142C230.852 172.563 231.049 171.982 231.29 171.407C231.292 171.403 231.294 171.401 231.296 171.397C231.595 170.697 232.021 170.031 232.576 169.436C234.908 166.934 238.609 166.639 240.841 168.778C242.513 170.38 242.887 172.89 241.99 175.101L241.999 175.109C243.55 174.355 245.298 174.276 246.78 174.909C247.329 175.143 247.843 175.478 248.295 175.91C250.525 178.045 250.445 181.805 248.114 184.307Z" fill="white" fill-opacity="0.1"/>
<path opacity="0.78" d="M199.879 279.883C199.266 280.541 198.563 281.09 197.818 281.519C197.814 281.521 197.81 281.525 197.806 281.528C191.204 285.27 183.732 284.259 181.753 283.9L181.741 283.894C180.992 282.446 178.687 277.285 180.375 271.579C180.548 270.994 180.763 270.401 181.028 269.808C181.03 269.803 181.034 269.797 181.034 269.797C181.363 269.075 181.832 268.365 182.446 267.707C185.026 264.939 189.149 264.114 191.654 265.863C193.53 267.175 193.964 269.559 192.98 271.835L192.992 271.841C194.716 270.883 196.663 270.55 198.318 270.951C198.933 271.099 199.506 271.349 200.014 271.704C202.521 273.449 202.459 277.113 199.879 279.883Z" fill="white" fill-opacity="0.1"/>
<path opacity="0.78" d="M178.7 237.801C178.481 238.634 178.204 239.356 177.883 239.956C177.881 239.96 177.879 239.964 177.877 239.968C174.391 246.388 167.942 246.626 165.665 246.511L165.651 246.499C164.687 243.547 161.545 232.402 163.807 221.709C164.012 220.738 164.263 219.804 164.562 218.918C164.564 218.912 164.568 218.908 164.57 218.902C164.932 217.861 165.434 216.972 166.067 216.292C168.422 213.764 171.588 215.142 173.334 218.632C174.533 221.031 174.941 224.13 174.531 226.767L174.539 226.779C175.452 225.996 176.444 226.085 177.272 226.94C177.565 227.243 177.842 227.646 178.093 228.147C179.271 230.499 179.546 234.583 178.7 237.801Z" fill="white" fill-opacity="0.1"/>
<path opacity="0.78" d="M124.559 290.054C123.932 290.728 123.211 291.28 122.436 291.708C122.432 291.71 122.428 291.714 122.425 291.716C114.745 295.88 105.609 293.952 103.04 293.272L103.026 293.262C102.539 291.182 101.368 284.249 105.352 278.221C105.724 277.658 106.138 277.109 106.602 276.576C106.604 276.572 106.61 276.57 106.612 276.566C107.174 275.935 107.872 275.36 108.699 274.878C111.958 272.975 116.061 273.183 118.144 275.174C119.703 276.667 119.856 278.866 118.679 280.825L118.689 280.833C120.418 280.216 122.217 280.234 123.657 280.87C124.185 281.102 124.67 281.421 125.092 281.824C127.177 283.817 127.034 287.399 124.559 290.054Z" fill="white" fill-opacity="0.1"/>
<path opacity="0.78" d="M254.852 320.14C254.297 320.735 253.679 321.217 253.032 321.582C253.028 321.584 253.026 321.588 253.022 321.59C247.308 324.77 241.234 323.315 239.631 322.841L239.623 322.833C239.115 321.389 237.606 316.266 239.422 310.879C239.609 310.326 239.83 309.769 240.091 309.215C240.093 309.211 240.095 309.208 240.097 309.204C240.422 308.529 240.861 307.877 241.417 307.282C243.748 304.78 247.203 304.251 249.134 306.099C250.579 307.483 250.759 309.81 249.779 311.94L249.787 311.948C251.278 311.135 252.905 310.942 254.239 311.434C254.733 311.615 255.187 311.894 255.579 312.267C257.508 314.113 257.184 317.638 254.852 320.14Z" fill="white" fill-opacity="0.1"/>
<path opacity="0.78" d="M201.862 198.852C201.471 199.411 201.014 199.879 200.512 200.252C200.508 200.254 200.506 200.256 200.504 200.26C195.55 203.865 189.308 202.784 187.554 202.377L187.545 202.368C187.089 200.779 185.866 195.44 188.154 190.509C188.369 190.047 188.614 189.591 188.892 189.147L188.898 189.139C189.237 188.611 189.673 188.118 190.2 187.693C192.291 186.008 195.094 185.945 196.631 187.418C197.784 188.522 198.017 190.259 197.328 191.873L197.336 191.879C198.477 191.3 199.707 191.221 200.729 191.649C201.103 191.806 201.453 192.032 201.766 192.331C203.303 193.802 203.403 196.641 201.862 198.852Z" fill="#FFA9C0" fill-opacity="0.1"/>
<path opacity="0.78" d="M228.294 378.373C227.631 379.083 226.846 379.613 225.988 379.966C225.982 379.968 225.98 379.972 225.974 379.975C218.373 383.023 209.011 379.266 206.519 378.145L206.503 378.132C205.372 375.905 201.784 368.083 203.042 360.781C203.172 360.031 203.353 359.286 203.592 358.554C203.594 358.55 203.598 358.546 203.598 358.54C203.898 357.65 204.374 356.827 205.037 356.115C207.821 353.129 212.786 353.302 216.127 356.5C218.63 358.897 219.51 362.311 218.624 365.127L218.638 365.139C220.627 364.369 222.978 364.53 225.078 365.605C225.857 366.003 226.602 366.527 227.279 367.175C230.623 370.373 231.077 375.387 228.294 378.373Z" fill="white" fill-opacity="0.1"/>
<path opacity="0.78" d="M241.964 45.5392C241.301 46.2494 240.517 46.78 239.659 47.1331C239.653 47.1351 239.651 47.1392 239.645 47.1412C232.043 50.1897 222.682 46.433 220.189 45.3112L220.173 45.2971C219.042 43.0697 215.454 35.2476 216.713 27.9461C216.842 27.1955 217.021 26.4511 217.262 25.7187C217.264 25.7147 217.268 25.7106 217.268 25.7046C217.569 24.8148 218.047 23.9917 218.708 23.2795C221.491 20.2935 226.457 20.467 229.797 23.6648C232.3 26.0617 233.18 29.4734 232.294 32.2899L232.31 32.304C234.299 31.5333 236.65 31.6947 238.751 32.7701C239.529 33.1675 240.274 33.6921 240.951 34.3397C244.294 37.5376 244.748 42.5512 241.964 45.5392Z" fill="white" fill-opacity="0.1"/>
<path opacity="0.78" d="M298.189 193.638C298.787 194.468 299.213 195.363 299.478 196.281C299.48 196.287 299.482 196.292 299.484 196.296C301.735 204.396 297.72 212.295 296.543 214.363L296.531 214.373C294.442 214.835 287.139 216.094 280.627 212.872C279.958 212.541 279.297 212.162 278.65 211.73C278.646 211.728 278.642 211.722 278.638 211.72C277.856 211.187 277.141 210.503 276.544 209.674C274.031 206.192 274.515 201.497 277.627 199.193C279.958 197.466 283.1 197.573 285.585 199.197L285.597 199.187C285.031 197.076 285.334 194.873 286.443 193.166C286.855 192.533 287.376 191.968 288.008 191.502C291.116 189.198 295.675 190.154 298.189 193.638Z" fill="white" fill-opacity="0.1"/>
<path opacity="0.78" d="M253.323 263.337C253.664 263.807 253.883 264.336 253.99 264.889C253.99 264.893 253.994 264.897 253.994 264.897C254.894 269.785 251.581 275.039 250.628 276.425L250.618 276.433C249.174 276.887 244.151 278.247 240.004 276.744C239.578 276.589 239.161 276.405 238.757 276.185C238.757 276.185 238.753 276.181 238.749 276.179C238.262 275.907 237.834 275.535 237.493 275.063C236.064 273.082 236.75 270.11 239.024 268.425C240.728 267.162 242.839 266.983 244.392 267.804L244.402 267.796C244.183 266.521 244.555 265.121 245.433 263.967C245.758 263.539 246.154 263.144 246.616 262.803C248.891 261.116 251.896 261.356 253.323 263.337Z" fill="white" fill-opacity="0.1"/>
<path opacity="0.78" d="M320.248 151.128C320.339 151.845 320.351 152.496 320.289 153.063C320.289 153.067 320.289 153.073 320.289 153.073C319.598 159.176 314.671 161.438 312.867 162.082L312.853 162.078C311.179 160.098 305.247 152.464 303.649 143.441C303.503 142.624 303.406 141.817 303.36 141.035C303.36 141.03 303.362 141.024 303.36 141.02C303.314 140.096 303.426 139.243 303.703 138.513C304.738 135.793 307.625 135.841 310.074 137.988C311.756 139.463 313.044 141.735 313.552 143.914L313.562 143.92C314.024 143.018 314.822 142.768 315.734 143.165C316.056 143.306 316.397 143.528 316.749 143.837C318.4 145.279 319.895 148.358 320.248 151.128Z" fill="white" fill-opacity="0.1"/>
<path opacity="0.78" d="M321.131 241.106C321.466 241.568 321.716 242.074 321.886 242.601C321.886 242.605 321.89 242.609 321.89 242.609C323.528 247.812 321.342 253.229 320.645 254.736L320.637 254.742C319.333 254.809 315.039 254.752 311.867 251.617C311.57 251.325 311.288 251.008 311.019 250.661L311.015 250.653C310.698 250.235 310.432 249.741 310.234 249.176C309.46 246.953 310.045 244.445 311.475 243.386C312.546 242.591 313.884 242.744 314.929 243.69L314.935 243.684C314.758 242.548 314.971 241.443 315.514 240.625C315.714 240.325 315.959 240.063 316.249 239.847C317.683 238.789 319.817 239.282 321.131 241.106Z" fill="white" fill-opacity="0.1"/>
<path opacity="0.78" d="M350.475 215.174C349.635 215.747 348.745 216.163 347.855 216.429C347.849 216.431 347.845 216.433 347.841 216.435C339.981 218.719 332.949 215.23 331.119 214.199L331.111 214.187C330.886 212.279 330.44 205.588 334.137 199.51C334.518 198.886 334.94 198.267 335.414 197.661C335.416 197.657 335.422 197.653 335.424 197.649C336.005 196.915 336.722 196.241 337.564 195.668C341.1 193.265 345.472 193.588 347.327 196.39C348.717 198.491 348.299 201.386 346.517 203.716L346.525 203.728C348.572 203.153 350.615 203.373 352.11 204.352C352.665 204.713 353.143 205.179 353.52 205.748C355.375 208.548 354.011 212.769 350.475 215.174Z" fill="white" fill-opacity="0.1"/>
<path opacity="0.78" d="M344.055 274.749C344.605 275.319 345.039 275.953 345.354 276.617C345.356 276.621 345.358 276.623 345.36 276.627C348.392 283.15 345.845 290.179 345.011 292.134L345.001 292.142C343.104 292.336 336.8 292.624 331.701 288.92C331.224 288.573 330.76 288.192 330.314 287.772C330.314 287.772 330.308 287.766 330.306 287.762C329.778 287.255 329.314 286.646 328.944 285.94C327.479 283.152 328.004 279.879 329.997 278.404C331.49 277.299 333.507 277.396 335.19 278.538L335.198 278.529C334.784 277.079 334.955 275.632 335.658 274.537C335.914 274.133 336.245 273.774 336.649 273.475C338.644 272.003 341.879 272.487 344.055 274.749Z" fill="#FFA9C0" fill-opacity="0.1"/>
<path opacity="0.78" d="M391.801 266.041C391.416 266.761 390.893 267.362 390.273 267.838C390.269 267.84 390.267 267.844 390.263 267.848C384.76 271.986 376.374 271 374.117 270.639L374.103 270.631C372.711 269.075 368.132 263.529 367.59 257.339C367.534 256.703 367.521 256.06 367.558 255.414C367.558 255.41 367.56 255.406 367.56 255.402C367.614 254.615 367.823 253.845 368.207 253.122C369.822 250.094 373.88 249.142 377.27 250.998C379.811 252.388 381.252 254.96 381.139 257.434L381.153 257.442C382.598 256.381 384.538 255.995 386.469 256.405C387.186 256.556 387.898 256.816 388.585 257.194C391.976 259.052 393.415 263.012 391.801 266.041Z" fill="white" fill-opacity="0.1"/>
<path opacity="0.78" d="M395.162 120.55C395.034 121.569 394.738 122.517 394.307 123.369C394.305 123.375 394.303 123.379 394.302 123.383C390.449 130.838 382.178 133.787 379.921 134.469H379.905C378.073 133.354 371.911 129.185 369.36 122.309C369.098 121.603 368.875 120.869 368.697 120.104C368.695 120.1 368.697 120.094 368.695 120.088C368.488 119.156 368.433 118.161 368.56 117.143C369.094 112.861 372.626 109.786 376.448 110.277C379.311 110.644 381.525 112.906 382.23 115.817L382.246 115.819C383.265 113.892 384.978 112.5 386.941 112.032C387.67 111.859 388.432 111.81 389.207 111.911C393.027 112.401 395.695 116.269 395.162 120.55Z" fill="white" fill-opacity="0.1"/>
<path opacity="0.78" d="M506.702 275.102C507.118 276.038 507.383 277.018 507.506 277.997C507.508 278.003 507.508 278.007 507.51 278.013C508.536 286.636 504.271 294.137 503.047 296.084L503.035 296.092C501.213 296.262 494.883 296.486 489.711 292.237C489.179 291.801 488.66 291.317 488.16 290.78C488.156 290.776 488.154 290.772 488.152 290.768C487.547 290.108 487.015 289.303 486.599 288.367C484.847 284.435 485.771 279.7 488.66 277.793C490.824 276.365 493.478 276.932 495.409 278.957L495.421 278.947C495.172 276.704 495.668 274.492 496.795 272.907C497.213 272.317 497.717 271.815 498.302 271.43C501.189 269.525 504.95 271.169 506.702 275.102Z" fill="white" fill-opacity="0.1"/>
<path opacity="0.78" d="M272.974 112.647C273.215 113.178 273.326 113.739 273.322 114.302C273.322 114.306 273.324 114.308 273.324 114.312C273.245 119.283 268.966 123.764 267.759 124.928L267.749 124.934C266.246 125.088 261.056 125.406 257.287 123.096C256.901 122.858 256.528 122.594 256.176 122.297L256.17 122.291C255.746 121.926 255.397 121.476 255.156 120.946C254.145 118.716 255.401 115.942 257.962 114.75C259.879 113.856 261.986 114.106 263.345 115.224L263.355 115.218C263.391 113.922 264.03 112.625 265.119 111.673C265.524 111.318 265.987 111.013 266.507 110.771C269.067 109.577 271.962 110.418 272.974 112.647Z" fill="white" fill-opacity="0.1"/>
<path opacity="0.78" d="M429.886 241.39C430.145 242.064 430.31 242.693 430.386 243.258C430.386 243.262 430.388 243.264 430.388 243.268C431.162 249.362 426.915 252.755 425.317 253.818H425.301C423.208 252.305 415.64 246.335 411.951 237.964C411.617 237.206 411.33 236.447 411.099 235.697C411.097 235.693 411.099 235.686 411.097 235.682C410.834 234.797 410.739 233.941 410.836 233.165C411.197 230.273 414.012 229.618 416.897 231.105C418.88 232.127 420.668 234.02 421.677 236.011L421.687 236.015C421.924 235.027 422.639 234.591 423.616 234.754C423.963 234.813 424.347 234.946 424.761 235.16C426.706 236.163 428.888 238.787 429.886 241.39Z" fill="white" fill-opacity="0.1"/>
<path opacity="0.78" d="M125.274 161.103C124.96 161.753 124.613 162.3 124.255 162.739L124.249 162.748C120.345 167.446 115.005 166.573 113.151 166.099L113.141 166.087C112.825 163.5 112.044 153.816 115.632 145.401C115.959 144.638 116.315 143.912 116.703 143.232C116.705 143.228 116.709 143.224 116.711 143.22C117.177 142.425 117.735 141.775 118.364 141.321C120.709 139.634 123.088 141.291 123.96 144.452C124.558 146.623 124.392 149.238 123.628 151.34L123.632 151.35C124.51 150.858 125.31 151.096 125.854 151.937C126.047 152.236 126.208 152.611 126.334 153.065C126.923 155.196 126.491 158.599 125.274 161.103Z" fill="#FFA9C0" fill-opacity="0.1"/>
<path opacity="0.78" d="M521.619 258.937C521.533 259.617 521.352 260.254 521.093 260.825C521.091 260.829 521.091 260.831 521.089 260.835C518.776 265.851 513.954 267.913 512.638 268.395H512.628C511.581 267.671 508.056 264.963 506.657 260.406C506.513 259.938 506.392 259.449 506.297 258.943C506.297 258.939 506.297 258.937 506.297 258.933C506.187 258.313 506.165 257.652 506.251 256.97C506.607 254.109 508.688 252.019 510.896 252.301C512.55 252.513 513.806 253.998 514.183 255.931H514.193C514.806 254.633 515.811 253.687 516.954 253.35C517.378 253.225 517.82 253.185 518.268 253.243C520.474 253.526 521.975 256.076 521.619 258.937Z" fill="white" fill-opacity="0.1"/>
<path opacity="0.78" d="M401.99 170.521C401.998 171.094 401.919 171.643 401.759 172.145C401.757 172.149 401.757 172.151 401.757 172.155C400.167 177.078 395.412 179.475 394.026 180.078H394.016C392.931 179.231 389.499 176.231 388.639 171.748C388.559 171.328 388.501 170.896 388.474 170.455V170.447C388.444 169.918 388.499 169.367 388.649 168.814C389.24 166.625 391.108 165.179 392.868 165.405C394.186 165.574 395.191 166.633 395.516 168.07H395.524C396.013 167.105 396.806 166.436 397.706 166.214C398.036 166.131 398.385 166.111 398.741 166.155C400.501 166.381 401.955 168.253 401.99 170.521Z" fill="#FFA9C0" fill-opacity="0.1"/>
<path opacity="0.78" d="M475.66 211.397C475.558 212.21 475.285 212.963 474.877 213.633C474.875 213.637 474.875 213.641 474.871 213.645C471.216 219.518 463.045 221.67 460.811 222.159L460.795 222.157C458.941 221.217 452.696 217.722 449.982 212.148C449.703 211.575 449.462 210.981 449.265 210.364C449.263 210.36 449.265 210.356 449.263 210.352C449.032 209.599 448.953 208.802 449.054 207.989C449.48 204.574 452.924 202.201 456.747 202.691C459.61 203.058 461.872 204.927 462.649 207.277L462.664 207.279C463.634 205.76 465.304 204.691 467.25 204.366C467.97 204.245 468.731 204.227 469.505 204.325C473.332 204.814 476.086 207.979 475.66 211.397Z" fill="white" fill-opacity="0.1"/>
<path opacity="0.78" d="M20.425 263.146C20.1542 263.809 19.7958 264.4 19.3777 264.905C19.3757 264.909 19.3738 264.911 19.3718 264.915C15.6646 269.333 10.2332 270.062 8.77178 270.181L8.76188 270.177C7.90178 269.152 5.0825 265.429 4.91128 260.434C4.89336 259.921 4.90333 259.395 4.94713 258.856C4.94713 258.852 4.94913 258.85 4.94913 258.846C5.00687 258.19 5.16616 257.514 5.43892 256.851C6.57975 254.06 9.25161 252.533 11.4058 253.437C13.0185 254.115 13.8827 255.965 13.7353 258.025L13.7453 258.029C14.7169 256.891 15.9931 256.215 17.2375 256.197C17.6994 256.189 18.1573 256.274 18.5933 256.457C20.7456 257.361 21.5678 260.355 20.425 263.146Z" fill="white" fill-opacity="0.1"/>
<path opacity="0.78" d="M27.2901 163.427C26.9656 164.22 26.4838 164.902 25.8905 165.465C25.8865 165.469 25.8825 165.475 25.8825 165.475C20.5865 170.384 11.7485 170.265 9.35731 170.134L9.34139 170.128C7.72671 168.659 2.37095 163.377 1.15247 156.989C1.02704 156.334 0.945436 155.666 0.915571 154.988C0.915571 154.984 0.917576 154.98 0.917576 154.976C0.889702 154.151 1.02705 153.323 1.35158 152.531C2.71342 149.2 6.84072 147.769 10.5678 149.335C13.3612 150.507 15.1331 153.029 15.2765 155.619L15.2925 155.626C16.6862 154.365 18.6652 153.751 20.7198 153.967C21.4824 154.046 22.2529 154.241 23.0095 154.558C26.7346 156.126 28.6539 160.096 27.2901 163.427Z" fill="white" fill-opacity="0.1"/>
<path opacity="0.78" d="M33.0959 62.0752C33.8425 62.5654 34.4677 63.1667 34.9675 63.8365C34.9714 63.8405 34.9734 63.8425 34.9774 63.8466C39.3217 69.7802 38.4636 77.5297 38.1351 79.5997L38.1272 79.6118C36.5583 80.6529 30.9536 83.998 24.6163 83.4149C23.9653 83.3544 23.3063 83.2535 22.6433 83.1042C22.6393 83.1042 22.6353 83.1002 22.6313 83.1002C21.825 82.9105 21.0286 82.5756 20.282 82.0854C17.1462 80.0234 16.0969 76.0206 17.9386 73.1455C19.3183 70.9908 21.9285 70.0829 24.469 70.6296L24.477 70.6175C23.362 69.064 22.932 67.1635 23.3163 65.4102C23.4576 64.7605 23.7124 64.1311 24.0868 63.548C25.9244 60.673 29.9601 60.0132 33.0959 62.0752Z" fill="white" fill-opacity="0.1"/>
<path opacity="0.78" d="M142.346 231.393C142.661 232.006 142.874 232.656 142.991 233.308C142.993 233.312 142.993 233.314 142.995 233.318C143.997 239.076 141.402 244.277 140.65 245.631L140.642 245.637C139.423 245.819 135.177 246.206 131.545 243.541C131.173 243.266 130.806 242.962 130.45 242.619L130.444 242.611C130.012 242.189 129.628 241.669 129.313 241.055C127.993 238.477 128.441 235.259 130.315 233.871C131.718 232.83 133.522 233.112 134.892 234.403L134.9 234.397C134.651 232.898 134.904 231.393 135.605 230.285C135.864 229.874 136.186 229.517 136.564 229.236C138.438 227.85 141.026 228.815 142.346 231.393Z" fill="white" fill-opacity="0.1"/>
<path opacity="0.78" d="M41.9588 178.208C42.3829 178.487 42.7254 178.85 42.9842 179.269L42.9901 179.275C45.236 183 44.1389 188.358 43.7845 189.797L43.7786 189.807C42.7333 190.636 39.0321 193.342 35.1656 193.423C34.7694 193.431 34.3692 193.41 33.971 193.358C33.971 193.358 33.967 193.356 33.963 193.356C33.4792 193.287 33.0133 193.118 32.5893 192.839C30.8053 191.667 30.4529 189.012 31.7988 186.91C32.8083 185.334 34.4847 184.519 36.0097 184.701L36.0158 184.691C35.4424 183.714 35.3149 182.447 35.6813 181.222C35.8167 180.768 36.0197 180.318 36.2925 179.893C37.6384 177.79 40.1749 177.036 41.9588 178.208Z" fill="white" fill-opacity="0.1"/>
<path opacity="0.78" d="M66.0537 42.6844C66.3504 43.2432 66.5595 43.7738 66.6849 44.2581C66.6849 44.2621 66.6888 44.2661 66.6888 44.2661C68.0029 49.4916 64.66 52.9074 63.3779 54.0049H63.3639C61.3809 52.9114 54.1616 48.5272 50.0682 41.6312C49.6978 41.0057 49.3673 40.3763 49.0886 39.7468C49.0866 39.7428 49.0866 39.7387 49.0846 39.7347C48.7621 38.9922 48.5889 38.2558 48.5928 37.5698C48.6028 35.0116 50.986 34.1359 53.6579 35.1225C55.4916 35.7984 57.2496 37.2551 58.3387 38.8833L58.3486 38.8853C58.4502 37.9996 59.0276 37.5416 59.8976 37.5779C60.2063 37.592 60.5547 37.6667 60.9369 37.8079C62.7348 38.4717 64.9109 40.5236 66.0537 42.6844Z" fill="white" fill-opacity="0.1"/>
<path opacity="0.78" d="M90.7332 138.5C91.1493 138.775 91.5117 139.11 91.8123 139.487L91.8182 139.493C94.7649 143.244 94.6435 148.378 94.536 149.835L94.532 149.843C93.4827 150.311 89.9428 151.623 86.3749 150.057C86.0424 149.91 85.7119 149.74 85.3854 149.541L85.3795 149.537C84.9912 149.294 84.6189 148.974 84.2844 148.572C82.9624 146.992 82.6697 144.751 83.5159 143.429C84.151 142.439 85.2938 142.14 86.4426 142.586L86.4466 142.58C85.9508 141.704 85.7856 140.73 85.9787 139.887C86.0484 139.578 86.1699 139.283 86.3411 139.015C87.1873 137.693 89.0906 137.421 90.7332 138.5Z" fill="white" fill-opacity="0.1"/>
<path opacity="0.78" d="M128.493 89.284C129.12 89.5786 129.672 89.9619 130.134 90.4058L130.142 90.4119C134.641 94.8021 134.719 101.375 134.635 103.244L134.63 103.254C133.132 104.014 128.049 106.246 122.725 104.821C122.226 104.688 121.728 104.521 121.234 104.319C121.23 104.319 121.228 104.315 121.224 104.315C120.635 104.067 120.065 103.714 119.546 103.252C117.485 101.43 116.906 98.579 118.086 96.7369C118.97 95.3569 120.655 94.798 122.387 95.2016L122.391 95.1935C121.605 94.1343 121.298 92.8955 121.537 91.7737C121.624 91.3621 121.784 90.9627 122.025 90.5894C123.205 88.7433 126.011 88.1179 128.493 89.284Z" fill="#FFA9C0" fill-opacity="0.1"/>
<path opacity="0.78" d="M156.391 136.582C156.298 137.294 156.055 137.954 155.693 138.541C155.691 138.545 155.691 138.547 155.689 138.551C152.449 143.69 145.268 145.534 143.303 145.953L143.289 145.951C141.666 145.116 136.201 142.015 133.848 137.11C133.605 136.606 133.396 136.083 133.228 135.541C133.228 135.537 133.226 135.531 133.226 135.531C133.027 134.869 132.962 134.169 133.055 133.455C133.445 130.458 136.482 128.392 139.834 128.842C142.347 129.179 144.322 130.832 144.991 132.898L145.005 132.9C145.863 131.572 147.336 130.642 149.045 130.366C149.678 130.263 150.345 130.251 151.024 130.341C154.38 130.791 156.782 133.586 156.391 136.582Z" fill="white" fill-opacity="0.1"/>
<path opacity="0.78" d="M114.287 16.1655C114.496 17.0411 114.546 17.9147 114.454 18.748C114.454 18.752 114.454 18.7561 114.454 18.7621C113.592 26.098 107.717 31.1358 106.076 32.4109L106.062 32.415C104.217 32.078 97.8755 30.6113 93.6626 25.7792C93.2306 25.2829 92.8204 24.7502 92.4382 24.1813C92.4362 24.1773 92.4342 24.1732 92.4322 24.1692C91.9743 23.4691 91.6218 22.6722 91.4128 21.7965C90.5308 18.1165 92.48 14.4748 95.7671 13.6658C98.2299 13.0605 100.743 14.2166 102.22 16.3794L102.234 16.3753C102.477 14.4708 103.45 12.7881 104.918 11.7814C105.461 11.4081 106.072 11.1277 106.739 10.9642C110.025 10.1552 113.405 12.4835 114.287 16.1655Z" fill="white" fill-opacity="0.1"/>
<path opacity="0.78" d="M226.12 134.883C226.329 135.759 226.401 136.648 226.351 137.512C226.351 137.518 226.351 137.522 226.351 137.526C225.857 145.134 220.979 150.906 219.611 152.383L219.599 152.389C218.001 152.236 212.503 151.391 208.721 146.875C208.332 146.411 207.962 145.909 207.616 145.364C207.614 145.36 207.612 145.356 207.61 145.352C207.192 144.682 206.863 143.901 206.654 143.026C205.772 139.346 207.325 135.412 210.122 134.241C212.219 133.366 214.417 134.29 215.759 136.354L215.771 136.348C215.916 134.371 216.696 132.545 217.923 131.362C218.377 130.922 218.893 130.573 219.46 130.335C222.255 129.167 225.238 131.203 226.12 134.883Z" fill="white" fill-opacity="0.1"/>
<path opacity="0.78" d="M189.505 127.14C189.925 127.61 190.254 128.074 190.491 128.514C190.491 128.514 190.495 128.518 190.497 128.522C193.011 133.275 190.574 137.403 189.589 138.781L189.577 138.785C187.393 138.206 179.345 135.706 173.739 130.007C173.231 129.49 172.761 128.959 172.341 128.417C172.339 128.413 172.335 128.407 172.335 128.407C171.847 127.763 171.505 127.093 171.345 126.423C170.75 123.938 172.857 122.509 175.682 122.816C177.623 123.026 179.674 124.012 181.117 125.328H181.127C181.016 124.442 181.467 123.857 182.322 123.681C182.624 123.619 182.981 123.607 183.385 123.651C185.286 123.857 187.884 125.32 189.505 127.14Z" fill="white" fill-opacity="0.1"/>
<path opacity="0.78" d="M260.694 89.6492C260.834 90.2343 260.881 90.8153 260.846 91.3661C260.846 91.3702 260.846 91.3722 260.846 91.3762C260.493 96.2244 257.174 99.4404 256.243 100.254L256.235 100.256C255.151 99.9932 251.426 98.8876 248.872 95.5929C248.609 95.254 248.36 94.8928 248.125 94.5075L248.121 94.4994C247.841 94.0253 247.618 93.4906 247.478 92.9035C246.889 90.4441 247.95 88.0694 249.849 87.6014C251.271 87.2503 252.76 88.0715 253.666 89.5382L253.674 89.5362C253.776 88.2772 254.309 87.1817 255.143 86.5462C255.452 86.3101 255.802 86.1366 256.189 86.0418C258.086 85.5737 260.103 87.1898 260.694 89.6492Z" fill="white" fill-opacity="0.1"/>
<path opacity="0.78" d="M312.621 97.8869C312.621 98.5002 312.529 99.0833 312.362 99.62C312.362 99.62 312.362 99.626 312.36 99.6301C310.863 104.337 306.819 106.71 305.708 107.285H305.7C304.691 106.762 301.272 104.763 299.528 100.885C299.349 100.488 299.188 100.068 299.048 99.6301L299.046 99.622C298.881 99.0853 298.788 98.5022 298.788 97.8889C298.788 95.3145 300.4 93.2243 302.387 93.2243C303.877 93.2243 305.153 94.3965 305.7 96.067H305.708C306.108 94.8484 306.895 93.8961 307.87 93.4684C308.233 93.309 308.619 93.2243 309.021 93.2243C311.01 93.2243 312.621 95.3125 312.621 97.8869Z" fill="white" fill-opacity="0.1"/>
<path opacity="0.78" d="M510.614 46.3301C509.784 47.2198 508.838 47.922 507.833 48.4344C507.827 48.4385 507.823 48.4425 507.817 48.4445C498.927 52.8751 488.915 49.8164 486.265 48.8642L486.249 48.8521C485.261 46.4713 482.221 38.0621 484.54 29.6206C484.779 28.7531 485.074 27.8855 485.432 27.024C485.434 27.018 485.438 27.0139 485.442 27.0079C485.89 25.9608 486.525 24.9661 487.358 24.0744C490.846 20.3318 496.383 19.892 499.726 23.0898C502.228 25.4867 502.788 29.2434 501.446 32.5501L501.462 32.5622C503.783 31.4344 506.397 31.3154 508.613 32.2636C509.436 32.6147 510.202 33.113 510.881 33.7627C514.222 36.9605 514.102 42.5875 510.614 46.3301Z" fill="white" fill-opacity="0.1"/>
<path opacity="0.78" d="M457.34 326.557C456.51 327.447 455.562 328.188 454.552 328.769C454.547 328.773 454.543 328.777 454.537 328.781C445.613 333.839 435.511 332.473 432.837 331.987L432.821 331.977C431.809 330.018 428.694 323.041 430.975 315.332C431.21 314.539 431.501 313.74 431.857 312.937C431.859 312.931 431.863 312.927 431.865 312.921C432.309 311.944 432.944 310.986 433.775 310.094C437.263 306.352 442.836 305.236 446.222 307.602C448.759 309.374 449.346 312.598 448.016 315.675L448.032 315.685C450.363 314.39 452.994 313.942 455.233 314.482C456.064 314.682 456.84 315.019 457.525 315.499C460.912 317.864 460.828 322.815 457.34 326.557Z" fill="white" fill-opacity="0.1"/>
<path opacity="0.78" d="M424.217 44.6212C424.221 45.3173 424.07 45.9831 423.795 46.5944C423.793 46.5984 423.793 46.6004 423.791 46.6045C421.297 51.9712 414.478 54.7151 412.6 55.3829H412.586C410.876 54.8018 405.078 52.5684 402.1 48.1802C401.793 47.7283 401.516 47.2562 401.277 46.7598C401.275 46.7558 401.275 46.7538 401.273 46.7497C400.989 46.1425 400.829 45.4787 400.823 44.7826C400.803 41.8551 403.513 39.4643 406.874 39.4401C409.393 39.422 411.559 40.7414 412.497 42.6319H412.51C413.175 41.2418 414.499 40.1503 416.146 39.654C416.755 39.4704 417.41 39.3675 418.091 39.3634C421.456 39.3413 424.197 41.6937 424.217 44.6212Z" fill="white" fill-opacity="0.1"/>
<path opacity="0.78" d="M440.315 117.544C440.096 118.377 439.82 119.1 439.499 119.699C439.497 119.703 439.497 119.707 439.493 119.711C436.007 126.131 429.558 126.371 427.281 126.254L427.267 126.242C426.303 123.292 423.161 112.145 425.423 101.452C425.628 100.484 425.879 99.5474 426.177 98.6617C426.179 98.6556 426.184 98.6516 426.186 98.6455C426.548 97.6045 427.05 96.7147 427.683 96.0348C430.038 93.5068 433.204 94.8848 434.95 98.3752C436.148 100.774 436.557 103.873 436.146 106.512L436.154 106.524C437.068 105.741 438.06 105.83 438.888 106.688C439.183 106.99 439.457 107.394 439.708 107.894C440.885 110.242 441.162 114.326 440.315 117.544Z" fill="white" fill-opacity="0.1"/>
<path opacity="0.78" d="M513.129 186.694C512.574 187.289 511.956 187.771 511.309 188.137C511.305 188.139 511.303 188.141 511.299 188.145C505.585 191.324 499.511 189.87 497.908 189.395L497.898 189.387C497.392 187.943 495.881 182.822 497.697 177.433C497.884 176.881 498.105 176.324 498.366 175.769C498.368 175.765 498.372 175.759 498.372 175.759C498.697 175.083 499.136 174.431 499.69 173.836C502.021 171.334 505.476 170.806 507.407 172.654C508.852 174.038 509.032 176.364 508.052 178.495L508.06 178.503C509.551 177.69 511.178 177.496 512.512 177.988C513.006 178.17 513.46 178.448 513.852 178.821C515.785 180.665 515.461 184.192 513.129 186.694Z" fill="white" fill-opacity="0.1"/>
<path opacity="0.78" d="M460.14 65.4062C459.75 65.965 459.292 66.4331 458.789 66.8063C458.789 66.8063 458.785 66.8104 458.781 66.8144C453.827 70.4198 447.585 69.3384 445.831 68.9308L445.821 68.9228C445.365 67.3329 444.143 61.9945 446.431 57.0635C446.646 56.6015 446.891 56.1455 447.169 55.6997L447.175 55.6916C447.514 55.163 447.95 54.6707 448.477 54.245C450.568 52.5603 453.371 52.4978 454.908 53.9706C456.061 55.0742 456.294 56.8113 455.607 58.4254L455.615 58.4314C456.756 57.8524 457.986 57.7737 459.008 58.2014C459.382 58.3588 459.732 58.5848 460.045 58.8834C461.584 60.3562 461.683 63.1949 460.14 65.4062Z" fill="#FFA9C0" fill-opacity="0.1"/>
<path opacity="0.78" d="M501.898 108.126C501.236 108.836 500.45 109.367 499.592 109.72C499.586 109.722 499.584 109.726 499.578 109.728C491.976 112.777 482.615 109.02 480.122 107.898L480.106 107.886C478.975 105.659 475.387 97.8365 476.646 90.5349C476.775 89.7844 476.954 89.0399 477.195 88.3075C477.197 88.3035 477.201 88.2995 477.201 88.2934C477.502 87.4037 477.98 86.5805 478.641 85.8683C481.424 82.8823 486.39 83.0558 489.731 86.2536C492.233 88.6505 493.113 92.0622 492.227 94.8787L492.243 94.8929C494.23 94.1221 496.584 94.2835 498.684 95.3589C499.463 95.7564 500.207 96.2809 500.884 96.9286C504.227 100.126 504.681 105.14 501.898 108.126Z" fill="white" fill-opacity="0.1"/>
<path opacity="0.78" d="M556.467 60.1928C557.065 61.022 557.493 61.9198 557.755 62.8358C557.757 62.8418 557.759 62.8459 557.761 62.8499C560.013 70.9504 555.999 78.8492 554.821 80.9172L554.809 80.9273C552.72 81.3893 545.417 82.6503 538.905 79.4262C538.236 79.0953 537.575 78.716 536.928 78.2843C536.924 78.2822 536.92 78.2782 536.916 78.2742C536.133 77.7415 535.419 77.0576 534.821 76.2284C532.309 72.744 532.793 68.0512 535.904 65.7471C538.236 64.0201 541.378 64.127 543.862 65.7512L543.874 65.7411C543.309 63.6307 543.611 61.4275 544.72 59.7207C545.133 59.0871 545.654 58.5222 546.285 58.0541C549.395 55.7521 553.955 56.7084 556.467 60.1928Z" fill="white" fill-opacity="0.1"/>
<path opacity="0.78" d="M511.599 129.892C511.939 130.362 512.158 130.89 512.266 131.443C512.266 131.447 512.268 131.451 512.268 131.451C513.168 136.34 509.855 141.593 508.901 142.979L508.891 142.988C507.448 143.441 502.424 144.801 498.277 143.298C497.851 143.143 497.435 142.959 497.031 142.739C497.031 142.739 497.027 142.735 497.023 142.733C496.535 142.461 496.107 142.09 495.767 141.618C494.337 139.636 495.024 136.664 497.298 134.98C499.002 133.717 501.112 133.537 502.665 134.358L502.675 134.35C502.456 133.075 502.828 131.675 503.706 130.519C504.031 130.091 504.427 129.696 504.889 129.355C507.167 127.67 510.169 127.91 511.599 129.892Z" fill="white" fill-opacity="0.1"/>
<path opacity="0.78" d="M579.412 107.66C579.745 108.122 579.998 108.628 580.167 109.155C580.167 109.159 580.171 109.163 580.171 109.163C581.807 114.366 579.623 119.783 578.926 121.291L578.919 121.297C577.614 121.363 573.32 121.307 570.148 118.171C569.852 117.879 569.569 117.562 569.3 117.215L569.296 117.207C568.98 116.789 568.713 116.295 568.516 115.73C567.741 113.507 568.327 110.999 569.756 109.94C570.827 109.145 572.165 109.298 573.21 110.244L573.216 110.238C573.039 109.103 573.252 107.995 573.796 107.18C573.995 106.879 574.24 106.617 574.53 106.401C575.962 105.344 578.096 105.836 579.412 107.66Z" fill="white" fill-opacity="0.1"/>
<path opacity="0.78" d="M599.992 312.493C599.865 313.512 599.568 314.46 599.138 315.312C599.136 315.318 599.134 315.322 599.132 315.328C595.28 322.783 587.009 325.73 584.751 326.416L584.735 326.414C582.904 325.298 576.742 321.132 574.191 314.254C573.928 313.548 573.705 312.814 573.528 312.049C573.526 312.045 573.528 312.039 573.526 312.033C573.319 311.101 573.263 310.106 573.389 309.087C573.922 304.806 577.454 301.731 581.279 302.222C584.142 302.589 586.356 304.853 587.061 307.762L587.077 307.764C588.096 305.837 589.808 304.445 591.771 303.977C592.5 303.801 593.263 303.755 594.037 303.854C597.86 304.342 600.526 308.21 599.992 312.493Z" fill="white" fill-opacity="0.1"/>
<path opacity="0.78" d="M290.116 42.3858C290.357 42.9164 290.469 43.4773 290.465 44.0402C290.465 44.0442 290.467 44.0462 290.467 44.0502C290.387 49.0215 286.108 53.5025 284.902 54.6667L284.892 54.6727C283.389 54.826 278.198 55.1448 274.429 52.8347C274.043 52.5966 273.671 52.3323 273.318 52.0358L273.312 52.0297C272.888 51.6645 272.54 51.2146 272.299 50.684C271.288 48.4546 272.544 45.6804 275.104 44.4881C277.022 43.5943 279.128 43.8444 280.488 44.9622L280.498 44.9561C280.534 43.6609 281.173 42.3636 282.262 41.4113C282.666 41.0562 283.13 40.7515 283.65 40.5094C286.21 39.315 289.105 40.1563 290.116 42.3858Z" fill="white" fill-opacity="0.1"/>
<path opacity="0.78" d="M373.116 65.8641C373.325 66.7398 373.397 67.6295 373.347 68.493C373.347 68.4991 373.347 68.5031 373.347 68.5072C372.854 76.1154 367.976 81.8876 366.608 83.3645L366.596 83.3705C364.997 83.2172 359.5 82.3718 355.717 77.8565C355.329 77.3925 354.959 76.8901 354.612 76.3454C354.61 76.3414 354.608 76.3373 354.606 76.3333C354.19 75.6635 353.86 74.8827 353.651 74.007C352.769 70.327 354.321 66.3927 357.119 65.2226C359.215 64.3449 361.413 65.269 362.755 67.3349L362.767 67.3289C362.913 65.3517 363.693 63.5258 364.919 62.3435C365.373 61.9037 365.889 61.5526 366.457 61.3166C369.252 60.1464 372.234 62.1821 373.116 65.8641Z" fill="white" fill-opacity="0.1"/>
<path opacity="0.78" d="M337.574 58.605C337.713 59.1901 337.761 59.7711 337.725 60.3219C337.725 60.3259 337.725 60.328 337.725 60.332C337.373 65.1802 334.054 68.3962 333.122 69.2093L333.114 69.2113C332.031 68.949 328.306 67.8434 325.751 64.5487C325.489 64.2098 325.24 63.8486 325.005 63.4633L325.001 63.4552C324.72 62.9811 324.497 62.4444 324.358 61.8593C323.768 59.3999 324.829 57.0252 326.729 56.5592C328.152 56.2081 329.64 57.0292 330.546 58.496L330.554 58.494C330.655 57.235 331.189 56.1395 332.023 55.504C332.331 55.2679 332.682 55.0944 333.068 54.9996C334.968 54.5295 336.984 56.1456 337.574 58.605Z" fill="white" fill-opacity="0.1"/>
<path opacity="0.78" d="M159.523 51.5132C159.706 51.9813 159.809 52.4554 159.833 52.9194L159.835 52.9275C160.048 57.4691 156.889 60.9413 155.937 61.8754L155.929 61.8774C154.778 61.5264 151.037 60.1504 148.949 56.7468C148.753 56.426 148.572 56.0911 148.415 55.738L148.413 55.7319C148.226 55.3082 148.102 54.8382 148.053 54.3378C147.864 52.3545 148.949 50.5771 150.462 50.2058C151.595 49.9274 152.747 50.4782 153.456 51.5536L153.462 51.5515C153.566 50.6053 154.012 49.8043 154.681 49.3383C154.925 49.1668 155.204 49.0377 155.511 48.963C157.024 48.5898 158.794 49.6631 159.523 51.5132Z" fill="#FFA9C0" fill-opacity="0.1"/>
<path opacity="0.78" d="M208.335 65.2004C208.502 65.8984 208.51 66.6026 208.383 67.2825C208.383 67.2865 208.383 67.2906 208.383 67.2946C207.196 73.2706 201.155 77.6225 199.475 78.7322L199.461 78.7362C197.651 78.5506 191.449 77.6629 187.505 73.9485C187.101 73.5672 186.719 73.1556 186.368 72.7118C186.368 72.7118 186.364 72.7057 186.362 72.7017C185.942 72.1569 185.63 71.5295 185.463 70.8294C184.76 67.8938 186.852 64.8554 190.139 64.0463C192.602 63.4411 195.033 64.2582 196.395 65.9388L196.409 65.9348C196.736 64.3833 197.777 62.975 199.272 62.0933C199.827 61.7645 200.445 61.5102 201.11 61.3468C204.395 60.5378 207.63 62.2628 208.335 65.2004Z" fill="white" fill-opacity="0.1"/>
<path d="M704.475 452.034C703.842 452.714 703.12 453.248 702.353 453.64C702.349 453.642 702.345 453.646 702.341 453.648C695.556 457.031 687.913 454.695 685.89 453.967L685.878 453.956C685.123 452.139 682.804 445.719 684.574 439.277C684.755 438.615 684.98 437.953 685.255 437.295C685.257 437.291 685.261 437.287 685.261 437.283C685.603 436.484 686.089 435.724 686.722 435.044C689.384 432.187 693.613 431.85 696.163 434.293C698.074 436.123 698.501 438.99 697.475 441.516L697.487 441.526C699.259 440.665 701.254 440.574 702.946 441.298C703.574 441.567 704.159 441.948 704.677 442.442C707.229 444.881 707.139 449.177 704.475 452.034Z" fill="white" fill-opacity="0.1"/>
<path d="M613.525 305.075C614.001 306.144 614.301 307.264 614.443 308.381C614.443 308.387 614.447 308.393 614.447 308.399C615.617 318.249 610.745 326.816 609.348 329.039L609.334 329.049C607.253 329.243 600.022 329.499 594.115 324.645C593.508 324.147 592.914 323.594 592.343 322.98C592.339 322.976 592.337 322.97 592.333 322.966C591.64 322.212 591.035 321.294 590.559 320.224C588.558 315.731 589.613 310.324 592.912 308.147C595.385 306.517 598.415 307.163 600.619 309.479L600.633 309.469C600.349 306.904 600.916 304.38 602.204 302.569C602.682 301.897 603.257 301.322 603.926 300.882C607.227 298.705 611.524 300.581 613.525 305.075Z" fill="white" fill-opacity="0.1"/>
<path d="M567.343 382.795C567.214 383.838 566.919 384.839 566.491 385.757C566.489 385.763 566.487 385.767 566.485 385.773C562.194 394.816 552.528 399.258 549.723 400.38H549.703C547.877 398.802 542.215 393.236 541.878 384.994C541.847 384.225 541.865 383.439 541.936 382.634C541.936 382.628 541.938 382.624 541.94 382.617C542.036 381.655 542.299 380.652 542.737 379.648C544.469 375.685 548.373 373.084 551.602 373.498C554.023 373.809 555.618 375.721 555.837 378.322H555.853C557.03 376.581 558.694 375.372 560.436 374.977C561.076 374.832 561.731 374.793 562.386 374.876C565.617 375.29 567.857 378.675 567.343 382.795Z" fill="white" fill-opacity="0.1"/>
<path d="M642.053 249.327C641.956 250.104 641.747 250.832 641.452 251.484C641.45 251.488 641.45 251.492 641.448 251.496C638.804 257.226 633.297 259.578 631.794 260.129H631.784C630.587 259.302 626.564 256.209 624.963 251.004C624.798 250.469 624.66 249.912 624.553 249.333C624.553 249.329 624.553 249.325 624.553 249.321C624.427 248.613 624.403 247.856 624.499 247.08C624.907 243.811 627.282 241.422 629.805 241.745C631.694 241.987 633.13 243.682 633.56 245.891H633.57C634.269 244.408 635.419 243.327 636.724 242.946C637.207 242.802 637.713 242.758 638.225 242.823C640.745 243.147 642.462 246.059 642.053 249.327Z" fill="white" fill-opacity="0.1"/>
<path d="M589.564 195.024C589.449 195.953 589.136 196.812 588.67 197.579C588.668 197.583 588.666 197.587 588.664 197.593C584.489 204.301 575.156 206.759 572.605 207.32L572.587 207.318C570.471 206.242 563.335 202.251 560.237 195.886C559.919 195.232 559.642 194.552 559.419 193.85C559.417 193.846 559.419 193.84 559.417 193.836C559.154 192.977 559.063 192.067 559.178 191.137C559.664 187.237 563.6 184.525 567.966 185.084C571.237 185.504 573.82 187.638 574.706 190.322L574.726 190.324C575.833 188.588 577.742 187.368 579.964 186.995C580.788 186.855 581.654 186.835 582.54 186.948C586.904 187.507 590.05 191.123 589.564 195.024Z" fill="white" fill-opacity="0.1"/>
<path d="M573.799 116.291C572.851 117.308 571.768 118.153 570.615 118.817C570.609 118.821 570.603 118.825 570.597 118.831C560.405 124.61 548.868 123.048 545.812 122.493L545.794 122.483C544.639 120.246 541.081 112.278 543.685 103.469C543.954 102.566 544.286 101.652 544.693 100.734C544.695 100.728 544.701 100.722 544.703 100.718C545.21 99.6018 545.935 98.5083 546.883 97.4894C550.867 93.2162 557.232 91.9411 561.1 94.6427C563.997 96.6663 564.668 100.348 563.149 103.863L563.167 103.873C565.829 102.392 568.833 101.882 571.392 102.499C572.339 102.727 573.225 103.112 574.01 103.659C577.878 106.361 577.783 112.018 573.799 116.291Z" fill="white" fill-opacity="0.1"/>
<path d="M632.36 166.811C631.727 167.491 631.02 168.042 630.281 168.459C630.277 168.461 630.273 168.465 630.269 168.467C623.743 172.099 616.804 170.436 614.975 169.896L614.965 169.888C614.385 168.237 612.659 162.388 614.735 156.235C614.949 155.603 615.201 154.968 615.5 154.332C615.502 154.328 615.506 154.324 615.506 154.32C615.876 153.549 616.378 152.803 617.013 152.123C619.675 149.266 623.623 148.661 625.827 150.771C627.48 152.353 627.683 155.008 626.564 157.441L626.574 157.449C628.276 156.521 630.136 156.299 631.659 156.862C632.224 157.07 632.742 157.387 633.188 157.815C635.394 159.927 635.024 163.954 632.36 166.811Z" fill="white" fill-opacity="0.1"/>
<path d="M571.834 28.2769C571.39 28.9145 570.865 29.4512 570.291 29.8748C570.287 29.8769 570.285 29.8809 570.281 29.8829C564.625 34.0008 557.493 32.766 555.49 32.3L555.48 32.2919C554.959 30.4761 553.563 24.379 556.175 18.746C556.42 18.2174 556.701 17.6968 557.019 17.1884C557.021 17.1844 557.025 17.1824 557.027 17.1783C557.414 16.5731 557.911 16.0122 558.515 15.5259C560.902 13.6012 564.103 13.5306 565.861 15.2132C567.177 16.4722 567.442 18.4575 566.658 20.3015L566.666 20.3076C567.97 19.6458 569.373 19.555 570.54 20.0453C570.968 20.2248 571.368 20.4831 571.725 20.8241C573.483 22.5107 573.596 25.753 571.834 28.2769Z" fill="#FFA9C0" fill-opacity="0.1"/>
<path d="M619.535 77.0717C618.778 77.8828 617.88 78.488 616.901 78.8936C616.895 78.8956 616.891 78.8996 616.885 78.9016C608.202 82.3839 597.508 78.0926 594.661 76.8114L594.645 76.7973C593.353 74.2532 589.256 65.3194 590.693 56.9788C590.841 56.1234 591.048 55.2719 591.32 54.4347C591.322 54.4286 591.326 54.4246 591.328 54.4185C591.673 53.4037 592.216 52.4615 592.973 51.6484C596.151 48.2387 601.823 48.4344 605.64 52.0882C608.499 54.8261 609.504 58.724 608.493 61.94L608.509 61.9541C610.78 61.0744 613.466 61.258 615.865 62.4847C616.755 62.9387 617.603 63.5379 618.378 64.2783C622.196 67.9342 622.714 73.662 619.535 77.0717Z" fill="white" fill-opacity="0.1"/>
<path d="M681.863 22.3231C682.546 23.2694 683.033 24.2943 683.334 25.3414C683.336 25.3474 683.34 25.3515 683.34 25.3575C685.91 34.6101 681.327 43.6306 679.981 45.9932L679.967 46.0053C677.582 46.5339 669.24 47.9724 661.801 44.2903C661.037 43.911 660.282 43.4793 659.544 42.987C659.54 42.983 659.536 42.9789 659.53 42.9769C658.636 42.3676 657.819 41.5868 657.137 40.6406C654.266 36.6619 654.819 31.3013 658.373 28.6684C661.035 26.6972 664.623 26.8182 667.462 28.6744L667.476 28.6623C666.831 26.2513 667.175 23.7354 668.443 21.7864C668.913 21.0621 669.511 20.4185 670.229 19.8839C673.783 17.251 678.992 18.3425 681.863 22.3231Z" fill="white" fill-opacity="0.1"/>
<path d="M630.613 101.932C631.001 102.471 631.252 103.072 631.373 103.704C631.373 103.708 631.375 103.71 631.377 103.714C632.405 109.298 628.622 115.296 627.533 116.88L627.523 116.888C625.874 117.407 620.136 118.96 615.4 117.241C614.914 117.064 614.436 116.854 613.976 116.604C613.972 116.602 613.968 116.598 613.968 116.598C613.411 116.287 612.921 115.863 612.533 115.325C610.9 113.063 611.684 109.667 614.283 107.743C616.23 106.3 618.641 106.094 620.415 107.033L620.425 107.024C620.174 105.568 620.598 103.968 621.604 102.648C621.976 102.158 622.428 101.708 622.953 101.319C625.552 99.394 628.98 99.6684 630.613 101.932Z" fill="white" fill-opacity="0.1"/>
<path d="M708.066 76.5391C708.446 77.0677 708.735 77.6467 708.928 78.2459C708.93 78.25 708.932 78.252 708.932 78.256C710.801 84.1977 708.305 90.3856 707.51 92.1066L707.5 92.1146C706.011 92.1913 701.107 92.1247 697.484 88.5456C697.145 88.2107 696.823 87.8475 696.516 87.4541L696.51 87.446C696.148 86.9699 695.843 86.4049 695.62 85.7593C694.734 83.2192 695.403 80.3563 697.038 79.1457C698.262 78.2378 699.789 78.4134 700.984 79.4948L700.992 79.4887C700.789 78.1935 701.034 76.9264 701.655 75.9943C701.882 75.6513 702.162 75.3507 702.493 75.1046C704.126 73.894 706.563 74.4549 708.066 76.5391Z" fill="white" fill-opacity="0.1"/>
<path d="M741.579 46.9192C740.618 47.5729 739.604 48.0471 738.587 48.3517C738.581 48.3537 738.577 48.3557 738.569 48.3578C729.592 50.9665 721.56 46.9818 719.47 45.8035L719.46 45.7894C719.203 43.6084 718.693 35.9679 722.918 29.0255C723.352 28.3133 723.836 27.6051 724.375 26.9131C724.379 26.909 724.383 26.905 724.387 26.901C725.052 26.0617 725.871 25.291 726.832 24.6373C730.872 21.8914 735.865 22.2606 737.984 25.4624C739.571 27.8613 739.093 31.1681 737.058 33.8293L737.068 33.8434C739.405 33.1877 741.739 33.4379 743.447 34.5536C744.08 34.9672 744.628 35.4998 745.058 36.1475C747.176 39.3514 745.619 44.1733 741.579 46.9192Z" fill="white" fill-opacity="0.1"/>
<path d="M734.248 114.966C734.875 115.617 735.373 116.342 735.732 117.098C735.734 117.102 735.738 117.106 735.74 117.11C739.204 124.561 736.293 132.589 735.341 134.82L735.329 134.831C733.163 135.052 725.962 135.381 720.138 131.15C719.591 130.753 719.061 130.317 718.553 129.841C718.549 129.837 718.547 129.833 718.543 129.831C717.94 129.254 717.411 128.556 716.989 127.751C715.314 124.567 715.915 120.829 718.191 119.142C719.897 117.879 722.201 117.99 724.122 119.293L724.132 119.285C723.66 117.629 723.855 115.976 724.656 114.725C724.95 114.265 725.327 113.856 725.789 113.513C728.066 111.828 731.762 112.383 734.248 114.966Z" fill="#FFA9C0" fill-opacity="0.1"/>
<path d="M731.575 310.496C731.43 311.66 731.089 312.743 730.598 313.714C730.596 313.72 730.593 313.726 730.591 313.732C726.189 322.248 716.744 325.615 714.166 326.396L714.148 326.394C712.055 325.119 705.017 320.36 702.104 312.507C701.806 311.7 701.549 310.861 701.346 309.989C701.344 309.983 701.346 309.977 701.344 309.971C701.107 308.906 701.043 307.772 701.189 306.608C701.798 301.719 705.834 298.207 710.2 298.766C713.471 299.185 715.998 301.77 716.804 305.095L716.822 305.097C717.987 302.896 719.942 301.306 722.184 300.771C723.016 300.571 723.886 300.517 724.772 300.632C729.138 301.189 732.184 305.605 731.575 310.496Z" fill="white" fill-opacity="0.1"/>
<path opacity="0.78" d="M584.392 93.4805C584.392 94.0939 584.3 94.677 584.133 95.2136C584.133 95.2177 584.133 95.2197 584.131 95.2237C582.636 99.9307 578.59 102.303 577.477 102.878H577.469C576.462 102.356 573.041 100.356 571.297 96.4786C571.118 96.0812 570.957 95.6615 570.817 95.2237L570.815 95.2156C570.65 94.679 570.557 94.0959 570.557 93.4826C570.557 90.9081 572.169 88.82 574.156 88.82C575.646 88.82 576.922 89.9922 577.469 91.6627H577.477C577.877 90.4441 578.664 89.4918 579.639 89.0641C580.002 88.9047 580.388 88.82 580.79 88.82C582.779 88.818 584.392 90.9061 584.392 93.4805Z" fill="white" fill-opacity="0.1"/>
<path opacity="0.78" d="M653.304 190.196C652.749 190.792 652.118 191.26 651.447 191.603C651.443 191.605 651.441 191.607 651.437 191.611C645.496 194.573 638.804 192.527 637.034 191.891L637.024 191.883C636.363 190.291 634.332 184.672 635.883 179.031C636.042 178.452 636.239 177.871 636.48 177.296C636.482 177.292 636.484 177.29 636.486 177.286C636.785 176.586 637.211 175.92 637.767 175.325C640.098 172.823 643.799 172.529 646.031 174.667C647.704 176.269 648.078 178.781 647.18 180.99L647.19 180.998C648.741 180.244 650.489 180.165 651.97 180.799C652.52 181.033 653.033 181.368 653.485 181.799C655.715 183.934 655.636 187.695 653.304 190.196Z" fill="white" fill-opacity="0.1"/>
<path opacity="0.78" d="M605.069 285.772C604.456 286.43 603.753 286.979 603.008 287.409C603.004 287.411 603 287.415 602.996 287.417C596.394 291.159 588.922 290.149 586.943 289.789L586.931 289.783C586.185 288.335 583.879 283.174 585.565 277.468C585.739 276.883 585.954 276.29 586.218 275.697C586.22 275.693 586.222 275.689 586.224 275.685C586.553 274.962 587.023 274.252 587.636 273.594C590.216 270.826 594.34 270.001 596.844 271.75C598.722 273.062 599.156 275.447 598.17 277.722L598.182 277.728C599.906 276.77 601.854 276.437 603.508 276.839C604.123 276.986 604.697 277.236 605.204 277.589C607.711 279.34 607.649 283.004 605.069 285.772Z" fill="white" fill-opacity="0.1"/>
<path opacity="0.78" d="M583.89 243.692C583.671 244.525 583.394 245.248 583.073 245.847C583.071 245.851 583.071 245.855 583.069 245.859C579.583 252.279 573.134 252.517 570.857 252.402L570.843 252.39C569.879 249.438 566.737 238.293 568.999 227.6C569.204 226.632 569.455 225.695 569.754 224.81C569.756 224.804 569.76 224.8 569.762 224.794C570.124 223.753 570.626 222.863 571.259 222.183C573.614 219.655 576.78 221.033 578.526 224.523C579.725 226.922 580.133 230.021 579.723 232.658L579.731 232.67C580.644 231.887 581.636 231.976 582.464 232.834C582.759 233.136 583.034 233.54 583.284 234.04C584.461 236.391 584.738 240.474 583.89 243.692Z" fill="white" fill-opacity="0.1"/>
<path opacity="0.78" d="M660.043 326.031C659.487 326.626 658.87 327.108 658.223 327.474C658.219 327.476 658.217 327.48 658.213 327.482C652.499 330.661 646.424 329.207 644.821 328.732L644.814 328.724C644.306 327.28 642.797 322.159 644.612 316.77C644.8 316.218 645.021 315.661 645.281 315.106C645.283 315.102 645.285 315.1 645.287 315.096C645.612 314.42 646.052 313.768 646.605 313.173C648.937 310.671 652.391 310.143 654.323 311.991C655.768 313.375 655.947 315.701 654.968 317.832L654.977 317.84C656.469 317.027 658.095 316.833 659.427 317.325C659.921 317.507 660.375 317.783 660.767 318.158C662.699 320.002 662.374 323.529 660.043 326.031Z" fill="white" fill-opacity="0.1"/>
<path opacity="0.78" d="M607.054 204.743C606.663 205.302 606.205 205.77 605.704 206.143C605.7 206.145 605.696 206.151 605.696 206.151C600.742 209.757 594.5 208.675 592.746 208.268L592.736 208.26C592.28 206.67 591.058 201.331 593.346 196.4C593.561 195.938 593.806 195.482 594.084 195.039L594.09 195.031C594.429 194.502 594.865 194.01 595.392 193.584C597.483 191.899 600.286 191.837 601.823 193.31C602.976 194.413 603.209 196.15 602.52 197.764L602.528 197.77C603.669 197.191 604.899 197.113 605.921 197.54C606.295 197.698 606.645 197.924 606.958 198.222C608.495 199.693 608.595 202.532 607.054 204.743Z" fill="#FFA9C0" fill-opacity="0.1"/>
<path opacity="0.78" d="M633.486 384.264C632.823 384.974 632.039 385.505 631.181 385.858C631.175 385.86 631.173 385.864 631.167 385.866C623.565 388.914 614.204 385.158 611.711 384.036L611.697 384.024C610.566 381.796 606.978 373.974 608.237 366.673C608.366 365.922 608.547 365.178 608.786 364.445C608.788 364.441 608.792 364.437 608.792 364.431C609.093 363.543 609.569 362.718 610.232 362.006C613.015 359.02 617.98 359.194 621.321 362.391C623.824 364.788 624.704 368.202 623.818 371.017L623.832 371.029C625.821 370.258 628.172 370.419 630.273 371.495C631.051 371.892 631.796 372.417 632.473 373.064C635.816 376.264 636.27 381.278 633.486 384.264Z" fill="white" fill-opacity="0.1"/>
<path opacity="0.78" d="M647.154 51.4285C646.491 52.1387 645.707 52.6693 644.849 53.0224C644.843 53.0244 644.841 53.0284 644.835 53.0304C637.233 56.079 627.872 52.3223 625.379 51.2005L625.363 51.1884C624.232 48.961 620.644 41.1389 621.903 33.8374C622.032 33.0868 622.213 32.3423 622.452 31.61C622.454 31.6059 622.458 31.6019 622.458 31.5958C622.759 30.7061 623.235 29.8829 623.898 29.1707C626.681 26.1847 631.647 26.3583 634.987 29.5561C637.49 31.953 638.37 35.3667 637.484 38.1812L637.498 38.1933C639.487 37.4226 641.838 37.584 643.939 38.6593C644.717 39.0568 645.462 39.5814 646.139 40.229C649.484 43.4289 649.938 48.4425 647.154 51.4285Z" fill="white" fill-opacity="0.1"/>
<path opacity="0.78" d="M703.381 199.53C703.979 200.359 704.407 201.255 704.67 202.173C704.672 202.179 704.674 202.183 704.676 202.187C706.927 210.287 702.912 218.186 701.735 220.254L701.723 220.264C699.634 220.726 692.331 221.987 685.819 218.763C685.15 218.432 684.489 218.053 683.842 217.621C683.838 217.619 683.834 217.613 683.83 217.611C683.047 217.078 682.333 216.395 681.735 215.565C679.223 212.083 679.707 207.388 682.819 205.084C685.15 203.357 688.292 203.464 690.776 205.088L690.789 205.078C690.223 202.968 690.526 200.764 691.635 199.058C692.045 198.424 692.568 197.859 693.2 197.393C696.308 195.089 700.867 196.045 703.381 199.53Z" fill="white" fill-opacity="0.1"/>
<path opacity="0.78" d="M658.516 269.228C658.856 269.701 659.075 270.227 659.183 270.78C659.183 270.784 659.187 270.788 659.187 270.788C660.087 275.677 656.774 280.93 655.822 282.316L655.812 282.324C654.368 282.778 649.345 284.138 645.198 282.635C644.772 282.48 644.356 282.296 643.952 282.076C643.952 282.076 643.948 282.072 643.944 282.07C643.456 281.798 643.028 281.427 642.687 280.955C641.258 278.973 641.945 276.001 644.218 274.317C645.923 273.054 648.033 272.874 649.586 273.695L649.596 273.687C649.377 272.412 649.749 271.012 650.627 269.856C650.954 269.428 651.348 269.033 651.81 268.692C654.084 267.007 657.086 267.247 658.516 269.228Z" fill="white" fill-opacity="0.1"/>
<path opacity="0.78" d="M725.44 157.018C725.531 157.734 725.543 158.386 725.481 158.952C725.481 158.957 725.481 158.959 725.481 158.963C724.791 165.066 719.863 167.327 718.059 167.971L718.045 167.967C716.371 165.988 710.439 158.353 708.841 149.331C708.695 148.512 708.598 147.707 708.552 146.924C708.552 146.92 708.552 146.914 708.552 146.91C708.506 145.986 708.616 145.132 708.895 144.402C709.93 141.682 712.817 141.731 715.266 143.877C716.948 145.352 718.236 147.624 718.744 149.803L718.754 149.809C719.216 148.907 720.014 148.657 720.926 149.054C721.248 149.196 721.589 149.417 721.941 149.726C723.592 151.171 725.087 154.25 725.44 157.018Z" fill="white" fill-opacity="0.1"/>
<path opacity="0.78" d="M726.325 246.997C726.657 247.459 726.91 247.965 727.079 248.492C727.081 248.496 727.083 248.5 727.083 248.5C728.72 253.703 726.534 259.12 725.839 260.628L725.831 260.634C724.527 260.7 720.232 260.644 717.061 257.508C716.764 257.216 716.481 256.897 716.213 256.552L716.208 256.544C715.892 256.128 715.625 255.632 715.428 255.067C714.652 252.844 715.237 250.336 716.668 249.277C717.74 248.482 719.078 248.635 720.123 249.581L720.129 249.575C719.952 248.439 720.165 247.334 720.708 246.517C720.907 246.216 721.152 245.954 721.443 245.738C722.874 244.681 725.009 245.173 726.325 246.997Z" fill="white" fill-opacity="0.1"/>
<path opacity="0.78" d="M755.664 221.063C754.824 221.634 753.934 222.052 753.044 222.318C753.038 222.32 753.034 222.322 753.03 222.324C745.169 224.608 738.137 221.12 736.307 220.089L736.3 220.077C736.075 218.168 735.628 211.478 739.326 205.399C739.706 204.775 740.13 204.156 740.602 203.551C740.604 203.547 740.612 203.541 740.612 203.541C741.193 202.806 741.91 202.13 742.752 201.559C746.288 199.156 750.66 199.479 752.516 202.282C753.906 204.382 753.488 207.275 751.706 209.607L751.714 209.62C753.76 209.045 755.803 209.264 757.298 210.241C757.854 210.602 758.334 211.068 758.708 211.637C760.564 214.437 759.202 218.66 755.664 221.063Z" fill="white" fill-opacity="0.1"/>
<path opacity="0.78" d="M749.244 280.64C749.794 281.211 750.228 281.844 750.543 282.508C750.545 282.512 750.547 282.514 750.551 282.518C753.583 289.041 751.034 296.07 750.2 298.025L750.19 298.035C748.293 298.229 741.989 298.517 736.89 294.813C736.413 294.466 735.949 294.085 735.503 293.665C735.499 293.663 735.497 293.659 735.495 293.655C734.967 293.149 734.503 292.539 734.133 291.833C732.668 289.045 733.193 285.772 735.186 284.298C736.679 283.192 738.696 283.289 740.379 284.431L740.387 284.423C739.973 282.972 740.144 281.526 740.845 280.43C741.101 280.026 741.432 279.667 741.836 279.369C743.833 277.892 747.068 278.378 749.244 280.64Z" fill="#FFA9C0" fill-opacity="0.1"/>
<path opacity="0.78" d="M678.164 118.539C678.405 119.069 678.517 119.63 678.513 120.193C678.513 120.197 678.515 120.199 678.515 120.203C678.435 125.174 674.156 129.655 672.95 130.822L672.94 130.828C671.437 130.981 666.246 131.3 662.477 128.99C662.091 128.752 661.719 128.487 661.366 128.191L661.36 128.185C660.936 127.819 660.588 127.37 660.347 126.839C659.336 124.61 660.592 121.835 663.152 120.643C665.072 119.749 667.176 119.999 668.536 121.117L668.546 121.111C668.582 119.818 669.221 118.521 670.31 117.566C670.714 117.213 671.178 116.906 671.697 116.664C674.258 115.468 677.153 116.309 678.164 118.539Z" fill="white" fill-opacity="0.1"/>
<path opacity="0.78" d="M547.54 237.284C547.855 237.898 548.068 238.547 548.185 239.199C548.185 239.203 548.187 239.205 548.189 239.209C549.191 244.967 546.596 250.169 545.844 251.522L545.836 251.528C544.617 251.71 540.371 252.097 536.739 249.432C536.367 249.158 536 248.853 535.644 248.51L535.638 248.502C535.206 248.08 534.822 247.56 534.507 246.946C533.187 244.368 533.635 241.15 535.509 239.762C536.912 238.721 538.716 239.003 540.088 240.295L540.096 240.288C539.847 238.789 540.1 237.286 540.801 236.177C541.059 235.765 541.382 235.408 541.76 235.128C543.63 233.742 546.218 234.706 547.54 237.284Z" fill="white" fill-opacity="0.1"/>
<path opacity="0.78" d="M561.582 142.471C561.489 143.183 561.246 143.843 560.883 144.43C560.881 144.434 560.881 144.436 560.879 144.44C557.64 149.577 550.459 151.423 548.494 151.843L548.48 151.841C546.857 151.005 541.392 147.904 539.038 143C538.797 142.495 538.586 141.973 538.419 141.43C538.419 141.426 538.417 141.42 538.417 141.42C538.218 140.758 538.152 140.058 538.246 139.344C538.636 136.348 541.672 134.282 545.025 134.732C547.538 135.069 549.513 136.721 550.182 138.787L550.196 138.789C551.054 137.461 552.527 136.531 554.236 136.255C554.869 136.152 555.536 136.14 556.215 136.231C559.571 136.683 561.972 139.475 561.582 142.471Z" fill="white" fill-opacity="0.1"/>
<path opacity="0.78" d="M631.315 140.774C631.524 141.65 631.595 142.54 631.546 143.403C631.546 143.409 631.546 143.413 631.546 143.417C631.052 151.025 626.174 156.798 624.806 158.275L624.794 158.281C623.195 158.127 617.698 157.282 613.915 152.767C613.527 152.303 613.157 151.8 612.81 151.256C612.808 151.251 612.806 151.247 612.805 151.243C612.386 150.574 612.058 149.793 611.847 148.917C610.965 145.237 612.518 141.303 615.315 140.133C617.412 139.257 619.61 140.181 620.952 142.245L620.963 142.239C621.109 140.262 621.889 138.436 623.116 137.254C623.57 136.814 624.085 136.465 624.653 136.227C627.448 135.059 630.431 137.092 631.315 140.774Z" fill="white" fill-opacity="0.1"/>
<path opacity="0.78" d="M594.694 133.029C595.114 133.499 595.442 133.963 595.679 134.403L595.685 134.411C598.2 139.164 595.763 143.292 594.777 144.67L594.765 144.674C592.581 144.095 584.534 141.595 578.925 135.896C578.417 135.379 577.947 134.849 577.527 134.306C577.525 134.302 577.521 134.296 577.521 134.296C577.034 133.652 576.691 132.98 576.53 132.313C575.935 129.827 578.041 128.399 580.866 128.705C582.807 128.915 584.858 129.902 586.302 131.215H586.312C586.2 130.329 586.652 129.744 587.506 129.571C587.809 129.508 588.165 129.496 588.569 129.54C590.475 129.748 593.073 131.211 594.694 133.029Z" fill="white" fill-opacity="0.1"/>
<path opacity="0.78" d="M665.883 95.5405C666.022 96.1256 666.07 96.7066 666.034 97.2574C666.034 97.2615 666.034 97.2635 666.034 97.2675C665.682 102.116 662.363 105.332 661.431 106.145L661.423 106.147C660.34 105.885 656.615 104.779 654.06 101.484C653.798 101.145 653.549 100.784 653.314 100.399L653.31 100.391C653.029 99.9166 652.806 99.3819 652.667 98.7948C652.077 96.3354 653.139 93.9607 655.038 93.4927C656.46 93.1416 657.949 93.9628 658.855 95.4295L658.863 95.4275C658.964 94.1685 659.498 93.073 660.332 92.4375C660.641 92.2014 660.991 92.0279 661.377 91.9331C663.275 91.465 665.293 93.0791 665.883 95.5405Z" fill="white" fill-opacity="0.1"/>
<path opacity="0.78" d="M717.814 103.778C717.814 104.392 717.722 104.975 717.555 105.511C717.555 105.515 717.555 105.517 717.553 105.521C716.056 110.228 712.012 112.601 710.901 113.176H710.893C709.884 112.653 706.465 110.654 704.721 106.776C704.542 106.379 704.381 105.959 704.241 105.521L704.239 105.513C704.074 104.977 703.98 104.394 703.98 103.78C703.98 101.206 705.593 99.1176 707.58 99.1176C709.069 99.1176 710.346 100.29 710.893 101.96H710.901C711.301 100.742 712.088 99.7895 713.061 99.3618C713.424 99.2024 713.81 99.1176 714.214 99.1176C716.203 99.1136 717.814 101.202 717.814 103.778Z" fill="white" fill-opacity="0.1"/>
<path opacity="0.78" d="M695.306 48.277C695.547 48.8077 695.658 49.3685 695.654 49.9314C695.654 49.9355 695.656 49.9375 695.656 49.9415C695.577 54.9128 691.298 59.3938 690.093 60.5579L690.083 60.564C688.58 60.7173 683.39 61.0361 679.621 58.726C679.235 58.4879 678.862 58.2236 678.51 57.927L678.504 57.921C678.08 57.5558 677.731 57.1059 677.49 56.5753C676.479 54.3459 677.735 51.5717 680.296 50.3793C682.213 49.4856 684.32 49.7357 685.679 50.8535L685.689 50.8474C685.725 49.5521 686.364 48.2548 687.453 47.3025C687.858 46.9495 688.321 46.6428 688.841 46.4007C691.399 45.2063 694.294 46.0476 695.306 48.277Z" fill="white" fill-opacity="0.1"/>
<path opacity="0.78" d="M742.762 64.4963C742.901 65.0813 742.949 65.6624 742.913 66.2132C742.913 66.2172 742.913 66.2193 742.913 66.2233C742.561 71.0715 739.24 74.2875 738.31 75.1006L738.302 75.1026C737.219 74.8403 733.494 73.7347 730.939 70.44C730.676 70.101 730.428 69.7399 730.193 69.3545L730.189 69.3465C729.908 68.8723 729.685 68.3357 729.546 67.7506C728.956 65.2912 730.017 62.9165 731.917 62.4484C733.34 62.0974 734.828 62.9185 735.734 64.3853L735.742 64.3833C735.843 63.1243 736.377 62.0288 737.211 61.3932C737.519 61.1572 737.87 60.9837 738.256 60.8888C740.156 60.4208 742.172 62.0368 742.762 64.4963Z" fill="white" fill-opacity="0.1"/>
<path opacity="0.78" d="M613.529 71.0916C613.696 71.7897 613.704 72.4938 613.577 73.1737C613.577 73.1778 613.577 73.1818 613.577 73.1858C612.388 79.1619 606.349 83.5137 604.667 84.6234L604.653 84.6274C602.843 84.4418 596.641 83.5541 592.697 79.8418C592.293 79.4605 591.911 79.0489 591.56 78.605C591.56 78.605 591.556 78.599 591.554 78.5949C591.134 78.0502 590.822 77.4227 590.654 76.7226C589.952 73.7851 592.044 70.7486 595.331 69.9396C597.794 69.3343 600.225 70.1514 601.587 71.832L601.601 71.828C601.927 70.2765 602.969 68.8682 604.464 67.9866C605.019 67.6577 605.635 67.4035 606.302 67.2381C609.589 66.429 612.824 68.154 613.529 71.0916Z" fill="white" fill-opacity="0.1"/>
</svg>
